<?xml version="1.0" encoding="utf-8"?>
<!-- Generator: Adobe Illustrator 23.0.6, SVG Export Plug-In . SVG Version: 6.00 Build 0)  -->
<svg version="1.1" id="Calque_1" xmlns="http://www.w3.org/2000/svg" xmlns:xlink="http://www.w3.org/1999/xlink" x="0px" y="0px"
	 viewBox="0 0 1400 980" style="enable-background:new 0 0 1400 980;" xml:space="preserve">
<style type="text/css">
	.st0{fill:#493C87;}
	.st1{fill:#ED986D;}
	.st2{fill:#9E6352;}
	.st3{fill:#844A38;}
	.st4{fill:#722C10;}
	.st5{opacity:8.000000e-02;fill:#493C87;}
	.st6{fill:#57449B;}
	.st7{fill:#FCB692;}
	.st8{fill:#E5E4E3;}
	.st9{fill:#A5B2BD;}
	.st10{fill:#D1D0CF;}
	.st11{fill:#47291F;}
	.st12{fill:#F2F2F2;}
	.st13{fill:#FFFFFF;}
	.st14{fill:#BABABA;}
	.st15{fill:#C6C6C6;}
	.st16{opacity:8.000000e-02;fill:#57449B;}
	.st17{fill:#5C57C1;}
	.st18{fill:#9B8BEA;}
	.st19{fill:none;}
</style>
<g>
	<path class="st0" d="M683.9,582.1C683.9,582.1,683.9,582.1,683.9,582.1C683.9,582.2,683.9,582.2,683.9,582.1z"/>
	<path class="st0" d="M763.1,475l-12.8-60.9c0,0-18.5,8.5-20.4,27.8c-1.6,15.9-3.3,40.7-3.8,49c-0.1,1-0.1,1.9-0.2,2.8
		c-0.2,6-2,27-2,27s-8.3,58.5-11.1,95.6c0,0,21.9-1.9,21.9-0.6c0.1-1.7,13.9-67.7,13.9-67.7l6.1-35.7L763.1,475z"/>
</g>
<path class="st1" d="M712.8,616.3l-1,8.4l-11.9,10.6l0,15.3l6.7-1.9l0.8-2.5l7.7,9.4l-2.1-2.6c0,0,10.3,3.6,10.4,2.7
	c0.1-0.9,11.6,3.3,11.6,3.3s-0.4-35.5-0.3-36.5c0.1-0.9-0.2-11.7-0.2-11.7L712.8,616.3z"/>
<path class="st2" d="M748.3,742.3l-57.7,27.2h-6.4c-20.5-4.7-23.2-9.3-23.2-19.4v-45.5c0-10.2,6.1-20.6,13.6-23.1l78.9-26.9
	c4.8-2.3,20.3,2.3,22.7,8.8l-14.3,55.9C761.9,729.3,755.8,739.8,748.3,742.3z"/>
<path class="st2" d="M740.7,650.4l-36.5,14.8c-3.8,1.5-8.6-0.6-10.6-4.7l0,0c-2-4.1-0.6-8.7,3.2-10.3l36.5-14.8
	c3.8-1.5,8.6,0.6,10.6,4.7l0,0C745.9,644.3,744.5,648.9,740.7,650.4z"/>
<path class="st3" d="M764.3,744.2l-73.8,25.3c-7.5,2.6-13.6-3.6-13.6-13.8v-49.3c0-10.2,6.1-20.6,13.6-23.1l73.8-25.3
	c7.5-2.6,13.6,3.6,13.6,13.8V721C777.9,731.2,771.8,741.6,764.3,744.2z"/>
<polygon class="st2" points="692.7,655.9 693.2,675 704,677.8 704,656 "/>
<path class="st1" d="M735.7,658l-19.4,6.4c-2.6,0.9-5.5-0.6-6.4-3.2l0,0c-0.9-2.6,0.6-5.5,3.2-6.4l19.4-6.4c2.6-0.9,5.5,0.6,6.4,3.2
	l0,0C739.8,654.3,738.3,657.1,735.7,658z"/>
<polygon class="st4" points="733.5,640.5 734.1,661.6 744.8,663.1 744.8,643.6 "/>
<ellipse class="st5" cx="522.2" cy="932.8" rx="138.9" ry="15"/>
<path class="st0" d="M418.3,899.8c-10.8,13.2-7.9,36.3-7.9,36.3c0,3.1,42.5,3.1,42.5,0l-9.5-17.6l0.3-18.7H418.3z"/>
<path class="st0" d="M551.5,896.3c0,0,20.7,13.1,22.2,13.1c1.5,0,28.8,9.2,30.4,16.5c0.3,1.3-81.9-0.1-81.9-0.1l1.5-26.2l7.4-9.2
	L551.5,896.3z"/>
<path class="st0" d="M563,599.4c0,0,12.3,160.8,0,187.4c-3.5,7.5-3,117.7-3,117.7l-39.7,0.7c0,0-3.6-45.9-5.2-67.6
	c-1.6-21.7-2.8-47,3-62.9l-5.7-106l17.5-63L563,599.4z"/>
<path class="st0" d="M531.4,613.9L482,780.6l-37.8,124.7h-34c0,0,12.3-117.4,28.2-142c0,0,4.8-104.5,19.6-135.3l4.8-35.5
	L531.4,613.9z"/>
<path class="st1" d="M623.7,562.5l8.1,3.4l12.5,2.5l20.4,2.7l1.1-3.4l-12.5,5.2l8,13.6l8.8-1c0,0,7.6,9.4,6.7,9
	c-0.9-0.4-36.4,6.3-36.4,6.3s-19-15.3-19.9-15.7c-0.9-0.4-10.7-6.1-10.7-6.1L623.7,562.5z"/>
<polygon class="st0" points="534.5,586 508.8,580.3 470.8,588.6 466.6,624.7 494.9,653.1 536.6,653.1 "/>
<path class="st6" d="M495.4,288.1c0,0-6.1,32.5-15.2,51.1c-9.1,18.5-2.9,30.1-2.9,30.1l-1.4,20.5c0,0-6.2-16.3-14.5-26.1
	C445.1,344.5,437.5,273.9,495.4,288.1z"/>
<path class="st7" d="M464.4,352.8c0.1,5.8,4.9,10.3,10.7,10.2c5.8-0.2,10.4-5,10.3-10.8c-0.1-5.8-4.9-10.3-10.7-10.2
	C468.8,342.2,464.2,347,464.4,352.8z"/>
<path class="st1" d="M476.5,420.4c0-1.2-2-84.9-2-84.9l46.4,51.2l0.8,34.7L476.5,420.4z"/>
<path class="st7" d="M539.8,300.8c0,0,4,26.1,2,31.1c-2.1,4.9-1.2,6.7-1.2,6.7s2.9,6.2,2,16.4c-0.6,6.8-1.6,18.7-2.2,25.7
	c-0.3,3.4,0.5,8.5,0.5,8.5s-8.3,22.1-38.4,4.7c-15.6-9-18.4-14.2-26-28.9c-8.3-15.9-14.3-52.9-14.3-52.9S512.5,282.7,539.8,300.8z"
	/>
<polygon class="st8" points="476,405.7 429.3,430.4 460.6,545.3 446.8,608.2 512.4,622.4 520.1,604.9 527.8,619.1 560.6,599.1 
	553.8,543.2 573.8,481.4 556.2,422.7 521.3,406 "/>
<path class="st0" d="M554.1,420.8c0,0,27,52.2,28.9,79.8c0.4,6.1,2.9,27.2,2.9,27.2s12.8,9.3,45.9,38l-5.9,25l-64.4-37.5l-14.9-74
	L554.1,420.8z"/>
<path class="st6" d="M541.2,333.5c0,0-7.2-3.5-15.3,1.2l-0.2-7.3c0,0,13.5-3.4,16.7,1.8L541.2,333.5z"/>
<path class="st6" d="M487.1,342.8c0,0,15.1-7.4,24.1-4.8l-3.3-7.4c0,0-19.2,2.4-22.9,9.4L487.1,342.8z"/>
<path class="st6" d="M541.6,314.6c0,0,5.6-21-18.8-32.3c-31.7-14.7-44.3,10.9-49.4,14c-3.5,2.2-19.8,58.1-4.1,39.3
	C490.6,310.3,527.5,301.6,541.6,314.6z"/>
<path class="st6" d="M490.9,295.7c0,0-1.5,15.7-9.3,32.2c-7.8,16.6-0.4,28.8-0.4,28.8l-5.9,6.4c0,0,2.6-14.1-6.4-20
	C451.4,331.7,449.4,268.8,490.9,295.7z"/>
<path class="st0" d="M583,501l-28.8,16.1l-9.7-37.2l10.4-59.1c0,0,19.9,10,22.4,29.1C580,469,583,501,583,501z"/>
<path class="st9" d="M454.5,472.8l-13.4,50l-35.8-28.5c4.2-24.2,3.5-52.2,24-64l28.1,13.2L454.5,472.8z"/>
<path class="st1" d="M521.3,406c0,0,13,18.1-8.5,16.4c-21.6-1.7-36.8-16.8-36.8-16.8l24.4-5L521.3,406z"/>
<polygon class="st10" points="519.3,606.6 523.2,606.5 514.9,431.2 511,431.3 "/>
<polygon class="st6" points="522.2,430.2 525.2,533.3 518.8,560.6 509.6,538.5 506,442.9 514.8,421.6 "/>
<path class="st11" d="M508.3,345.9c0.4,3.5-0.8,6.6-2.6,6.8c-1.8,0.2-3.7-2.5-4-6c-0.4-3.5,0.8-6.6,2.6-6.8
	C506.1,339.6,507.9,342.3,508.3,345.9z"/>
<path class="st11" d="M539.7,341.8c0.4,3.5-0.8,6.6-2.6,6.8c-1.8,0.2-3.7-2.5-4-6c-0.4-3.5,0.8-6.6,2.6-6.8
	C537.5,335.6,539.3,338.3,539.7,341.8z"/>
<path class="st0" d="M451.2,417.8c0,0-39.3,10.7-39.5,35.4l-6.5,38.8l38.5-0.5l0.5,62.5l2.4,53l57.8,20.9l-7.6-189.2l-36.2-27.5
	L451.2,417.8z"/>
<path class="st0" d="M529.6,424.9l7,202.4l30-23.1l-3.4-95.7c0,0,5.5-77.1-1.2-82.5l-33.7-18.8L529.6,424.9z"/>
<path class="st6" d="M461.8,410.7l-27.2,11.9l49.2,44.4l-12.9,29.4c0,0,30,45,30,43.8c0-1.2-5.1-111.8-5.1-111.8L461.8,410.7z"/>
<polygon class="st12" points="502.5,443 513.2,421.7 476.4,398.3 460.5,411.1 "/>
<polygon class="st6" points="533.4,527 552.5,479.8 538,465.1 558.9,421.3 532.5,409 529.7,427.3 "/>
<polygon class="st12" points="525.3,404.9 513.2,421.9 525,441.7 538.6,411.3 "/>
<ellipse class="st5" cx="803" cy="932.8" rx="138.9" ry="15"/>
<path class="st0" d="M763.6,894.4c0,0-18.7,12.8-20.1,12.8c-1.4,0-26.3,9-27.5,16.2c-0.2,1.3,75.8-0.1,75.8-0.1l-2.3-25.8l-7.2-9
	L763.6,894.4z"/>
<path class="st0" d="M882.8,898.7c12,13.1,11.2,36.2,11.2,36.2c0.3,3.1-42.2,3.1-42.5,0l7.9-17.5l-2-18.6H882.8z"/>
<path class="st0" d="M835.6,578.9l13.4,29l13.3,134.6c0,0,36,127.5,29.2,161.7l-37.8-0.2l-61.4-257.6l-8.2-67.5H835.6z"/>
<path class="st0" d="M791.1,578.5l-6.8,46c0,0,4.3,150.8,15.6,274.2h-40.7c0,0-40.1-257.3-21.2-318.4L791.1,578.5z"/>
<polygon class="st0" points="758.3,586 784,580.3 822,588.6 826.2,624.7 797.9,653.1 756.2,653.1 "/>
<path class="st6" d="M790.2,286.9c0,0,4.3,32.3,14,50.6c9.7,18.3,3.8,30,3.8,30l2,20.4c0,0,5.7-16.5,13.7-26.5
	C839.4,341.8,847.5,270.9,790.2,286.9z"/>
<path class="st7" d="M820.3,350.6c0,5.8-4.6,10.5-10.4,10.5c-5.8,0-10.6-4.7-10.6-10.5s4.6-10.5,10.4-10.5
	C815.5,340.1,820.3,344.8,820.3,350.6z"/>
<path class="st1" d="M810.2,418.5c0-1.2-0.5-84.9-0.5-84.9l-44.9,52.6l0.3,34.7L810.2,418.5z"/>
<path class="st7" d="M743.4,300.9c0,0-3.3,26.2-1.1,31.1c2.2,4.9,1.4,6.7,1.4,6.7s-2.7,6.3-1.6,16.4c0.8,6.8,2.2,18.6,3,25.6
	c0.4,3.4-0.2,8.5-0.2,8.5s8.9,21.8,38.5,3.6c15.4-9.5,18-14.7,25.2-29.7c7.8-16.2,12.8-53.3,12.8-53.3S770.1,282,743.4,300.9z"/>
<polygon class="st8" points="810.2,403.9 857.6,427.1 829.8,542.9 845.5,605.4 787.7,620.7 790.2,606.9 764.8,624.6 741.5,600.8 
	736.6,543.6 741.7,497.1 737.9,423.2 765,405.5 "/>
<path class="st6" d="M743,333.7c0,0,7-3.7,15.3,0.8l0-7.3c0,0-13.6-3-16.6,2.3L743,333.7z"/>
<path class="st6" d="M797.3,341.3c0,0-15.3-6.9-24.2-4.1l3-7.5c0,0,19.2,1.8,23.2,8.7L797.3,341.3z"/>
<path class="st6" d="M742,315.1c0,0-9.8-18.5,14.2-30.5c31.2-15.7,48.1,6.9,53.3,9.9S846,324.6,742,315.1z"/>
<path class="st6" d="M787.4,294c0,0,3.9,17.5,12.3,33.9c8.3,16.3,3.9,27.2,3.9,27.2l6.1,6.3c0,0-3.1-14,5.8-20.2
	C832.7,329.1,828.1,265.9,787.4,294z"/>
<path class="st1" d="M765,405.5c0,0-12.5,18.5,9,16.2s36.2-17.8,36.2-17.8l-24.5-4.3L765,405.5z"/>
<path class="st11" d="M749.6,371.6l23.5,2.4c0,0,0,11.4-10.9,11.4C751.2,385.4,749.6,371.6,749.6,371.6z"/>
<path class="st13" d="M771.4,373.8l-21.1-2.1C750.9,379,771.4,379.9,771.4,373.8z"/>
<path class="st11" d="M777.3,345.9c-0.3,3.6,1,6.6,2.8,6.8c1.9,0.2,3.6-2.6,3.9-6.1c0.3-3.6-1-6.6-2.8-6.8
	C779.3,339.6,777.6,342.4,777.3,345.9z"/>
<path class="st11" d="M745.6,341.9c-0.3,3.6,1,6.6,2.8,6.8c1.9,0.2,3.6-2.6,3.9-6.1c0.3-3.6-1-6.6-2.8-6.8
	C747.6,335.6,745.9,338.3,745.6,341.9z"/>
<path class="st0" d="M831.9,414.1c0,0,34.7,5.9,35.7,30.5l-17,43.2l-5.3,2.5l1.3,62.6l2.5,55L776,624.6L775,443l51-33.1L831.9,414.1
	z"/>
<path class="st0" d="M757.6,424.5l-0.6,202.3l-23.7-23v-97.3c0,0-0.9-76.6,3-82l21.7-17.6L757.6,424.5z"/>
<path class="st6" d="M810.8,406.3l9.2,38.9l-30.9,16.5l13.2,39.5c0,0-26.2,35.5-26.2,34.3c0-1.2-0.1-111.9-0.1-111.9L810.8,406.3z"
	/>
<polygon class="st12" points="775,443 770.8,418.6 809.6,396.4 825.7,409.5 "/>
<polygon class="st6" points="757,537.8 742.5,482.1 751.2,467.7 737.9,423.2 755.4,408.8 757.5,427 "/>
<polygon class="st12" points="764.9,401.9 770.8,418.6 759.8,440.5 748,410.6 "/>
<path class="st14" d="M448.6,646.1l-41.8-36.8c-3.4-3-3.8-8.3-0.7-11.7l58.7-66.7c3-3.4,8.3-3.8,11.7-0.7l41.8,36.8
	c3.4,3,3.8,8.3,0.7,11.7l-58.7,66.7C457.2,648.8,452,649.1,448.6,646.1z"/>
<path class="st13" d="M451.1,648.8L409.3,612c-3.4-3-3.8-8.3-0.7-11.7l58.7-66.7c3-3.4,8.3-3.8,11.7-0.7l41.8,36.8
	c3.4,3,3.8,8.3,0.7,11.7l-58.7,66.7C459.8,651.5,454.6,651.9,451.1,648.8z"/>
<path class="st15" d="M449.3,647.2l-40.1-35.3c-3.4-3-3.7-8.1-0.7-11.5l58.9-66.9c3-3.4,8.1-3.7,11.5-0.7l40.1,35.3
	c3.4,3,3.7,8.1,0.7,11.5l-58.9,66.9C457.9,649.9,452.7,650.2,449.3,647.2z"/>
<path class="st6" d="M475.4,362.9l7.1,26.6c0,0,8.1,23.3,47.6,17.9c24.9-3.4,12.6-52.4,12.6-52.4s2.8,31.8-61.5,1.8
	C479.6,356,478.7,357,475.4,362.9z"/>
<path class="st13" d="M537.4,376c-7.8,3.2-15.6,3.9-23.5,2.1c0,0,0.2,6.8,11.1,6.5C536,384.3,537.4,376,537.4,376z"/>
<path class="st13" d="M481.1,579.1l-21.5,26c-1.4,1.7-4.1,2-5.8,0.5l0,0c-1.7-1.4-2-4.1-0.5-5.8l21.5-26c1.4-1.7,4.1-2,5.8-0.5l0,0
	C482.3,574.7,482.6,577.4,481.1,579.1z"/>
<path class="st1" d="M455.3,587.3l6.9,4.9l15.9-1.7l20.6,15.7l-3.1,7.9L481,603.6l7.7,9.9l3.9,4.7l-20.4,23c0,0-26.3-32.8-27.1-33.3
	c-0.8-0.5-8.5-8-8.5-8L455.3,587.3z"/>
<path class="st0" d="M401.4,526.3c0.6-1.5,3.7-34.3,3.7-34.3l45.5-9.8l-13.2,56.3l24.3,50.6c0,0-13.9,26.6-15.8,26.6
	C444.2,615.8,391.1,551,401.4,526.3z"/>
<path class="st7" d="M685.4,571.2l-8.3,1.7l-13.8-8.1l-18.9-1.5v5l10.9,7.1l-9.4,8l-12.1,7.9c0,0-0.6,7.1,0.3,6.9
	c0.9-0.2,17.6,7.4,17.6,7.4s33.6-11.4,34.6-11.6c0.9-0.2,11-3.8,11-3.8L685.4,571.2z"/>
<path class="st6" d="M817.5,560.6c21.8-22.1,52.7-81.2,50-116c-2.9-19.4-30.1-17.2-42.6,18.4l-27.8,69.1l-111.7,40.3
	c0,0,8.8,18.3,10.4,18.2C697.4,590.5,793.4,585.1,817.5,560.6z"/>
<circle class="st6" cx="773.7" cy="283.2" r="10.4"/>
<ellipse transform="matrix(0.1598 -0.9872 0.9872 0.1598 378.4844 1018.4561)" class="st6" cx="787.5" cy="286.9" rx="10.4" ry="10.4"/>
<circle class="st6" cx="756.2" cy="286.2" r="10.4"/>
<ellipse transform="matrix(0.1595 -0.9872 0.9872 0.1595 333.9167 985.3092)" class="st6" cx="745.6" cy="296.6" rx="10.4" ry="10.4"/>
<ellipse transform="matrix(0.2277 -0.9737 0.9737 0.2277 277.2956 966.5388)" class="st6" cx="747.9" cy="308.5" rx="10.4" ry="10.4"/>
<ellipse transform="matrix(0.9681 -0.2506 0.2506 0.9681 -53.3036 201.0545)" class="st6" cx="762.7" cy="309.8" rx="10.4" ry="10.4"/>
<ellipse transform="matrix(0.9985 -5.477664e-02 5.477664e-02 0.9985 -15.9051 43.0362)" class="st6" cx="777.1" cy="311.7" rx="10.4" ry="10.4"/>
<ellipse transform="matrix(0.9997 -2.331372e-02 2.331372e-02 0.9997 -7.0319 18.4769)" class="st6" cx="788.9" cy="310.8" rx="10.4" ry="10.4"/>
<path class="st1" d="M673.5,601.5l-17.5,6.8c-2.2,0.8-4.6-0.2-5.4-2.4l-1.9-4.9c-0.8-2.2,0.2-4.6,2.4-5.4l17.5-6.8
	c2.2-0.8,4.6,0.2,5.4,2.4l1.9,4.9C676.8,598.2,675.7,600.7,673.5,601.5z"/>
<polygon class="st1" points="644.4,568.3 669.3,568.3 669.4,574.7 641,578 "/>
<path class="st1" d="M677.4,599.9L677.4,599.9c-1.9-0.2-3.3-2-3-3.9l0.9-7.7c0.2-1.9,2-3.3,3.9-3h0c1.9,0.2,3.3,2,3,3.9l-0.9,7.7
	C681.1,598.7,679.3,600.1,677.4,599.9z"/>
<path class="st16" d="M1091,132.5c-3-19.3-12.3-36.2-26.3-50.1c-32.9-35.9-103.7-52.9-180.5-39c-99,18-170.6,80.5-159.9,139.6
	C735,242.1,824,275.5,923,257.5c37.9-6.9,71.8-20.3,98.6-37.5c-19.7,28.6-50.1,54.3-87.6,73.3C1031.5,271.7,1101.6,200.2,1091,132.5
	z"/>
<path class="st17" d="M1081.4,126.1c-3-19.3-12.3-36.2-26.3-50.1c-32.9-35.9-103.7-52.9-180.5-39c-99,18-170.6,80.5-159.9,139.6
	c10.7,59.1,99.7,92.5,198.7,74.6c37.9-6.9,71.8-20.3,98.6-37.5c-19.7,28.6-50.1,54.3-87.6,73.3C1022,265.3,1092,193.8,1081.4,126.1z
	"/>
<path class="st16" d="M218.3,213.3c-2.4-19.4,1.9-38.2,11.5-55.4c21.8-43.6,85.1-79.3,162.8-87c100.2-9.9,186.2,30.5,192.1,90.3
	c5.9,59.8-70.5,116.3-170.6,126.3c-38.3,3.8-74.6,0.2-105.1-9c26.8,22.1,63.1,38.5,104.3,46.4C313.7,330.9,226.7,281.4,218.3,213.3z
	"/>
<path class="st18" d="M225.8,204.6c-2.4-19.4,1.9-38.2,11.5-55.4c21.8-43.6,85.1-79.3,162.8-87c100.2-9.9,186.2,30.5,192.1,90.3
	c5.9,59.8-70.5,116.3-170.6,126.3c-38.3,3.8-74.6,0.2-105.1-9c26.8,22.1,63.1,38.5,104.3,46.4C321.2,322.1,234.2,272.6,225.8,204.6z
	"/>
<g id="Bounding_Boxes">
	<g id="Shape">
		<path id="Shape-2" class="st19" d="M833.9,81.8h119.2V201H833.9V81.8z"/>
		<path id="Shape-3" class="st19" d="M833.9,81.8h119.2V201H833.9V81.8z"/>
	</g>
</g>
<path id="c2_shopping-bag" class="st13" d="M873.9,171.2h39.1c2.4,0,4.3,1.9,4.3,4.3v3.3c0,2.4-1.9,4.3-4.3,4.3h-39.1
	c-2.4,0-4.3-1.9-4.3-4.3v-3.3C869.6,173.2,871.6,171.2,873.9,171.2z"/>
<path id="c1_shopping-bag" class="st13" d="M864,201c-10,0.1-18.1-7.9-18.2-17.9c0-0.4,0-0.8,0-1.2l3.7-53.7
	c0.8-9.5,8.7-16.7,18.2-16.7h2v-6c0-13.2,10.7-23.8,23.9-23.8c13.2,0,23.8,10.7,23.8,23.8v6h2c9.5-0.1,17.4,7.2,18.2,16.7l3.7,53.7
	c0.3,4.7-1.2,9.3-4.4,12.9c-3.2,3.7-7.7,5.9-12.6,6.2c-0.4,0-0.8,0-1.2,0L864,201z M861.4,129.1l-3.7,53.7c0,0.1,0,0.3,0,0.4
	c0,3.3,2.8,6,6.1,6h59.3c0.1,0,0.3,0,0.4,0c1.6-0.1,3.2-0.8,4.2-2.1c1-1.2,1.6-2.7,1.4-4.3l-3.7-53.7c-0.3-3.2-2.9-5.6-6.1-5.6h-2.1
	v23.9c-6.4-0.5-11.4-5.6-11.9-11.9v-11.9h-23.9v11.9c-0.5,6.4-5.6,11.4-11.9,11.9v-23.8h-2.1C864.3,123.5,861.7,125.9,861.4,129.1
	L861.4,129.1z M905.4,111.6v-6c0-6.6-5.3-11.9-11.9-11.9c-6.6,0-11.9,5.3-11.9,11.9v6H905.4z"/>
<g id="Bounding_Boxes_1_">
	<g id="Shape_1_">
		<path id="Shape-2_1_" class="st19" d="M350.4,121.6h99.3v99.3h-99.3V121.6z"/>
		<path id="Shape-3_1_" class="st19" d="M350.4,121.6h99.3v99.3h-99.3V121.6z"/>
	</g>
</g>
<path id="c2_shipping" class="st13" d="M358.5,171.2h53.7l0,0v12.1l0,0h-53.7c-0.5,0-0.9-0.4-0.9-0.9c0,0,0,0,0,0v-10.3
	C357.6,171.7,358,171.2,358.5,171.2z"/>
<path id="c1_shipping" class="st13" d="M439.5,225.9c-8.4,0-15.2-6.8-15.2-15.2c0-1,0.1-2,0.3-3h-49.2c0.2,1,0.3,2,0.3,3
	c0,8.4-6.8,15.2-15.2,15.2c-8.4,0-15.2-6.8-15.2-15.2c0-1,0.1-2,0.3-3h-0.3c-3.4,0-6.1-2.7-6.1-6.1v-72.9c0-6.7,5.4-12.1,12.1-12.1
	h60.7c6.7,0,12.1,5.4,12.1,12.1v6.1h13.2c3.2,0,6.3,1.3,8.6,3.6l11.1,11.1c2.3,2.3,3.6,5.4,3.6,8.6v43.6c0,3.4-2.7,6.1-6.1,6.1h-0.3
	c0.2,1,0.3,2,0.3,3C454.7,219.1,447.9,225.9,439.5,225.9z M439.5,207.7c-1.7,0-3,1.4-3,3c0,1.7,1.4,3,3,3c1.7,0,3-1.4,3-3
	c0,0,0,0,0,0C442.6,209,441.2,207.7,439.5,207.7z M360.6,207.7c-1.7,0-3,1.4-3,3c0,1.7,1.4,3,3,3c1.7,0,3-1.4,3-3c0,0,0,0,0,0
	C363.6,209,362.3,207.7,360.6,207.7z M426.8,146.9c-1.3,0-2.4,1.1-2.4,2.4v43.7c0,1.3,1.1,2.4,2.4,2.4h19.4c1.3,0,2.4-1.1,2.4-2.4
	v-32.5c0-1.6-0.6-3.1-1.8-4.3l-7.5-7.5c-1.1-1.1-2.7-1.8-4.3-1.8L426.8,146.9z M353.9,128.7c-1.3,0-2.4,1.1-2.4,2.4v61.9
	c0,1.3,1.1,2.4,2.4,2.4h55.9c1.3,0,2.4-1.1,2.4-2.4v-61.9c0-1.3-1.1-2.4-2.4-2.4L353.9,128.7z"/>
</svg>
