<?xml version="1.0" encoding="utf-8"?>
<!-- Generator: Adobe Illustrator 23.0.6, SVG Export Plug-In . SVG Version: 6.00 Build 0)  -->
<svg version="1.1" xmlns="http://www.w3.org/2000/svg" xmlns:xlink="http://www.w3.org/1999/xlink" x="0px" y="0px"
	 viewBox="0 0 1936 660" style="enable-background:new 0 0 1936 660;" xml:space="preserve">
<style type="text/css">
	.st0{display:none;}
	.st1{display:inline;fill:#E5646E;}
	.st2{display:inline;fill:#DDF5FF;}
	.st3{display:inline;fill:#C1E9F4;}
	.st4{display:inline;fill:#57449B;}
	.st5{display:inline;fill:#493C87;}
	.st6{display:inline;fill:#747474;}
	.st7{display:inline;}
	.st8{fill:#495959;}
	.st9{display:inline;opacity:8.000000e-02;fill:#493C87;enable-background:new    ;}
	.st10{display:inline;fill:#FFFFFF;}
	.st11{display:inline;fill:#D9EAFC;}
	.st12{display:inline;fill:#C3DDF4;}
	.st13{display:inline;fill:#AEC1ED;}
	.st14{display:inline;fill:#FFAF10;}
	.st15{display:inline;fill:#FF9518;}
	.st16{fill:#5DC1D8;}
	.st17{display:inline;fill:#445EA0;}
	.st18{fill:#57449B;}
	.st19{fill:#65B3AD;}
	.st20{fill:#493C87;}
	.st21{fill:#FFFFFF;}
	.st22{opacity:8.000000e-02;fill:#493C87;enable-background:new    ;}
	.st23{fill:#D9EAFC;}
	.st24{fill:#C3DDF4;}
	.st25{fill:#AEC1ED;}
	.st26{fill:#FFAF10;}
	.st27{fill:#FF9518;}
	.st28{fill:#445EA0;}
	.st29{fill:#ECDDF2;}
	.st30{fill:#C9AECC;}
	.st31{fill:#C4AECC;}
	.st32{fill:#A486CE;}
	.st33{fill:#78D2FA;}
	.st34{fill:#F5C86E;}
	.st35{fill:#FF5A5A;}
	.st36{fill:#A5DC69;}
	.st37{fill:#6E87F5;}
	.st38{fill:#FF2C5C;}
	.st39{fill:#E62753;}
	.st40{fill:#ADE7FF;}
	.st41{fill:#82D2F5;}
	.st42{fill:#4FB1F5;}
	.st43{fill:#46A4E6;}
	.st44{fill:#FFD659;}
	.st45{fill:#FFBD54;}
	.st46{fill:#8AE0FF;}
	.st47{fill:#2AC3F2;}
	.st48{fill:#95A8B8;}
	.st49{fill:#F0F0F0;}
	.st50{fill:#E8F4FA;}
	.st51{fill:#5B788C;}
	.st52{fill:#C0DCEB;}
	.st53{fill:#FEEE87;}
</style>
<g id="Layer_1" class="st0">
	<path class="st1" d="M659.7,153.9H481.8L439,267.3l216.9,83c6.8,2.6,14.1-2.4,14.1-9.7V164.3C670.1,158.5,665.4,153.9,659.7,153.9z
		"/>
	<path class="st2" d="M305.4,356.5H327c10.4,0,17.5,10.6,13.4,20.2L322.7,419c-3.3,7.7-10.8,12.7-19.2,12.7h-27.8L305.4,356.5z"/>
	<path class="st3" d="M313.5,413.1c5.3,0,10.2-2,13.9-5.4l-4.7,11.2c-3.3,7.7-10.8,12.7-19.2,12.7h-27.8l7.4-18.6L313.5,413.1
		L313.5,413.1z"/>
	<path class="st4" d="M243.4,289.2l-81.6,210c-2.4,6.3-3.7,12.9-3.7,19.7c0,30,24.3,54.3,54.3,54.3h61.3c9.7,0,17.6-7.9,17.6-17.6
		v-39.8c0-9.7-7.9-17.6-17.6-17.6c-12.5,0-21-12.6-16.3-24.2l75.5-184.9L243.4,289.2L243.4,289.2z"/>
	<path class="st5" d="M161.8,499.2l81.6-210h27.1l-81.6,210c-2.4,6.3-3.7,12.9-3.7,19.7c0,30,24.3,54.3,54.3,54.3h-27.1
		c-30,0-54.3-24.3-54.3-54.3C158.1,512.2,159.3,505.5,161.8,499.2z"/>
	<path class="st6" d="M487.2,139.9l-54.5,142.6c-1.5,4-5.4,6.7-9.7,6.7H239.8c-45.1,0-81.7-36.6-81.7-81.7s36.6-81.7,81.7-81.7
		h237.7C484.8,125.8,489.8,133.1,487.2,139.9z"/>
	<path class="st4" d="M487.2,139.9l-54.5,142.6c-1.5,4-5.4,6.7-9.7,6.7H239.8c-45.1,0-81.7-36.6-81.7-81.7s36.6-81.7,81.7-81.7
		h237.7C484.8,125.8,489.8,133.1,487.2,139.9z"/>
	<path class="st5" d="M239.8,267.4h198.7l-5.8,15.2c-1.5,4-5.4,6.7-9.7,6.7H239.8c-45.1,0-81.7-36.6-81.7-81.7
		c0-3.7,0.3-7.3,0.8-10.9C164.2,236.5,198.4,267.4,239.8,267.4z"/>
	<path class="st2" d="M487.2,139.9l-54.5,142.6c-1.5,4-5.4,6.7-9.7,6.7h-44.6l62.4-163.4h36.6C484.8,125.8,489.8,133.1,487.2,139.9z
		"/>
	<path class="st3" d="M438.5,267.4l-5.8,15.2c-1.5,4-5.4,6.7-9.7,6.7h-44.6l8.3-21.9L438.5,267.4L438.5,267.4z"/>
	<g class="st7">
		<path class="st8" d="M623.2,258.5c4.3,0,7.8-3.5,7.8-7.8v-58.3c0-4.3-3.5-7.8-7.8-7.8s-7.8,3.5-7.8,7.8v58.3
			C615.4,255,618.9,258.5,623.2,258.5z"/>
		<path class="st8" d="M601.4,237.6c4.3,0,7.8-3.5,7.8-7.8v-37.5c0-4.3-3.5-7.8-7.8-7.8s-7.8,3.5-7.8,7.8v37.5
			C593.6,234.2,597.1,237.6,601.4,237.6z"/>
		<path class="st8" d="M579.5,248.1c4.3,0,7.8-3.5,7.8-7.8v-47.9c0-4.3-3.5-7.8-7.8-7.8s-7.8,3.5-7.8,7.8v47.9
			C571.7,244.6,575.2,248.1,579.5,248.1z"/>
		<path class="st8" d="M535.8,258.5c4.3,0,7.8-3.5,7.8-7.8v-58.3c0-4.3-3.5-7.8-7.8-7.8s-7.8,3.5-7.8,7.8v58.3
			C528,255,531.5,258.5,535.8,258.5z"/>
		<path class="st8" d="M557.7,237.6c4.3,0,7.8-3.5,7.8-7.8v-37.5c0-4.3-3.5-7.8-7.8-7.8s-7.8,3.5-7.8,7.8v37.5
			C549.9,234.2,553.4,237.6,557.7,237.6z"/>
		<path class="st8" d="M535.8,281.4h87.4c4.3,0,7.8-3.5,7.8-7.8s-3.5-7.8-7.8-7.8h-87.4c-4.3,0-7.8,3.5-7.8,7.8
			S531.5,281.4,535.8,281.4z"/>
	</g>
	<circle class="st9" cx="1585.8" cy="324.5" r="245"/>
	<rect x="1504.5" y="427" class="st4" width="78.7" height="41.2"/>
	<rect x="1504.5" y="427" class="st5" width="19.8" height="41.2"/>
	<path class="st4" d="M1635.6,467.2h-189.3c-2.8,0-5.1,2.3-5.1,5.1v25.6c0,2.8,2.3,5.1,5.1,5.1h189.3V467.2L1635.6,467.2z"/>
	<path class="st5" d="M1461.1,497.9v-25.6c0-2.8,2.3-5.1,5.1-5.1h-19.8c-2.8,0-5.1,2.3-5.1,5.1v25.6c0,2.8,2.3,5.1,5.1,5.1h19.8
		C1463.4,503,1461.1,500.7,1461.1,497.9z"/>
	<path class="st5" d="M1763.8,127.4h-440c-2.8,0-5.1,2.3-5.1,5.1v290.4c0,2.8,2.3,5.1,5.1,5.1h311.8V275.2c0-3.9,3.1-7,7-7h126.3
		V132.5C1768.9,129.7,1766.7,127.4,1763.8,127.4z"/>
	<path class="st10" d="M1341.2,377c0,1.7,1.4,3.1,3.1,3.1h291.4V275.2c0-3.9,3.1-7,7-7h103.9v-90.8h-405.4V377z"/>
	<path class="st11" d="M1361,377V177.5h-19.8V377c0,1.7,1.4,3.1,3.1,3.1h19.8C1362.4,380,1361,378.7,1361,377z"/>
	<circle class="st4" cx="1543.9" cy="403.9" r="13.8"/>
	<path class="st12" d="M1635.6,291.6h-53.4c-1.7,0-3,1.4-3,3v59.6c0,1.6,1.3,3,3,3h53.4V291.6z"/>
	<path class="st13" d="M1599.1,354.3v-59.6c0-1.6,1.3-3,3-3h-19.8c-1.7,0-3,1.4-3,3v59.6c0,1.6,1.3,3,3,3h19.8
		C1600.4,357.3,1599.1,355.9,1599.1,354.3z"/>
	<path class="st12" d="M1642.6,268.2h46.6v-65.4c0-2.8-2.3-5-5-5h-280.8c-2.8,0-5,2.3-5,5v66.5c0,2.8,2.3,5,5,5h232.2
		C1636.1,270.9,1639.1,268.2,1642.6,268.2z"/>
	<path class="st13" d="M1418.3,269.4v-66.5c0-2.8,2.3-5,5-5h-19.8c-2.8,0-5,2.3-5,5v66.5c0,2.8,2.3,5,5,5h19.8
		C1420.6,274.4,1418.3,272.1,1418.3,269.4z"/>
	<path class="st14" d="M1743.5,153.4h-399.2c-1.7,0-3.1,1.4-3.1,3.1v22h405.4v-22C1746.6,154.8,1745.2,153.4,1743.5,153.4z"/>
	<path class="st15" d="M1364.1,153.4h-19.8c-1.7,0-3.1,1.4-3.1,3.1v22h19.8v-22C1361,154.8,1362.4,153.4,1364.1,153.4z"/>
	<g class="st7">
		<path class="st16" d="M1490.3,307.4h-84.2c-4.1,0-7.5-3.4-7.5-7.5s3.4-7.5,7.5-7.5h84.2c4.1,0,7.5,3.4,7.5,7.5
			S1494.4,307.4,1490.3,307.4z"/>
		<path class="st16" d="M1490.3,331.9h-84.2c-4.1,0-7.5-3.4-7.5-7.5s3.4-7.5,7.5-7.5h84.2c4.1,0,7.5,3.4,7.5,7.5
			C1497.8,328.6,1494.4,331.9,1490.3,331.9z"/>
		<path class="st16" d="M1490.3,356.4h-84.2c-4.1,0-7.5-3.4-7.5-7.5s3.4-7.5,7.5-7.5h84.2c4.1,0,7.5,3.4,7.5,7.5
			S1494.4,356.4,1490.3,356.4z"/>
		<path class="st16" d="M1556.4,307.4H1513c-4.1,0-7.5-3.4-7.5-7.5s3.4-7.5,7.5-7.5h43.3c4.1,0,7.5,3.4,7.5,7.5
			S1560.5,307.4,1556.4,307.4z"/>
		<path class="st16" d="M1556.4,331.9H1513c-4.1,0-7.5-3.4-7.5-7.5s3.4-7.5,7.5-7.5h43.3c4.1,0,7.5,3.4,7.5,7.5
			C1563.9,328.6,1560.5,331.9,1556.4,331.9z"/>
		<path class="st16" d="M1556.4,356.4H1513c-4.1,0-7.5-3.4-7.5-7.5s3.4-7.5,7.5-7.5h43.3c4.1,0,7.5,3.4,7.5,7.5
			S1560.5,356.4,1556.4,356.4z"/>
	</g>
	<path class="st4" d="M1822.8,267.2c4.4,0,8,3.6,8,8V517c0,4.4-3.6,8-8,8h-180.1c-4.4,0-8-3.6-8-8V275.2c0-4.4,3.6-8,8-8H1822.8
		L1822.8,267.2z"/>
	<path class="st10" d="M1656.4,493.6c-2.8,0-5-2.3-5-5v-201c0-2.8,2.3-5,5-5h152.7c2.8,0,5,2.3,5,5v200.9c0,2.8-2.3,5-5,5h-152.7
		V493.6z"/>
	<path class="st11" d="M1671.2,488.6v-201c0-2.8,2.3-5,5-5h-19.8c-2.8,0-5,2.3-5,5v200.9c0,2.8,2.3,5,5,5h19.8
		C1673.5,493.6,1671.2,491.3,1671.2,488.6z"/>
	<path class="st17" d="M1723.4,513.6c-2.8,0-5-2.2-5-5v-1.9c0-2.8,2.3-5,5-5h18.7c2.8,0,5,2.3,5,5v1.9c0,2.8-2.3,5-5,5H1723.4z"/>
	<path class="st14" d="M1814.1,301.9v-14.3c0-2.8-2.3-5-5-5h-152.7c-2.8,0-5,2.3-5,5v14.3H1814.1L1814.1,301.9z"/>
	<path class="st15" d="M1676.2,282.6h-19.8c-2.8,0-5,2.3-5,5v14.3h19.8v-14.3C1671.2,284.9,1673.5,282.6,1676.2,282.6z"/>
	<g class="st7">
		<path class="st16" d="M1766.8,393.4h-68.2c-4.1,0-7.5-3.4-7.5-7.5s3.4-7.5,7.5-7.5h68.2c4.1,0,7.5,3.4,7.5,7.5
			S1770.9,393.4,1766.8,393.4z"/>
		<path class="st16" d="M1766.8,416.5h-68.2c-4.1,0-7.5-3.4-7.5-7.5s3.4-7.5,7.5-7.5h68.2c4.1,0,7.5,3.4,7.5,7.5
			C1774.3,413.2,1770.9,416.5,1766.8,416.5z"/>
		<path class="st16" d="M1766.8,439.7h-68.2c-4.1,0-7.5-3.4-7.5-7.5s3.4-7.5,7.5-7.5h68.2c4.1,0,7.5,3.4,7.5,7.5
			C1774.3,436.3,1770.9,439.7,1766.8,439.7z"/>
	</g>
	<path class="st12" d="M1798.5,360.7c0,2.8-2.3,5-5,5h-121.7c-2.8,0-5-2.3-5-5v-41.2c0-2.8,2.3-5,5-5h121.7c2.8,0,5,2.3,5,5V360.7z"
		/>
	<path class="st13" d="M1686.7,360.7v-41.2c0-2.8,2.3-5,5-5h-19.8c-2.8,0-5,2.3-5,5v41.2c0,2.8,2.3,5,5,5h19.8
		C1689,365.7,1686.7,363.5,1686.7,360.7z"/>
	<path class="st12" d="M1780.5,477.9c0,2.8-2.3,5-5,5h-85.7c-2.8,0-5-2.3-5-5V461c0-2.8,2.3-5,5-5h85.7c2.8,0,5,2.3,5,5V477.9
		L1780.5,477.9z"/>
	<path class="st13" d="M1704.7,477.9V461c0-2.8,2.3-5,5-5h-19.8c-2.8,0-5,2.3-5,5v16.9c0,2.8,2.3,5,5,5h19.8
		C1707,482.9,1704.7,480.6,1704.7,477.9z"/>
	<g class="st7">
		<g>
			<circle class="st18" cx="974.9" cy="331.9" r="153.1"/>
			<path class="st19" d="M1124,366.9l-138.6-106l-0.8,41.9L882,370.3l132.8,109.5C1068.9,465.2,1111.2,421.7,1124,366.9z"/>
			<path class="st20" d="M1124,366.9l-138.6-106l-0.8,41.9L882,370.3l132.8,109.5C1068.9,465.2,1111.2,421.7,1124,366.9z"/>
			<polygon class="st21" points="1077.5,331.9 985.4,260.9 985.4,293.6 882,293.6 882,370.3 985.4,370.3 985.4,403 			"/>
		</g>
	</g>
</g>
<g id="Layer_2" class="st0">
	<g class="st7">
		<g>
			<circle class="st18" cx="974.9" cy="331.9" r="153.1"/>
			<path class="st19" d="M1124,366.9l-138.6-106l-0.8,41.9L882,370.3l132.8,109.5C1068.9,465.2,1111.2,421.7,1124,366.9z"/>
			<path class="st20" d="M1124,366.9l-138.6-106l-0.8,41.9L882,370.3l132.8,109.5C1068.9,465.2,1111.2,421.7,1124,366.9z"/>
			<polygon class="st21" points="1077.5,331.9 985.4,260.9 985.4,293.6 882,293.6 882,370.3 985.4,370.3 985.4,403 			"/>
		</g>
	</g>
	<g class="st7">
		<circle class="st22" cx="412.6" cy="324.4" r="245"/>
		<rect x="331.3" y="426.9" class="st18" width="78.7" height="41.2"/>
		<rect x="331.3" y="426.9" class="st20" width="19.8" height="41.2"/>
		<path class="st18" d="M462.4,467.1H273.1c-2.8,0-5.1,2.3-5.1,5.1v25.6c0,2.8,2.3,5.1,5.1,5.1h189.3V467.1L462.4,467.1z"/>
		<path class="st20" d="M287.9,497.8v-25.6c0-2.8,2.3-5.1,5.1-5.1h-19.8c-2.8,0-5.1,2.3-5.1,5.1v25.6c0,2.8,2.3,5.1,5.1,5.1H293
			C290.2,502.9,287.9,500.6,287.9,497.8z"/>
		<path class="st20" d="M590.6,127.3h-440c-2.8,0-5.1,2.3-5.1,5.1v290.4c0,2.8,2.3,5.1,5.1,5.1h311.8V275.1c0-3.9,3.1-7,7-7h126.3
			V132.4C595.7,129.6,593.5,127.3,590.6,127.3z"/>
		<path class="st21" d="M168,376.9c0,1.7,1.4,3.1,3.1,3.1h291.4V275.1c0-3.9,3.1-7,7-7h103.9v-90.8H168V376.9z"/>
		<path class="st23" d="M187.8,376.9V177.4H168v199.5c0,1.7,1.4,3.1,3.1,3.1h19.8C189.2,379.9,187.8,378.6,187.8,376.9z"/>
		<circle class="st18" cx="370.7" cy="403.8" r="13.8"/>
		<path class="st24" d="M462.4,291.5H409c-1.7,0-3,1.4-3,3v59.6c0,1.6,1.3,3,3,3h53.4V291.5z"/>
		<path class="st25" d="M425.9,354.2v-59.6c0-1.6,1.3-3,3-3h-19.8c-1.7,0-3,1.4-3,3v59.6c0,1.6,1.3,3,3,3h19.8
			C427.2,357.2,425.9,355.8,425.9,354.2z"/>
		<path class="st24" d="M469.4,268.1H516v-65.4c0-2.8-2.3-5-5-5H230.2c-2.8,0-5,2.3-5,5v66.5c0,2.8,2.3,5,5,5h232.2
			C462.9,270.8,465.9,268.1,469.4,268.1z"/>
		<path class="st25" d="M245.1,269.3v-66.5c0-2.8,2.3-5,5-5h-19.8c-2.8,0-5,2.3-5,5v66.5c0,2.8,2.3,5,5,5h19.8
			C247.4,274.3,245.1,272,245.1,269.3z"/>
		<path class="st26" d="M570.3,153.3H171.1c-1.7,0-3.1,1.4-3.1,3.1v22h405.4v-22C573.4,154.7,572,153.3,570.3,153.3z"/>
		<path class="st27" d="M190.9,153.3h-19.8c-1.7,0-3.1,1.4-3.1,3.1v22h19.8v-22C187.8,154.7,189.2,153.3,190.9,153.3z"/>
		<g>
			<path class="st16" d="M317.1,307.3h-84.2c-4.1,0-7.5-3.4-7.5-7.5s3.4-7.5,7.5-7.5h84.2c4.1,0,7.5,3.4,7.5,7.5
				S321.2,307.3,317.1,307.3z"/>
			<path class="st16" d="M317.1,331.8h-84.2c-4.1,0-7.5-3.4-7.5-7.5s3.4-7.5,7.5-7.5h84.2c4.1,0,7.5,3.4,7.5,7.5
				C324.6,328.5,321.2,331.8,317.1,331.8z"/>
			<path class="st16" d="M317.1,356.3h-84.2c-4.1,0-7.5-3.4-7.5-7.5s3.4-7.5,7.5-7.5h84.2c4.1,0,7.5,3.4,7.5,7.5
				S321.2,356.3,317.1,356.3z"/>
			<path class="st16" d="M383.2,307.3h-43.4c-4.1,0-7.5-3.4-7.5-7.5s3.4-7.5,7.5-7.5h43.3c4.1,0,7.5,3.4,7.5,7.5
				S387.3,307.3,383.2,307.3z"/>
			<path class="st16" d="M383.2,331.8h-43.4c-4.1,0-7.5-3.4-7.5-7.5s3.4-7.5,7.5-7.5h43.3c4.1,0,7.5,3.4,7.5,7.5
				C390.7,328.5,387.3,331.8,383.2,331.8z"/>
			<path class="st16" d="M383.2,356.3h-43.4c-4.1,0-7.5-3.4-7.5-7.5s3.4-7.5,7.5-7.5h43.3c4.1,0,7.5,3.4,7.5,7.5
				S387.3,356.3,383.2,356.3z"/>
		</g>
		<path class="st18" d="M649.6,267.1c4.4,0,8,3.6,8,8v241.8c0,4.4-3.6,8-8,8H469.5c-4.4,0-8-3.6-8-8V275.1c0-4.4,3.6-8,8-8H649.6
			L649.6,267.1z"/>
		<path class="st21" d="M483.2,493.5c-2.8,0-5-2.3-5-5v-201c0-2.8,2.3-5,5-5h152.7c2.8,0,5,2.3,5,5v200.9c0,2.8-2.3,5-5,5H483.2
			V493.5z"/>
		<path class="st23" d="M498,488.5v-201c0-2.8,2.3-5,5-5h-19.8c-2.8,0-5,2.3-5,5v200.9c0,2.8,2.3,5,5,5H503
			C500.3,493.5,498,491.2,498,488.5z"/>
		<path class="st28" d="M550.2,513.5c-2.8,0-5-2.2-5-5v-1.9c0-2.8,2.3-5,5-5h18.7c2.8,0,5,2.3,5,5v1.9c0,2.8-2.3,5-5,5H550.2z"/>
		<path class="st26" d="M640.9,301.8v-14.3c0-2.8-2.3-5-5-5H483.2c-2.8,0-5,2.3-5,5v14.3H640.9L640.9,301.8z"/>
		<path class="st27" d="M503,282.5h-19.8c-2.8,0-5,2.3-5,5v14.3H498v-14.3C498,284.8,500.3,282.5,503,282.5z"/>
		<g>
			<path class="st16" d="M593.6,393.3h-68.2c-4.1,0-7.5-3.4-7.5-7.5s3.4-7.5,7.5-7.5h68.2c4.1,0,7.5,3.4,7.5,7.5
				S597.7,393.3,593.6,393.3z"/>
			<path class="st16" d="M593.6,416.4h-68.2c-4.1,0-7.5-3.4-7.5-7.5s3.4-7.5,7.5-7.5h68.2c4.1,0,7.5,3.4,7.5,7.5
				C601.1,413.1,597.7,416.4,593.6,416.4z"/>
			<path class="st16" d="M593.6,439.6h-68.2c-4.1,0-7.5-3.4-7.5-7.5s3.4-7.5,7.5-7.5h68.2c4.1,0,7.5,3.4,7.5,7.5
				C601.1,436.2,597.7,439.6,593.6,439.6z"/>
		</g>
		<path class="st24" d="M625.3,360.6c0,2.8-2.3,5-5,5H498.6c-2.8,0-5-2.3-5-5v-41.2c0-2.8,2.3-5,5-5h121.7c2.8,0,5,2.3,5,5V360.6z"
			/>
		<path class="st25" d="M513.5,360.6v-41.2c0-2.8,2.3-5,5-5h-19.8c-2.8,0-5,2.3-5,5v41.2c0,2.8,2.3,5,5,5h19.8
			C515.8,365.6,513.5,363.4,513.5,360.6z"/>
		<path class="st24" d="M607.3,477.8c0,2.8-2.3,5-5,5h-85.7c-2.8,0-5-2.3-5-5v-16.9c0-2.8,2.3-5,5-5h85.7c2.8,0,5,2.3,5,5V477.8
			L607.3,477.8z"/>
		<path class="st25" d="M531.5,477.8v-16.9c0-2.8,2.3-5,5-5h-19.8c-2.8,0-5,2.3-5,5v16.9c0,2.8,2.3,5,5,5h19.8
			C533.8,482.8,531.5,480.5,531.5,477.8z"/>
	</g>
	<g class="st7">
		<path class="st18" d="M1657.5,529.6h-317.5c-7.3,0-12.6-6.9-10.7-14l72.1-197.7c1.3-4.8,5.7-8.2,10.7-8.2h317.5
			c7.3,0,10.7,7,10.7,14l-72.1,197.7C1666.9,526.2,1662.5,529.6,1657.5,529.6z"/>
		<path class="st20" d="M1685.5,245.8h-16.1v63.9h28.4v-51.6C1697.8,251.3,1692.2,245.8,1685.5,245.8z"/>
		<path class="st20" d="M1357.2,196.2h-16.1c-6.8,0-12.3,5.5-12.3,12.3v303.1c0.5,0,1,0,1.5,0.1l26.9-73.4V196.2z"/>
		<path class="st29" d="M1401.4,317.9c1.3-4.8,5.7-8.2,10.7-8.2h14.2h243.1v-85.1V118.1H1563h-163.2v204L1401.4,317.9z"/>
		<g>
			<path class="st30" d="M1449.4,231.6h170.3c3.9,0,7.1-3.2,7.1-7.1s-3.2-7.1-7.1-7.1h-170.3c-3.9,0-7.1,3.2-7.1,7.1
				S1445.5,231.6,1449.4,231.6z"/>
			<path class="st30" d="M1449.4,182h70.9c3.9,0,7.1-3.2,7.1-7.1c0-3.9-3.2-7.1-7.1-7.1h-70.9c-3.9,0-7.1,3.2-7.1,7.1
				S1445.5,182,1449.4,182z"/>
			<path class="st30" d="M1619.7,267.1h-170.3c-3.9,0-7.1,3.2-7.1,7.1s3.2,7.1,7.1,7.1h170.3c3.9,0,7.1-3.2,7.1-7.1
				S1623.6,267.1,1619.7,267.1z"/>
		</g>
		<polygon class="st31" points="1399.8,322.2 1399.8,132.3 1378.5,132.3 1378.5,380.5 		"/>
		<polygon class="st32" points="1378.5,380.5 1378.5,146.5 1357.2,146.5 1357.2,438.9 		"/>
	</g>
</g>
<g id="Layer_2_copy_3" class="st0">
	<g class="st7">
		<g>
			<circle class="st18" cx="974.9" cy="331.9" r="153.1"/>
			<path class="st19" d="M1124,366.9l-138.6-106l-0.8,41.9L882,370.3l132.8,109.5C1068.9,465.2,1111.2,421.7,1124,366.9z"/>
			<path class="st20" d="M1124,366.9l-138.6-106l-0.8,41.9L882,370.3l132.8,109.5C1068.9,465.2,1111.2,421.7,1124,366.9z"/>
			<polygon class="st21" points="1077.5,331.9 985.4,260.9 985.4,293.6 882,293.6 882,370.3 985.4,370.3 985.4,403 			"/>
		</g>
	</g>
	<g class="st7">
		<path class="st18" d="M551.8,529.6H234.2c-7.3,0-12.6-6.9-10.7-14l72.1-197.7c1.3-4.8,5.7-8.2,10.7-8.2h317.5
			c7.3,0,10.7,7,10.7,14l-72.1,197.7C561.2,526.2,556.8,529.6,551.8,529.6z"/>
		<path class="st20" d="M579.8,245.8h-16.1v63.9h28.4v-51.6C592.1,251.3,586.5,245.8,579.8,245.8z"/>
		<path class="st20" d="M251.5,196.2h-16.1c-6.8,0-12.3,5.5-12.3,12.3v303.1c0.5,0,1,0,1.5,0.1l26.9-73.4V196.2z"/>
		<path class="st29" d="M295.7,317.9c1.3-4.8,5.7-8.2,10.7-8.2h14.2h243.1v-85.1V118.1H457.3H294.1v204L295.7,317.9z"/>
		<g>
			<path class="st30" d="M343.7,231.6H514c3.9,0,7.1-3.2,7.1-7.1s-3.2-7.1-7.1-7.1H343.7c-3.9,0-7.1,3.2-7.1,7.1
				S339.8,231.6,343.7,231.6z"/>
			<path class="st30" d="M343.7,182h70.9c3.9,0,7.1-3.2,7.1-7.1c0-3.9-3.2-7.1-7.1-7.1h-70.9c-3.9,0-7.1,3.2-7.1,7.1
				S339.8,182,343.7,182z"/>
			<path class="st30" d="M514,267.1H343.7c-3.9,0-7.1,3.2-7.1,7.1s3.2,7.1,7.1,7.1H514c3.9,0,7.1-3.2,7.1-7.1S517.9,267.1,514,267.1
				z"/>
		</g>
		<polygon class="st31" points="294.1,322.2 294.1,132.3 272.8,132.3 272.8,380.5 		"/>
		<polygon class="st32" points="272.8,380.5 272.8,146.5 251.5,146.5 251.5,438.9 		"/>
	</g>
	<g class="st7">
		<circle class="st33" cx="1299.7" cy="552" r="24"/>
		<circle class="st34" cx="1743.7" cy="552" r="24"/>
		<circle class="st35" cx="1299.7" cy="108" r="24"/>
		<circle class="st36" cx="1743.7" cy="108" r="24"/>
		<polygon class="st37" points="1406.7,173.5 1437.2,191.9 1483.9,172.5 1492.4,138 1551,138 1559.6,172.5 1606.3,191.9 
			1636.8,173.5 1678.2,215 1659.9,245.4 1679.2,292.1 1713.7,300.7 1713.7,359.3 1679.2,367.9 1659.9,414.6 1678.2,445 
			1636.8,486.5 1606.3,468.1 1559.6,487.5 1551,522 1492.4,522 1483.9,487.5 1437.2,468.1 1406.7,486.5 1365.3,445 1383.6,414.6 
			1364.2,367.9 1329.7,359.3 1329.7,300.7 1364.2,292.1 1383.6,245.4 1365.3,215 		"/>
		<circle class="st21" cx="1521.7" cy="330" r="118"/>
		<path class="st20" d="M1686.8,439.9l-15.7-26.1l15.5-37.4l29.6-7.4c4.5-1.1,7.6-5.1,7.6-9.7V340h44c5.5,0,10-4.5,10-10
			c0-5.5-4.5-10-10-10h-44v-19.3c0-4.6-3.1-8.6-7.6-9.7l-29.6-7.4l-15.5-37.4l15.7-26.1c2.4-3.9,1.7-9-1.5-12.2l-41.4-41.4
			c-3.2-3.2-8.3-3.9-12.2-1.5l-26.1,15.7l-37.4-15.5l-7.4-29.6c-1.1-4.5-5.1-7.6-9.7-7.6h-19.3V84c0-5.5-4.5-10-10-10
			c-5.5,0-10,4.5-10,10v44h-19.3c-4.6,0-8.6,3.1-9.7,7.6l-7.4,29.6l-37.4,15.5l-26.1-15.7c-3.9-2.4-9-1.7-12.2,1.5l-41.4,41.4
			c-3.2,3.2-3.9,8.3-1.5,12.2l15.7,26.1l-15.5,37.4l-29.6,7.4c-4.5,1.1-7.6,5.1-7.6,9.7V320h-44c-5.5,0-10,4.5-10,10
			c0,5.5,4.5,10,10,10h44v19.3c0,4.6,3.1,8.6,7.6,9.7l29.6,7.4l15.5,37.4l-15.7,26.1c-2.4,3.9-1.7,9,1.5,12.2l41.4,41.4
			c3.2,3.2,8.3,3.9,12.2,1.5l26.1-15.7l37.4,15.5l7.4,29.6c1.1,4.5,5.1,7.6,9.7,7.6h19.3v44c0,5.5,4.5,10,10,10s10-4.5,10-10v-44
			h19.3c4.6,0,8.6-3.1,9.7-7.6l7.4-29.6l37.4-15.5l26.1,15.7c3.9,2.4,9,1.7,12.2-1.5l41.4-41.4
			C1688.5,448.9,1689.1,443.8,1686.8,439.9z M1651.3,419.7l14.3,23.8l-30.4,30.4l-23.8-14.3c-2.7-1.6-6.1-1.9-9-0.7l-46.7,19.3
			c-2.9,1.2-5.1,3.7-5.9,6.8l-6.7,26.9h-43l-6.7-26.9c-0.8-3.1-2.9-5.6-5.9-6.8l-46.7-19.3c-2.9-1.2-6.3-1-9,0.7l-23.8,14.3
			l-30.4-30.4l14.3-23.8c1.6-2.7,1.9-6.1,0.7-9l-19.3-46.7c-1.2-2.9-3.7-5.1-6.8-5.9l-26.9-6.7v-43l26.9-6.7
			c3.1-0.8,5.6-2.9,6.8-5.9l19.3-46.7c1.2-2.9,1-6.3-0.7-9l-14.3-23.8l30.4-30.4l23.8,14.3c2.7,1.6,6,1.9,9,0.7l46.7-19.3
			c2.9-1.2,5.1-3.7,5.9-6.8l6.7-26.9h43l6.7,26.9c0.8,3.1,2.9,5.6,5.9,6.8l46.7,19.3c2.9,1.2,6.3,1,9-0.7l23.8-14.3l30.4,30.4
			l-14.3,23.8c-1.6,2.7-1.9,6.1-0.7,9l19.3,46.7c1.2,2.9,3.7,5.1,6.8,5.9l26.9,6.7v43l-26.9,6.7c-3.1,0.8-5.6,2.9-6.8,5.9
			l-19.3,46.7C1649.4,413.7,1649.7,417,1651.3,419.7z"/>
		<path d="M1565.8,209.8c-5.2-1.9-10.9,0.8-12.8,5.9c-1.9,5.2,0.8,10.9,5.9,12.8c42.3,15.5,70.8,56.3,70.8,101.4
			c0,59.5-48.4,108-108,108c-59.5,0-108-48.4-108-108c0-42.7,25.2-81.5,64.3-98.8c5-2.2,7.3-8.1,5.1-13.2c-2.2-5-8.1-7.3-13.2-5.1
			c-46.3,20.5-76.2,66.5-76.2,117.1c0,70.6,57.4,128,128,128c70.6,0,128-57.4,128-128C1649.7,276.5,1616,228.2,1565.8,209.8z"/>
		<path d="M1521.7,222l0.5,0c0,0,0,0,0,0c5.5,0,10-4.5,10-10c0-5.5-4.4-10-10-10l-0.5,0c-5.5,0-10,4.5-10,10S1516.2,222,1521.7,222z
			"/>
		<path d="M1601.4,358.5v-58.3c0-5.5-4.5-10-10-10c-5.5,0-10,4.5-10,10v58.3c0,5.5,4.5,10,10,10
			C1596.9,368.5,1601.4,364,1601.4,358.5z"/>
		<path d="M1512.3,300.2v19.9v13.6v24.7c0,5.5,4.5,10,10,10c5.5,0,10-4.5,10-10v-14.7h10.6c14,0,25.3-11.4,25.3-25.3v-3
			c0-14-11.3-25.3-25.3-25.3h-20.6C1516.8,290.2,1512.3,294.7,1512.3,300.2z M1532.3,310.2h10.6c2.9,0,5.3,2.4,5.3,5.3v3
			c0,2.9-2.4,5.3-5.3,5.3h-10.6v-3.6V310.2z"/>
		<path d="M1466.7,290.2c-4,0-7.6,2.4-9.2,6.1l-25.7,59.8c-2.2,5.1,0.2,11,5.2,13.1c5.1,2.2,11-0.2,13.1-5.2l16.5-38.4l16.5,38.4
			c1.6,3.8,5.3,6.1,9.2,6.1c1.3,0,2.7-0.3,3.9-0.8c5.1-2.2,7.4-8.1,5.2-13.1l-25.7-59.8C1474.4,292.6,1470.7,290.2,1466.7,290.2z"/>
		<path class="st20" d="M1682.5,179.2c2.6,0,5.1-1,7.1-2.9l38.3-38.3c4.8,2.5,10.2,4,15.9,4c18.7,0,34-15.3,34-34s-15.3-34-34-34
			c-18.7,0-34,15.3-34,34c0,5.7,1.4,11.1,4,15.9l-38.3,38.3c-3.9,3.9-3.9,10.2,0,14.1C1677.4,178.2,1680,179.2,1682.5,179.2z
			 M1743.7,94c7.7,0,14,6.3,14,14s-6.3,14-14,14c-7.7,0-14-6.3-14-14S1736,94,1743.7,94z"/>
		<path class="st20" d="M1353.9,483.7l-38.2,38.2c-4.7-2.5-10.2-4-15.9-4c-18.7,0-34,15.3-34,34s15.3,34,34,34c18.7,0,34-15.3,34-34
			c0-5.7-1.4-11.2-4-15.9l38.2-38.2c3.9-3.9,3.9-10.2,0-14.1C1364.1,479.8,1357.8,479.8,1353.9,483.7z M1299.7,566
			c-7.7,0-14-6.3-14-14s6.3-14,14-14s14,6.3,14,14S1307.5,566,1299.7,566z"/>
		<path class="st20" d="M1682.5,480.8c-2.6,0-5.2,1.1-7.1,2.9c-1.9,1.9-2.9,4.4-2.9,7.1c0,2.6,1.1,5.2,2.9,7.1
			c1.9,1.9,4.4,2.9,7.1,2.9c2.6,0,5.2-1.1,7.1-2.9c1.9-1.9,2.9-4.4,2.9-7.1c0-2.6-1.1-5.2-2.9-7.1
			C1687.7,481.8,1685.1,480.8,1682.5,480.8z"/>
		<path class="st20" d="M1743.7,518c-5.7,0-11.2,1.4-15.9,4l-16.9-16.9c-3.9-3.9-10.2-3.9-14.1,0c-3.9,3.9-3.9,10.2,0,14.1
			l16.9,16.9c-2.5,4.7-4,10.1-4,15.9c0,18.7,15.3,34,34,34c18.7,0,34-15.3,34-34S1762.5,518,1743.7,518z M1743.7,566
			c-7.7,0-14-6.3-14-14s6.3-14,14-14c7.7,0,14,6.3,14,14S1751.5,566,1743.7,566z"/>
		<path class="st20" d="M1299.7,142c5.7,0,11.2-1.4,15.9-4l38.2,38.2c2,2,4.5,2.9,7.1,2.9c2.6,0,5.1-1,7.1-2.9
			c3.9-3.9,3.9-10.2,0-14.1l-38.2-38.2c2.5-4.7,4-10.2,4-15.9c0-18.7-15.3-34-34-34c-18.7,0-34,15.3-34,34S1281,142,1299.7,142z
			 M1299.7,94c7.7,0,14,6.3,14,14s-6.3,14-14,14c-7.7,0-14-6.3-14-14S1292,94,1299.7,94z"/>
	</g>
</g>
<g id="Layer_2_copy_4">
	<g>
		<g>
			<circle class="st18" cx="974.9" cy="331.9" r="153.1"/>
			<path class="st19" d="M1124,366.9l-138.6-106l-0.8,41.9L882,370.3l132.8,109.5C1068.9,465.2,1111.2,421.7,1124,366.9z"/>
			<path class="st20" d="M1124,366.9l-138.6-106l-0.8,41.9L882,370.3l132.8,109.5C1068.9,465.2,1111.2,421.7,1124,366.9z"/>
			<polygon class="st21" points="1077.5,331.9 985.4,260.9 985.4,293.6 882,293.6 882,370.3 985.4,370.3 985.4,403 			"/>
		</g>
	</g>
	<g>
		<circle class="st33" cx="199.8" cy="552" r="24"/>
		<circle class="st34" cx="643.8" cy="552" r="24"/>
		<circle class="st35" cx="199.8" cy="108" r="24"/>
		<circle class="st36" cx="643.8" cy="108" r="24"/>
		<polygon class="st37" points="306.7,173.5 337.2,191.9 383.9,172.5 392.5,138 451.1,138 459.7,172.5 506.3,191.9 536.8,173.5 
			578.2,215 559.9,245.4 579.3,292.1 613.8,300.7 613.8,359.3 579.3,367.9 559.9,414.6 578.2,445 536.8,486.5 506.3,468.1 
			459.7,487.5 451.1,522 392.5,522 383.9,487.5 337.2,468.1 306.7,486.5 265.3,445 283.6,414.6 264.3,367.9 229.8,359.3 
			229.8,300.7 264.3,292.1 283.6,245.4 265.3,215 		"/>
		<circle class="st21" cx="421.8" cy="330" r="118"/>
		<path class="st20" d="M586.8,439.9l-15.7-26.1l15.5-37.4l29.6-7.4c4.5-1.1,7.6-5.1,7.6-9.7V340h44c5.5,0,10-4.5,10-10
			c0-5.5-4.5-10-10-10h-44v-19.3c0-4.6-3.1-8.6-7.6-9.7l-29.6-7.4l-15.5-37.4l15.7-26.1c2.4-3.9,1.7-9-1.5-12.2l-41.4-41.4
			c-3.2-3.2-8.3-3.9-12.2-1.5l-26.1,15.7l-37.4-15.5l-7.4-29.6c-1.1-4.5-5.1-7.6-9.7-7.6h-19.3V84c0-5.5-4.5-10-10-10s-10,4.5-10,10
			v44h-19.3c-4.6,0-8.6,3.1-9.7,7.6l-7.4,29.6L338,180.7L311.9,165c-3.9-2.4-9-1.7-12.2,1.5l-41.4,41.4c-3.2,3.2-3.9,8.3-1.5,12.2
			l15.7,26.1L257,283.6l-29.6,7.4c-4.5,1.1-7.6,5.1-7.6,9.7V320h-44c-5.5,0-10,4.5-10,10c0,5.5,4.5,10,10,10h44v19.3
			c0,4.6,3.1,8.6,7.6,9.7l29.6,7.4l15.5,37.4l-15.7,26.1c-2.4,3.9-1.7,9,1.5,12.2l41.4,41.4c3.2,3.2,8.3,3.9,12.2,1.5l26.1-15.7
			l37.4,15.5l7.4,29.6c1.1,4.5,5.1,7.6,9.7,7.6h19.3v44c0,5.5,4.5,10,10,10s10-4.5,10-10v-44h19.3c4.6,0,8.6-3.1,9.7-7.6l7.4-29.6
			l37.4-15.5l26.1,15.7c3.9,2.4,9,1.7,12.2-1.5l41.4-41.4C588.6,448.9,589.2,443.8,586.8,439.9z M551.4,419.7l14.3,23.8l-30.4,30.4
			l-23.8-14.3c-2.7-1.6-6.1-1.9-9-0.7l-46.7,19.3c-2.9,1.2-5.1,3.7-5.9,6.8l-6.7,26.9h-43l-6.7-26.9c-0.8-3.1-2.9-5.6-5.9-6.8
			L341,458.9c-2.9-1.2-6.3-1-9,0.7l-23.8,14.3l-30.4-30.4l14.3-23.8c1.6-2.7,1.9-6.1,0.7-9l-19.3-46.7c-1.2-2.9-3.7-5.1-6.8-5.9
			l-26.9-6.7v-43l26.9-6.7c3.1-0.8,5.6-2.9,6.8-5.9l19.3-46.7c1.2-2.9,1-6.3-0.7-9l-14.3-23.8l30.4-30.4l23.8,14.3
			c2.7,1.6,6,1.9,9,0.7l46.7-19.3c2.9-1.2,5.1-3.7,5.9-6.8l6.7-26.9h43l6.7,26.9c0.8,3.1,2.9,5.6,5.9,6.8l46.7,19.3
			c2.9,1.2,6.3,1,9-0.7l23.8-14.3l30.4,30.4l-14.3,23.8c-1.6,2.7-1.9,6.1-0.7,9l19.3,46.7c1.2,2.9,3.7,5.1,6.8,5.9l26.9,6.7v43
			l-26.9,6.7c-3.1,0.8-5.6,2.9-6.8,5.9l-19.3,46.7C549.5,413.7,549.7,417,551.4,419.7z"/>
		<path d="M465.9,209.8c-5.2-1.9-10.9,0.8-12.8,5.9c-1.9,5.2,0.8,10.9,5.9,12.8c42.3,15.5,70.8,56.3,70.8,101.4
			c0,59.5-48.4,108-108,108s-108-48.4-108-108c0-42.7,25.2-81.5,64.3-98.8c5-2.2,7.3-8.1,5.1-13.2c-2.2-5-8.1-7.3-13.2-5.1
			c-46.3,20.5-76.2,66.5-76.2,117.1c0,70.6,57.4,128,128,128s128-57.4,128-128C549.8,276.5,516.1,228.2,465.9,209.8z"/>
		<path d="M421.8,222l0.5,0c0,0,0,0,0,0c5.5,0,10-4.5,10-10c0-5.5-4.4-10-10-10l-0.5,0c-5.5,0-10,4.5-10,10S416.3,222,421.8,222z"/>
		<path d="M501.4,358.5v-58.3c0-5.5-4.5-10-10-10s-10,4.5-10,10v58.3c0,5.5,4.5,10,10,10S501.4,364,501.4,358.5z"/>
		<path d="M412.3,300.2v19.9v13.6v24.7c0,5.5,4.5,10,10,10c5.5,0,10-4.5,10-10v-14.7h10.6c14,0,25.3-11.4,25.3-25.3v-3
			c0-14-11.4-25.3-25.3-25.3h-20.6C416.8,290.2,412.3,294.7,412.3,300.2z M432.3,310.2h10.6c2.9,0,5.3,2.4,5.3,5.3v3
			c0,2.9-2.4,5.3-5.3,5.3h-10.6v-3.6V310.2z"/>
		<path d="M366.8,290.2c-4,0-7.6,2.4-9.2,6.1l-25.7,59.8c-2.2,5.1,0.2,11,5.2,13.1s11-0.2,13.1-5.2l16.5-38.4l16.5,38.4
			c1.6,3.8,5.3,6.1,9.2,6.1c1.3,0,2.7-0.3,3.9-0.8c5.1-2.2,7.4-8.1,5.2-13.1L376,296.3C374.4,292.6,370.8,290.2,366.8,290.2z"/>
		<path class="st20" d="M582.6,179.2c2.6,0,5.1-1,7.1-2.9l38.3-38.3c4.8,2.5,10.2,4,15.9,4c18.7,0,34-15.3,34-34s-15.3-34-34-34
			s-34,15.3-34,34c0,5.7,1.4,11.1,4,15.9l-38.3,38.3c-3.9,3.9-3.9,10.2,0,14.1C577.4,178.2,580,179.2,582.6,179.2z M643.8,94
			c7.7,0,14,6.3,14,14s-6.3,14-14,14c-7.7,0-14-6.3-14-14S636.1,94,643.8,94z"/>
		<path class="st20" d="M253.9,483.7L215.7,522c-4.7-2.5-10.2-4-15.9-4c-18.7,0-34,15.3-34,34s15.3,34,34,34s34-15.3,34-34
			c0-5.7-1.4-11.2-4-15.9l38.2-38.2c3.9-3.9,3.9-10.2,0-14.1C264.2,479.8,257.8,479.8,253.9,483.7z M199.8,566c-7.7,0-14-6.3-14-14
			s6.3-14,14-14c7.7,0,14,6.3,14,14S207.5,566,199.8,566z"/>
		<path class="st20" d="M582.5,480.8c-2.6,0-5.2,1.1-7.1,2.9c-1.9,1.9-2.9,4.4-2.9,7.1c0,2.6,1.1,5.2,2.9,7.1
			c1.9,1.9,4.4,2.9,7.1,2.9c2.6,0,5.2-1.1,7.1-2.9c1.9-1.9,2.9-4.4,2.9-7.1c0-2.6-1.1-5.2-2.9-7.1
			C587.8,481.8,585.2,480.8,582.5,480.8z"/>
		<path class="st20" d="M643.8,518c-5.7,0-11.2,1.4-15.9,4L611,505.1c-3.9-3.9-10.2-3.9-14.1,0c-3.9,3.9-3.9,10.2,0,14.1l16.9,16.9
			c-2.5,4.7-4,10.1-4,15.9c0,18.7,15.3,34,34,34s34-15.3,34-34S662.5,518,643.8,518z M643.8,566c-7.7,0-14-6.3-14-14s6.3-14,14-14
			c7.7,0,14,6.3,14,14S651.5,566,643.8,566z"/>
		<path class="st20" d="M199.8,142c5.7,0,11.2-1.4,15.9-4l38.2,38.2c2,2,4.5,2.9,7.1,2.9s5.1-1,7.1-2.9c3.9-3.9,3.9-10.2,0-14.1
			l-38.2-38.2c2.5-4.7,4-10.2,4-15.9c0-18.7-15.3-34-34-34s-34,15.3-34,34S181,142,199.8,142z M199.8,94c7.7,0,14,6.3,14,14
			s-6.3,14-14,14c-7.7,0-14-6.3-14-14S192.1,94,199.8,94z"/>
	</g>
	<g id="surface1">
		<path class="st38" d="M1514.7,189.4c0,8.5-6.9,15.5-15.5,15.5s-15.5-6.9-15.5-15.5c0-8.5,6.9-15.5,15.5-15.5
			S1514.7,180.8,1514.7,189.4z"/>
		<path class="st38" d="M1572.4,481.9c0,8.5-6.9,15.5-15.5,15.5c-8.5,0-15.5-6.9-15.5-15.5c0-8.5,6.9-15.5,15.5-15.5
			C1565.5,466.5,1572.4,473.4,1572.4,481.9z"/>
		<path class="st38" d="M1691.4,299.6c0,8.5-6.9,15.5-15.5,15.5s-15.5-6.9-15.5-15.5s6.9-15.5,15.5-15.5S1691.4,291.1,1691.4,299.6z
			"/>
		<path class="st38" d="M1415.8,366.6c0,8.5-6.9,15.5-15.5,15.5s-15.5-6.9-15.5-15.5s6.9-15.5,15.5-15.5S1415.8,358,1415.8,366.6z"
			/>
		<path class="st18" d="M1499.3,166.4c-12.7,0-23,10.3-23,23c0,10,6.5,18.6,15.5,21.7v45.6c0,4.1,3.4,7.5,7.5,7.5s7.5-3.4,7.5-7.5
			v-45.6c9-3.1,15.5-11.7,15.5-21.7C1522.2,176.7,1511.9,166.4,1499.3,166.4z M1499.3,197.3c-4.4,0-8-3.6-8-8c0-4.4,3.6-8,8-8
			s8,3.6,8,8C1507.2,193.8,1503.7,197.3,1499.3,197.3z"/>
		<path class="st18" d="M1564.5,460.3v-55c0-4.1-3.4-7.5-7.5-7.5c-4.1,0-7.5,3.4-7.5,7.5v55c-9,3.1-15.5,11.7-15.5,21.7
			c0,12.7,10.3,23,23,23c12.7,0,23-10.3,23-23C1579.9,471.9,1573.4,463.4,1564.5,460.3z M1557,489.9c-4.4,0-8-3.6-8-8
			c0-4.4,3.6-8,8-8c4.4,0,8,3.6,8,8C1564.9,486.3,1561.3,489.9,1557,489.9z"/>
		<path class="st18" d="M1654.2,292.1h-57.9c-4.1,0-7.5,3.4-7.5,7.5s3.4,7.5,7.5,7.5h57.9c3.1,9,11.7,15.5,21.7,15.5
			c12.7,0,23-10.3,23-23s-10.3-23-23-23C1665.9,276.6,1657.3,283.1,1654.2,292.1z M1683.9,299.6c0,4.4-3.6,8-8,8s-8-3.6-8-8
			s3.6-8,8-8S1683.9,295.2,1683.9,299.6z"/>
		<path class="st18" d="M1455,359.1h-33c-3.1-9-11.7-15.5-21.7-15.5c-12.7,0-23,10.3-23,23s10.3,23,23,23c10,0,18.6-6.5,21.7-15.5
			h33c4.1,0,7.5-3.4,7.5-7.5C1462.5,362.4,1459.2,359.1,1455,359.1z M1400.4,374.5c-4.4,0-8-3.6-8-8s3.6-8,8-8s8,3.6,8,8
			S1404.8,374.5,1400.4,374.5z"/>
		<path class="st18" d="M1462.5,318.1c0-4.1-3.4-7.5-7.5-7.5h-116.7V189.2c0-4.1-3.4-7.5-7.5-7.5c-4.1,0-7.5,3.4-7.5,7.5v128.9
			c0,4.1,3.4,7.5,7.5,7.5H1455C1459.2,325.6,1462.5,322.3,1462.5,318.1z"/>
		<path class="st18" d="M1557,273.4c4.1,0,7.5-3.4,7.5-7.5v-119h119.2c4.1,0,7.5-3.4,7.5-7.5c0-4.1-3.4-7.5-7.5-7.5H1557
			c-4.1,0-7.5,3.4-7.5,7.5v126.5C1549.5,270.1,1552.8,273.4,1557,273.4z"/>
		<path class="st18" d="M1719.2,333.8h-122.9c-4.1,0-7.5,3.4-7.5,7.5s3.4,7.5,7.5,7.5h115.4V466c0,4.1,3.4,7.5,7.5,7.5
			c4.1,0,7.5-3.4,7.5-7.5V341.3C1726.7,337.1,1723.4,333.8,1719.2,333.8z"/>
		<path class="st18" d="M1499.3,397.8c-4.1,0-7.5,3.4-7.5,7.5v112.5H1381c-4.1,0-7.5,3.4-7.5,7.5c0,4.1,3.4,7.5,7.5,7.5h118.2
			c4.1,0,7.5-3.4,7.5-7.5v-120C1506.8,401.1,1503.4,397.8,1499.3,397.8z"/>
		<path class="st38" d="M1380.3,201.2h-98.9c-6.8,0-12.4-5.5-12.4-12.4V90c0-6.8,5.5-12.4,12.4-12.4h98.9c6.8,0,12.4,5.5,12.4,12.4
			v98.9C1392.6,195.7,1387.1,201.2,1380.3,201.2z"/>
		<path class="st39" d="M1380.3,77.6h-30.9c6.8,0,12.4,5.5,12.4,12.4v98.9c0,6.8-5.5,12.4-12.4,12.4h30.9c6.8,0,12.4-5.5,12.4-12.4
			V90C1392.6,83.1,1387.1,77.6,1380.3,77.6z"/>
		<path class="st18" d="M1299.9,166.2v-53.6c0-2.3,1.8-4.1,4.1-4.1h53.6c2.3,0,4.1,1.8,4.1,4.1v53.6c0,2.3-1.8,4.1-4.1,4.1h-53.6
			C1301.8,170.3,1299.9,168.5,1299.9,166.2z"/>
		<path class="st40" d="M1593,418.1h-136c-9.1,0-16.5-7.4-16.5-16.5v-136c0-9.1,7.4-16.5,16.5-16.5h136c9.1,0,16.5,7.4,16.5,16.5
			v136C1609.5,410.7,1602.1,418.1,1593,418.1z"/>
		<path class="st41" d="M1593,249.1h-30.9c9.1,0,16.5,7.4,16.5,16.5v136c0,9.1-7.4,16.5-16.5,16.5h30.9c9.1,0,16.5-7.4,16.5-16.5
			v-136C1609.5,256.5,1602.1,249.1,1593,249.1z"/>
		<path class="st38" d="M1471.5,383v-98.9c0-2.3,1.8-4.1,4.1-4.1h98.9c2.3,0,4.1,1.8,4.1,4.1V383c0,2.3-1.8,4.1-4.1,4.1h-98.9
			C1473.3,387.2,1471.5,385.3,1471.5,383z"/>
		<path class="st42" d="M1380.3,589.6h-98.9c-6.8,0-12.4-5.5-12.4-12.4v-98.9c0-6.8,5.5-12.4,12.4-12.4h98.9
			c6.8,0,12.4,5.5,12.4,12.4v98.9C1392.6,584.1,1387.1,589.6,1380.3,589.6z"/>
		<path class="st43" d="M1380.3,466h-30.9c6.8,0,12.4,5.5,12.4,12.4v98.9c0,6.8-5.5,12.4-12.4,12.4h30.9c6.8,0,12.4-5.5,12.4-12.4
			v-98.9C1392.6,471.5,1387.1,466,1380.3,466z"/>
		<path class="st38" d="M1299.9,554.6V501c0-2.3,1.8-4.1,4.1-4.1h53.6c2.3,0,4.1,1.8,4.1,4.1v53.6c0,2.3-1.8,4.1-4.1,4.1h-53.6
			C1301.8,558.7,1299.9,556.8,1299.9,554.6z"/>
		<path class="st44" d="M1768.7,589.6h-98.9c-6.8,0-12.4-5.5-12.4-12.4v-98.9c0-6.8,5.5-12.4,12.4-12.4h98.9
			c6.8,0,12.4,5.5,12.4,12.4v98.9C1781,584.1,1775.5,589.6,1768.7,589.6z"/>
		<path class="st45" d="M1768.7,466h-30.9c6.8,0,12.4,5.5,12.4,12.4v98.9c0,6.8-5.5,12.4-12.4,12.4h30.9c6.8,0,12.4-5.5,12.4-12.4
			v-98.9C1781,471.5,1775.5,466,1768.7,466z"/>
		<path class="st38" d="M1688.3,554.6V501c0-2.3,1.8-4.1,4.1-4.1h53.6c2.3,0,4.1,1.8,4.1,4.1v53.6c0,2.3-1.8,4.1-4.1,4.1h-53.6
			C1690.2,558.7,1688.3,556.8,1688.3,554.6z"/>
	</g>
	<g>
		<path class="st46" d="M1823.2,196.3h-167.5v-99c0-2.1,1.7-3.8,3.8-3.8h159.9c2.1,0,3.8,1.7,3.8,3.8V196.3z"/>
		<path class="st47" d="M1667.1,93.5v102.8h-11.4v-99c0-2.1,1.7-3.8,3.8-3.8H1667.1z"/>
		<g>
			<path class="st21" d="M1720.4,173.7h7.6v7.1h-7.6V173.7z"/>
			<path class="st21" d="M1735.6,173.7h7.6v7.1h-7.6V173.7z"/>
			<path class="st21" d="M1750.8,173.7h7.6v7.1h-7.6V173.7z"/>
		</g>
		<path class="st48" d="M1827,207.7h-175.2c-2.1,0-3.8-1.7-3.8-3.8v-11.4h72.4l3.8,3.8h30.5l3.8-3.8h72.4v11.4
			C1830.8,206,1829.1,207.7,1827,207.7z"/>
		<path class="st48" d="M1621.4,32.5H1728v114.2h-106.6V32.5z"/>
		<path class="st21" d="M1621.4,32.5h22.8v114.2h-22.8V32.5z"/>
		<path class="st49" d="M1621.4,32.5h11.4v114.2h-11.4V32.5z"/>
		<path class="st50" d="M1750.8,32.5h106.6v114.2h-106.6V32.5z"/>
		<path class="st48" d="M1750.8,32.5h106.6v22.8h-106.6V32.5z"/>
		<path class="st51" d="M1750.8,32.5h11.4v22.8h-11.4V32.5z"/>
		<path class="st52" d="M1750.8,55.4h11.4v91.4h-11.4V55.4z"/>
		<path class="st21" d="M1766.1,40.4h7.6v7.1h-7.6V40.4z"/>
		<path class="st21" d="M1781.3,40.4h7.6v7.1h-7.6V40.4z"/>
		<path class="st21" d="M1796.5,40.4h7.6v7.1h-7.6V40.4z"/>
		<path class="st46" d="M1766.1,70.6h76.2v22.8h-76.2V70.6z"/>
		<path class="st53" d="M1766.1,108.7h22.8v22.8h-22.8V108.7z"/>
		<path d="M1629,48.3h7.6v7.1h-7.6V48.3z"/>
		<path d="M1651.8,63.5h38.1v7.1h-38.1V63.5z"/>
		<path d="M1629,63.5h7.6v7.1h-7.6V63.5z"/>
		<path d="M1697.5,63.5h15.2v7.1h-15.2V63.5z"/>
		<path d="M1678.5,78.7h34.3v7.1h-34.3V78.7z"/>
		<path d="M1651.8,78.7h19v7.1h-19V78.7z"/>
		<path d="M1629,78.7h7.6v7.1h-7.6V78.7z"/>
		<path d="M1651.8,48.3h30.5v7.1h-30.5V48.3z"/>
		<path d="M1651.8,93.9h38.1v7.1h-38.1V93.9z"/>
		<path d="M1629,93.9h7.6v7.1h-7.6V93.9z"/>
		<path d="M1697.5,93.9h15.2v7.1h-15.2V93.9z"/>
		<path d="M1651.8,109.2h15.2v7.1h-15.2V109.2z"/>
		<path d="M1629,109.2h7.6v7.1h-7.6V109.2z"/>
		<path d="M1674.7,109.2h22.8v7.1h-22.8V109.2z"/>
		<path d="M1651.8,124.4h22.8v7.1h-22.8V124.4z"/>
		<path d="M1629,124.4h7.6v7.1h-7.6V124.4z"/>
		<path d="M1682.3,124.4h30.5v7.1h-30.5V124.4z"/>
		<path class="st20" d="M1860.8,150.6V29.2H1747v30h106.6v84.3h-99.5V66.8h-7.1v23.3h-15.7V29.2h-113.8v121.4h113.8V97.3h15.7v53.3
			h72.4v38.6H1757l-3.8,3.8h-27.5l-3.8-3.8H1659v-30.9h-7.1v30.9h-7.6v14.8c0,4.1,3.5,7.6,7.6,7.6H1827c4.1,0,7.1-3.5,7.1-7.6v-14.8
			h-7.6v-38.6H1860.8z M1754.2,52.1V36.4h99.5v15.7H1754.2z M1624.7,36.4h15.7v107.1h-15.7V36.4z M1724.2,143.5h-76.6V36.4h76.6
			V143.5z M1827,203.9c0,0.1,0.1,0.5,0,0.5h-175.2c-0.1,0-0.5-0.3-0.5-0.5v-7.6h67.5l3.8,3.8h33.4l3.8-3.8h67.1V203.9z"/>
		<path d="M1762.3,97.3h83.3v-30h-83.3V97.3z M1769.4,74.4h69v15.7h-69V74.4z"/>
		<path d="M1762.3,135.4h30v-30h-30V135.4z M1769.4,112.5h15.7v15.7h-15.7V112.5z"/>
		<path d="M1800.3,105.4h45.7v7.1h-45.7V105.4z"/>
		<path d="M1800.3,116.8h45.7v7.1h-45.7V116.8z"/>
		<path d="M1800.3,128.2h45.7v7.1h-45.7V128.2z"/>
	</g>
</g>
<g id="Layer_2_copy" class="st0">
	<g class="st7">
		<g>
			<circle class="st18" cx="974.9" cy="331.9" r="153.1"/>
			<path class="st19" d="M1124,366.9l-138.6-106l-0.8,41.9L882,370.3l132.8,109.5C1068.9,465.2,1111.2,421.7,1124,366.9z"/>
			<path class="st20" d="M1124,366.9l-138.6-106l-0.8,41.9L882,370.3l132.8,109.5C1068.9,465.2,1111.2,421.7,1124,366.9z"/>
			<polygon class="st21" points="1077.5,331.9 985.4,260.9 985.4,293.6 882,293.6 882,370.3 985.4,370.3 985.4,403 			"/>
		</g>
	</g>
</g>
<g id="Layer_2_copy_2" class="st0">
	<g class="st7">
		<g>
			<circle class="st18" cx="974.9" cy="331.9" r="153.1"/>
			<path class="st19" d="M1124,366.9l-138.6-106l-0.8,41.9L882,370.3l132.8,109.5C1068.9,465.2,1111.2,421.7,1124,366.9z"/>
			<path class="st20" d="M1124,366.9l-138.6-106l-0.8,41.9L882,370.3l132.8,109.5C1068.9,465.2,1111.2,421.7,1124,366.9z"/>
			<polygon class="st21" points="1077.5,331.9 985.4,260.9 985.4,293.6 882,293.6 882,370.3 985.4,370.3 985.4,403 			"/>
		</g>
	</g>
</g>
</svg>
