<?xml version="1.0" encoding="utf-8"?>
<!-- Generator: Adobe Illustrator 23.0.6, SVG Export Plug-In . SVG Version: 6.00 Build 0)  -->
<svg version="1.1" id="Calque_1" xmlns="http://www.w3.org/2000/svg" xmlns:xlink="http://www.w3.org/1999/xlink" x="0px" y="0px"
	 viewBox="0 0 1400 980" style="enable-background:new 0 0 1400 980;" xml:space="preserve">
<style type="text/css">
	.st0{opacity:8.000000e-02;}
	.st1{fill:#57449B;}
	.st2{fill:#FCC490;}
	.st3{fill:#D88850;}
	.st4{opacity:0.5;fill:none;stroke:#C9804F;stroke-width:3.4474;stroke-miterlimit:10;}
	.st5{fill:#A58258;}
	.st6{opacity:0.8;fill:#C2D8EF;}
	.st7{opacity:0.2;fill:#333332;}
	.st8{fill:#BA6145;}
	.st9{fill:#A86951;}
	.st10{opacity:0.3;fill:#333332;}
	.st11{opacity:0.6;}
	.st12{fill:#FFFFFF;}
	.st13{fill:#423745;}
	.st14{fill:#55595A;}
	.st15{fill:#9BA3BA;}
	.st16{fill:#AEB7CE;}
	.st17{fill:#6A7389;}
	.st18{fill:#FFCE78;}
	.st19{fill:#CC865E;}
	.st20{fill:#72504C;}
	.st21{fill:#C48E47;}
	.st22{fill:#B87A53;}
	.st23{fill:#EFBB67;}
	.st24{opacity:0.8;fill:#FFFFFF;}
	.st25{opacity:0.7;fill:#8271A8;}
	.st26{opacity:0.7;fill:#46565B;}
	.st27{opacity:0.5;fill:#FFFFFF;}
	.st28{fill:#FFA68A;}
	.st29{fill:#E5785C;}
	.st30{fill:#CCCCCC;}
	.st31{fill:#403023;}
	.st32{fill:#4F3A2A;}
	.st33{fill:#683E3A;}
	.st34{fill:#493C87;}
	.st35{fill:#7C4A45;}
	.st36{fill:#FFE536;}
	.st37{fill:#E5E5E5;}
	.st38{fill:#602C34;}
	.st39{opacity:0.5;fill:#E09F2B;}
	.st40{fill:#6454B5;}
	.st41{fill:#473F3C;}
	.st42{fill:#FFB287;}
	.st43{fill:#9FB9D1;}
	.st44{fill:#D64556;}
	.st45{fill:#7A1B38;}
	.st46{fill:#962643;}
	.st47{fill:#8EA1BC;}
	.st48{fill:#C2D8EF;}
	.st49{opacity:0.7;fill:#8EA1BC;}
	.st50{opacity:0.5;fill:#E5785C;}
	.st51{fill:#422B27;}
	.st52{fill:#8E3925;}
	.st53{fill:none;stroke:#2E3192;stroke-width:3.8623;stroke-linecap:round;stroke-miterlimit:10;}
	.st54{fill:none;stroke:#E5785C;stroke-width:4.2165;stroke-linecap:round;stroke-miterlimit:10;}
	.st55{opacity:0.6;fill:#C67560;}
	.st56{fill:#754559;}
	.st57{opacity:0.6;fill:#FFFFFF;}
	.st58{fill:#485F6E;}
	.st59{fill:#26353D;}
	.st60{fill:#D88916;}
	.st61{fill:#607E89;}
	.st62{fill:#2F3E44;}
	.st63{fill:#5CD9FF;}
	.st64{fill:#FF5A5A;}
	.st65{fill:#F48873;}
	.st66{fill:none;stroke:#FFB287;stroke-width:7.6528;stroke-linecap:round;stroke-linejoin:round;stroke-miterlimit:10;}
	.st67{fill:#8271A8;}
</style>
<g class="st0">
	<path class="st1" d="M1066.1,937.7c0-4.2-3.4-7.6-7.7-7.6H258.5c-4.2,0-7.7,3.4-7.7,7.6s3.4,7.6,7.7,7.6h799.9
		C1062.6,945.3,1066.1,941.9,1066.1,937.7z"/>
</g>
<g>
	<g>
		<g>
			<g>
				<g>
					<g>
						<rect x="761.1" y="55" class="st2" width="164.6" height="321"/>
						<rect x="622.9" y="55" class="st3" width="148.2" height="321"/>
						<g>
							<line class="st4" x1="925.7" y1="162.2" x2="623.2" y2="162.2"/>
							<line class="st4" x1="925.7" y1="269.1" x2="623.2" y2="269.1"/>
						</g>
						<rect x="836.8" y="160.2" class="st5" width="18.4" height="21.7"/>
						<rect x="630.6" y="245.2" class="st6" width="17.2" height="15.6"/>
						<rect x="706.6" y="245.2" class="st7" width="28.7" height="15.6"/>
						<rect x="739.3" y="245.2" class="st7" width="14.8" height="15.6"/>
						<rect x="706.6" y="137" class="st7" width="28.7" height="15.6"/>
						<rect x="739.3" y="137" class="st7" width="14.8" height="15.6"/>
						<rect x="706.6" y="353.1" class="st7" width="28.7" height="15.6"/>
						<rect x="739.3" y="353.1" class="st7" width="14.8" height="15.6"/>
						<rect x="630.6" y="354" class="st6" width="17.2" height="15.6"/>
						<rect x="630.6" y="138.2" class="st6" width="17.2" height="15.6"/>
						<rect x="838.4" y="55" class="st5" width="18.4" height="21.7"/>
						<rect x="838.4" y="267.2" class="st5" width="18.4" height="21.7"/>
					</g>
				</g>
				<g>
					<g>
						<rect x="466.4" y="55" class="st8" width="174" height="321"/>
						<rect x="370" y="55" class="st3" width="115.9" height="321"/>
						<g>
							<line class="st4" x1="640.4" y1="162.2" x2="370.2" y2="162.2"/>
							<line class="st4" x1="640.5" y1="269.1" x2="370.2" y2="269.1"/>
						</g>
						<rect x="564.8" y="160.3" class="st9" width="18.4" height="20.1"/>
						<rect x="425.8" y="245.2" class="st10" width="14.8" height="15.6"/>
						<rect x="444.6" y="245.2" class="st10" width="14.8" height="15.6"/>
						<rect x="462.8" y="245.2" class="st10" width="14.8" height="15.6"/>
						<rect x="425.8" y="137" class="st10" width="14.8" height="15.6"/>
						<rect x="444.6" y="137" class="st10" width="14.8" height="15.6"/>
						<rect x="462.8" y="137" class="st10" width="14.8" height="15.6"/>
						<rect x="425.8" y="353.1" class="st10" width="14.8" height="15.6"/>
						<rect x="444.6" y="353.1" class="st10" width="14.8" height="15.6"/>
						<rect x="462.8" y="353.1" class="st10" width="14.8" height="15.6"/>
						<rect x="566.4" y="55" class="st9" width="18.4" height="17.2"/>
						<rect x="566.4" y="267.2" class="st9" width="18.4" height="25.1"/>
					</g>
					<g>
						<rect x="592.2" y="55" class="st2" width="174" height="321"/>
						<rect x="495.8" y="55" class="st3" width="115.9" height="321"/>
						<g>
							<line class="st4" x1="766.3" y1="162.2" x2="496.1" y2="162.2"/>
							<line class="st4" x1="766.3" y1="269.1" x2="496.1" y2="269.1"/>
						</g>
						<rect x="676.9" y="160.2" class="st5" width="18.4" height="21.7"/>
						<rect x="551.6" y="245.2" class="st10" width="14.8" height="15.6"/>
						<rect x="570.4" y="245.2" class="st10" width="14.8" height="15.6"/>
						<rect x="588.7" y="245.2" class="st10" width="14.8" height="15.6"/>
						<rect x="551.6" y="137" class="st10" width="14.8" height="15.6"/>
						<rect x="570.4" y="137" class="st10" width="14.8" height="15.6"/>
						<rect x="588.7" y="137" class="st10" width="14.8" height="15.6"/>
						<rect x="551.6" y="353.1" class="st10" width="14.8" height="15.6"/>
						<rect x="570.4" y="353.1" class="st10" width="14.8" height="15.6"/>
						<rect x="588.7" y="353.1" class="st10" width="14.8" height="15.6"/>
						<rect x="676.9" y="55" class="st5" width="18.4" height="21.7"/>
						<rect x="676.9" y="267.2" class="st5" width="18.4" height="21.7"/>
					</g>
				</g>
			</g>
			<g>
				<g>
					<g>
						<rect x="761.1" y="374.5" class="st2" width="164.6" height="320.8"/>
						<rect x="622.9" y="374.5" class="st3" width="148.2" height="320.8"/>
						<g>
							<line class="st4" x1="925.7" y1="481.4" x2="623.2" y2="481.4"/>
							<line class="st4" x1="925.7" y1="588.4" x2="623.2" y2="588.4"/>
						</g>
						<rect x="836.8" y="479.4" class="st5" width="18.4" height="21.7"/>
						<rect x="630.6" y="564.5" class="st6" width="17.2" height="15.6"/>
						<rect x="706.6" y="564.5" class="st7" width="28.7" height="15.6"/>
						<rect x="739.3" y="564.5" class="st7" width="14.8" height="15.6"/>
						<rect x="706.6" y="456.2" class="st7" width="28.7" height="15.6"/>
						<rect x="739.3" y="456.2" class="st7" width="14.8" height="15.6"/>
						<rect x="706.6" y="672.4" class="st7" width="28.7" height="15.6"/>
						<rect x="739.3" y="672.4" class="st7" width="14.8" height="15.6"/>
						<rect x="630.6" y="673.3" class="st6" width="17.2" height="15.6"/>
						<rect x="630.6" y="457.4" class="st6" width="17.2" height="15.6"/>
						<rect x="838.4" y="586.4" class="st5" width="18.4" height="21.7"/>
					</g>
				</g>
				<g>
					<g>
						<rect x="466.4" y="374.5" class="st8" width="174" height="320.8"/>
						<rect x="370" y="374.5" class="st3" width="115.9" height="320.8"/>
						<g>
							<line class="st4" x1="640.4" y1="481.4" x2="370.2" y2="481.4"/>
							<line class="st4" x1="640.5" y1="588.4" x2="370.2" y2="588.4"/>
						</g>
						<rect x="564.8" y="479.6" class="st9" width="18.4" height="20.1"/>
						<rect x="425.8" y="564.5" class="st10" width="14.8" height="15.6"/>
						<rect x="444.6" y="564.5" class="st10" width="14.8" height="15.6"/>
						<rect x="462.8" y="564.5" class="st10" width="14.8" height="15.6"/>
						<rect x="425.8" y="456.2" class="st10" width="14.8" height="15.6"/>
						<rect x="444.6" y="456.2" class="st10" width="14.8" height="15.6"/>
						<rect x="462.8" y="456.2" class="st10" width="14.8" height="15.6"/>
						<rect x="425.8" y="672.4" class="st10" width="14.8" height="15.6"/>
						<rect x="444.6" y="672.4" class="st10" width="14.8" height="15.6"/>
						<rect x="462.8" y="672.4" class="st10" width="14.8" height="15.6"/>
						<rect x="566.4" y="374.5" class="st9" width="18.4" height="17"/>
						<rect x="566.4" y="586.4" class="st9" width="18.4" height="25.1"/>
					</g>
					<g>
						<rect x="592.2" y="374.5" class="st2" width="174" height="320.8"/>
						<rect x="495.8" y="374.5" class="st3" width="115.9" height="320.8"/>
						<g>
							<line class="st4" x1="766.3" y1="481.4" x2="496.1" y2="481.4"/>
							<line class="st4" x1="766.3" y1="588.4" x2="496.1" y2="588.4"/>
						</g>
						<rect x="676.9" y="479.4" class="st5" width="18.4" height="21.7"/>
						<rect x="551.6" y="564.5" class="st10" width="14.8" height="15.6"/>
						<rect x="570.4" y="564.5" class="st10" width="14.8" height="15.6"/>
						<rect x="588.7" y="564.5" class="st10" width="14.8" height="15.6"/>
						<rect x="551.6" y="456.2" class="st10" width="14.8" height="15.6"/>
						<rect x="570.4" y="456.2" class="st10" width="14.8" height="15.6"/>
						<rect x="588.7" y="456.2" class="st10" width="14.8" height="15.6"/>
						<rect x="551.6" y="672.4" class="st10" width="14.8" height="15.6"/>
						<rect x="570.4" y="672.4" class="st10" width="14.8" height="15.6"/>
						<rect x="588.7" y="672.4" class="st10" width="14.8" height="15.6"/>
						<rect x="679.8" y="586.4" class="st5" width="18.4" height="21.7"/>
					</g>
				</g>
			</g>
			<line class="st4" x1="369.9" y1="376.6" x2="925.7" y2="376.6"/>
			<rect x="838.4" y="374.5" class="st5" width="18.4" height="21.7"/>
			<rect x="676.9" y="374.5" class="st5" width="18.4" height="21.7"/>
		</g>
		<g>
			<g class="st11">
				<path class="st12" d="M801.2,872.2H801c-0.9,0-1.4-0.3-1.4-0.9c0-0.6,0.5-0.9,1.4-0.9h1c0.4,0,0.7,0.1,0.9,0.3
					c0.2,0.2,0.3,0.6,0.3,1.1v6.1c0,1-0.3,1.4-1,1.4c-0.7,0-1-0.5-1-1.4V872.2z"/>
				<path class="st12" d="M806.7,871.4c0-0.2,0.1-0.4,0.1-0.6c0.1-0.1,0.1-0.3,0.3-0.3c0.1-0.1,0.2-0.1,0.4-0.2c0.2,0,0.3,0,0.5,0
					h2.5c0.9,0,1.3,0.3,1.3,1c0,0.3-0.1,0.5-0.3,0.7c-0.2,0.2-0.5,0.2-0.9,0.2h-2.1l-0.1,1.1c0.3-0.1,0.6-0.1,0.9-0.1
					c0.4,0,0.7,0.1,1.1,0.2c0.3,0.1,0.6,0.4,0.9,0.6c0.2,0.3,0.4,0.6,0.6,0.9c0.1,0.4,0.2,0.8,0.2,1.2c0,0.5-0.1,0.9-0.2,1.3
					c-0.2,0.4-0.4,0.8-0.7,1.1s-0.7,0.5-1.1,0.7c-0.4,0.2-0.9,0.3-1.4,0.3c-0.4,0-0.8-0.1-1.1-0.2c-0.3-0.1-0.6-0.2-0.9-0.4
					c-0.3-0.2-0.5-0.4-0.6-0.6c-0.1-0.2-0.2-0.4-0.2-0.7c0-0.3,0.1-0.5,0.2-0.7c0.2-0.2,0.4-0.3,0.6-0.3c0.2,0,0.3,0,0.4,0.1
					c0.1,0.1,0.3,0.2,0.4,0.3c0.2,0.1,0.3,0.2,0.5,0.3c0.2,0.1,0.4,0.1,0.6,0.1c0.2,0,0.3,0,0.5-0.1c0.2-0.1,0.3-0.2,0.4-0.3
					c0.1-0.1,0.2-0.3,0.3-0.4c0.1-0.2,0.1-0.3,0.1-0.5c0-0.4-0.1-0.7-0.3-0.9c-0.2-0.2-0.5-0.3-0.8-0.3c-0.1,0-0.3,0-0.4,0.1
					c-0.1,0-0.3,0.1-0.4,0.1s-0.2,0.1-0.4,0.1c-0.1,0-0.2,0.1-0.4,0.1c-0.5,0-0.8-0.3-0.8-0.9c0-0.1,0-0.1,0-0.3c0-0.1,0-0.3,0-0.4
					L806.7,871.4z"/>
				<path class="st12" d="M818.7,874.4c1,0.5,1.5,1.3,1.5,2.3c0,0.4-0.1,0.8-0.2,1.1c-0.2,0.4-0.4,0.7-0.7,0.9
					c-0.3,0.3-0.6,0.5-1,0.6c-0.4,0.2-0.8,0.2-1.3,0.2c-0.7,0-1.4-0.2-2-0.7c-0.4-0.3-0.6-0.6-0.8-0.9c-0.2-0.3-0.3-0.6-0.3-0.9
					c0-0.3,0.1-0.5,0.2-0.7c0.2-0.2,0.4-0.3,0.6-0.3c0.2,0,0.4,0,0.5,0.1c0.1,0.1,0.3,0.2,0.4,0.4c0.1,0.1,0.2,0.2,0.3,0.4
					c0.1,0.1,0.2,0.2,0.3,0.3c0.1,0.1,0.2,0.2,0.3,0.2c0.1,0.1,0.3,0.1,0.4,0.1c0.3,0,0.6-0.1,0.8-0.3c0.2-0.2,0.3-0.5,0.3-0.8
					c0-0.4-0.1-0.6-0.3-0.7c-0.2-0.1-0.5-0.2-1-0.3c-0.3-0.1-0.5-0.1-0.7-0.3c-0.1-0.1-0.2-0.3-0.2-0.6c0-0.3,0.1-0.5,0.2-0.6
					c0.1-0.1,0.4-0.2,0.7-0.3c0.6-0.2,0.9-0.5,0.9-0.9c0-0.2-0.1-0.4-0.2-0.6c-0.1-0.1-0.3-0.2-0.5-0.2c-0.2,0-0.4,0-0.5,0.1
					c-0.1,0.1-0.3,0.2-0.4,0.3c-0.2,0.2-0.4,0.3-0.5,0.4c-0.1,0.1-0.3,0.2-0.6,0.2c-0.2,0-0.4-0.1-0.6-0.2c-0.2-0.2-0.3-0.4-0.3-0.6
					c0-0.3,0.1-0.5,0.2-0.8c0.2-0.3,0.4-0.5,0.6-0.7c0.3-0.2,0.6-0.4,0.9-0.5c0.4-0.1,0.7-0.2,1.1-0.2c0.4,0,0.7,0.1,1.1,0.2
					c0.3,0.1,0.6,0.3,0.8,0.5c0.2,0.2,0.4,0.5,0.6,0.8c0.1,0.3,0.2,0.6,0.2,1c0,0.4-0.1,0.7-0.2,1
					C819.3,873.8,819,874.1,818.7,874.4z"/>
			</g>
			<g>
				<polygon class="st13" points="391.2,934.7 409.8,934.7 422.4,779.1 402.5,779.1 				"/>
				<polygon class="st14" points="383,934.7 396.7,934.7 403,779.1 383,779.1 				"/>
				<rect x="895.2" y="779.1" class="st15" width="19.9" height="155.6"/>
				<polygon class="st13" points="888.3,934.7 903.3,934.7 895.7,779.1 875.8,779.1 				"/>
				<polygon class="st16" points="635.2,779.1 634.4,791.7 633.3,811.4 626.3,934.7 612.7,934.7 612.7,779.1 				"/>
				<polygon class="st14" points="613.2,779.1 613.2,934.7 599.5,934.7 592.5,811.4 591.4,791.7 590.7,779.1 				"/>
				<g>
					<g>
						<polygon class="st17" points="608.3,791.7 921.1,791.7 921.1,767.3 498.4,767.3 						"/>
					</g>
					<rect x="376.6" y="767.3" class="st14" width="236.5" height="24.4"/>
				</g>
			</g>
		</g>
		<g>
			<g>
				<rect x="898.8" y="694.1" class="st18" width="51.2" height="15.8"/>
				<rect x="590.9" y="694.1" class="st19" width="308.7" height="16.3"/>
				<polygon class="st20" points="836,709.9 874.8,709.9 887.2,694.1 874.8,694.1 				"/>
				<polygon class="st20" points="762.8,709.9 801.6,709.9 814.1,694.1 801.4,694.1 				"/>
				<polygon class="st20" points="686.5,709.9 725.2,709.9 737.7,694.1 726.2,694.1 				"/>
				<polygon class="st20" points="611.9,709.9 650.6,709.9 663.1,694.1 651.6,694.1 				"/>
			</g>
			<g>
				<rect x="749.4" y="694.1" class="st18" width="51.2" height="15.8"/>
			</g>
			<g>
				<rect x="824.1" y="694.1" class="st18" width="51.2" height="15.8"/>
			</g>
			<g>
				<rect x="674.8" y="694.1" class="st18" width="51.2" height="15.8"/>
			</g>
			<g>
				<rect x="360.3" y="694.1" class="st21" width="257.6" height="16.5"/>
			</g>
		</g>
		<g>
			<rect x="496" y="722.2" class="st20" width="34.6" height="45"/>
			<rect x="392.1" y="722.2" class="st20" width="34.6" height="45"/>
			<rect x="622.8" y="754.6" class="st20" width="279.7" height="16.9"/>
			<rect x="868.7" y="726.5" class="st22" width="33.7" height="45"/>
			<polygon class="st20" points="868.7,771.5 902.1,726.3 868.7,726.3 868.7,755.1 863.4,762.6 			"/>
			<rect x="622.8" y="726.5" class="st20" width="33.7" height="45"/>
			<rect x="752.3" y="726.5" class="st22" width="33.7" height="45"/>
			<rect x="490.7" y="754.6" class="st20" width="266.5" height="16.9"/>
			<rect x="723.5" y="726.5" class="st22" width="33.7" height="45"/>
			<rect x="594" y="726.5" class="st22" width="33.7" height="45"/>
			<polygon class="st23" points="902.2,771.5 950,771.5 950,718.5 902.2,726.5 			"/>
			<polygon class="st23" points="757,771.5 804.8,771.5 804.8,719.4 757,726.5 			"/>
			<polygon class="st23" points="600.1,771.5 647.8,771.5 647.8,718.9 600.1,726.5 			"/>
			<polygon class="st22" points="567.1,771.5 600.8,771.5 600.8,726.5 567.1,719.8 			"/>
			<polygon class="st22" points="360.6,771.5 394.3,771.5 394.3,726.5 360.6,718.5 			"/>
			<polygon class="st22" points="463.8,771.5 497.5,771.5 497.5,726.5 463.8,716.8 			"/>
			<rect x="600.1" y="709.7" class="st23" width="349.9" height="16.9"/>
			<rect x="360.6" y="709.7" class="st22" width="240.2" height="16.9"/>
			<rect x="360.6" y="754.6" class="st22" width="240.2" height="16.9"/>
			<polygon class="st20" points="723.3,771.5 756.7,726.3 723.3,726.3 723.3,754.7 716.6,763.4 			"/>
		</g>
		<rect x="600.7" y="694.1" class="st18" width="51.2" height="16"/>
	</g>
	<rect x="727.7" y="215.4" class="st24" width="30.8" height="42.8"/>
	<rect x="727.7" y="324.2" class="st24" width="30.8" height="42.8"/>
	<rect x="727.7" y="108.3" class="st24" width="30.8" height="42.8"/>
	<rect x="885.8" y="215.4" class="st24" width="30.8" height="42.8"/>
	<rect x="885.8" y="324.2" class="st24" width="30.8" height="42.8"/>
	<rect x="885.8" y="108.3" class="st24" width="30.8" height="42.8"/>
	<rect x="727.7" y="534.6" class="st24" width="30.8" height="42.8"/>
	<rect x="727.7" y="643.4" class="st24" width="30.8" height="42.8"/>
	<rect x="727.7" y="427.6" class="st24" width="30.8" height="42.8"/>
	<rect x="885.8" y="534.6" class="st24" width="30.8" height="42.8"/>
	<rect x="885.8" y="643.4" class="st24" width="30.8" height="42.8"/>
	<rect x="885.8" y="427.6" class="st24" width="30.8" height="42.8"/>
	<path class="st25" d="M925.7,694.1V386.1c-3,0.6-5.8,1.7-8.3,3.2c-0.3,0.2-0.5,0.3-0.8,0.5c-2.1,1.4-4,3-5.6,4.9l0-0.1
		c-6.2,5.8-34.5,34.8-34.5,34.8l0,0l-0.6,0.6L857.5,448l-34.8-20.2c-0.7-1.6-3.9-10.5-6.6-17.2c-0.7-6.1,0.9-6.3,0.2-11.8l6.9-2.8
		c2.6,0,3.8-2.5,2.7-5.5l-6.3-17c-1.1-3-4.1-6-6.7-6.5l-26.3-5.8c-2.6-0.6-6.8-1-9.4-1h-16.3c-1.2,0-3,0.6-3.9,1.3
		c-1.3,0.9-2.2,2.5-2.2,4.7v18.3c0,3.4,2.1,6.3,4.7,6.6l26.7,3.1l4.9,15.4c-3,1-4.7,4.5-3.6,9c1.1,4.7,3.4,15.9,7,18
		c-0.9,1.9-1.1,4.6-0.5,6.6l0.6,1.8c0.7,2.3,2.9,1.3,4.8,0.8l5.2-1.3l43,24.9c3.1,1.7,6.7,2.6,10.3,2.6c5.6,0,11.2-2,15.1-5.9
		l10.2-9.9l4-4.9l6.3,7.5l5-4.3c0.2,9.4,0.4,33.2,0.7,44.5c0.2,7.3,5,11.4,5.2,18.9c-0.3-0.4-0.6-0.8-1-1.2
		c-1.3-1.2-2.7-1.9-4.1-2.3c0.3,0,0.7-0.1,1-0.1l-1.1,0c-0.5-0.1-1-0.2-1.5-0.2c0.1,0,0.3,0,0.4,0l-63.6,0c-4.7,0-7.8,3.5-6.8,7.8
		h-1.3c-0.9,0-1.4,0.3-1.5,0.8l-1.1,3.2H822l38.4,46.2c1,2,1.9,4.1,2.8,6c4.6,10.4,7.3,19,8.2,24.2c0,0,16.6-0.3,34,0.6
		c0,1.3,0,2.6,0,3.6V618c-0.4,11.6-2.2,76.1-2.2,76.1h-3.5l-0.1,15.5h12.7v17h-4.1v45.1h-5.3v20.1h-6.5l7.3,143h11.5v-143h6v-20.2
		H950v-45h0v-16.6h0.1v-15.8H925.7z"/>
	<g>
		<g>
			<rect x="741.9" y="354" class="st26" width="2.5" height="8.1"/>
			<rect x="736.9" y="354" class="st26" width="2.5" height="8.1"/>
			<rect x="731.9" y="354" class="st26" width="2.5" height="8.1"/>
		</g>
		<g>
			<rect x="751.8" y="354" class="st26" width="2.5" height="8.1"/>
			<rect x="746.8" y="354" class="st26" width="2.5" height="8.1"/>
		</g>
	</g>
	<g>
		<g>
			<rect x="900.8" y="564.5" class="st26" width="2.5" height="8.1"/>
			<rect x="895.8" y="564.5" class="st26" width="2.5" height="8.1"/>
			<rect x="890.7" y="564.5" class="st26" width="2.5" height="8.1"/>
		</g>
		<g>
			<rect x="910.7" y="564.5" class="st26" width="2.5" height="8.1"/>
			<rect x="905.7" y="564.5" class="st26" width="2.5" height="8.1"/>
		</g>
	</g>
	<g>
		<g>
			<rect x="900.8" y="672.3" class="st26" width="2.5" height="8.1"/>
			<rect x="895.8" y="672.3" class="st26" width="2.5" height="8.1"/>
			<rect x="890.7" y="672.3" class="st26" width="2.5" height="8.1"/>
		</g>
		<g>
			<rect x="910.7" y="672.3" class="st26" width="2.5" height="8.1"/>
			<rect x="905.7" y="672.3" class="st26" width="2.5" height="8.1"/>
		</g>
	</g>
</g>
<path class="st27" d="M1031.6,183.6c-1.2-5.4-5.3-13.4-18.6-14.5s-13.7,9.6-12.5,11.5c1.2,2,4.8,6.3,4.8,6.3l12.5,2.8L1031.6,183.6z
	"/>
<path class="st1" d="M1064,380.8c0-20.6,2.7-43.9-25.1-43.9c-27.8,0-14,17.4-13.1,21.9c0.9,4.5,4.1,12.9,6.3,15.8
	c2.3,2.9,12.2,10.4,13.8,10.2C1047.5,384.7,1064,380.8,1064,380.8z"/>
<g>
	<g>
		<path class="st28" d="M971.7,367.6l-31.9,31l-17.2,16.7L911.4,426c-4.3,4.2-10.4,6.4-16.4,6.4c-3.9,0-7.8-0.9-11.1-2.8l-58.5-32.8
			c-6.2-3.5-8.4-11.3-4.9-17.5c3.5-6.2,11.3-8.4,17.5-4.9l56.9,31.9l20-19.4l4.5-4.4l34.4-33.4c5.1-4.9,13.3-4.8,18.2,0.3
			C976.9,354.5,976.8,362.6,971.7,367.6z"/>
		<polygon class="st29" points="939.7,398.5 922.5,415.2 914.8,386.9 919.4,382.5 928.8,379.3 		"/>
	</g>
	<path class="st30" d="M952.8,348.4c-6.7,6.3-37.4,37.8-37.4,37.8l23.4,28l31.7-27.2L952.8,348.4z"/>
	<g>
		<g>
			<path class="st31" d="M986.9,897.6c1,3.2-0.8,4.9-0.9,5.5c-2.7,12.8-37.7,10.3-39.1,9.1c-1.5-1.2-4.2-35.8-3.7-37.5
				c0.5-1.7,23.5-3.4,26.8-3.7c3.3-0.3,11.7-5.2,10.1-4C979.4,867.5,985.8,894.4,986.9,897.6z"/>
			<g>
				<path class="st32" d="M987.4,902.9c0,0,1.4,7.2-11.5,6.8c-12.3-0.3-19-14.7-19-14.7l-19.9-1.2c0,0-1.4,9-3,11.2
					c-4.3,5.9-15.4,17.3-15.4,17.3l-22.9,0.4c0,0-1.8,18.3,5.2,18.5s20.9,0.5,26.7,0.6c5.8,0.2,36.7-6.9,36.7-6.9s26.3,1.1,26.3,0.7
					C990.8,910.9,987.4,902.9,987.4,902.9z"/>
			</g>
			<polygon class="st32" points="991.2,940.7 951.4,940.7 951.2,934.7 968.9,930.8 991.7,931 			"/>
			<path class="st33" d="M893.3,926.4C893.3,926.4,893.3,926.4,893.3,926.4c0,0.4,0.1,1.8,0.4,3.1c0.1,0.5,0.3,1,0.4,1.4
				c0,0.1,0.1,0.2,0.1,0.2c0.1,0.2,0.1,0.3,0.2,0.5c0,0.1,0.1,0.2,0.1,0.3c0.1,0.1,0.2,0.3,0.2,0.4c0,0.1,0.1,0.2,0.1,0.2
				c0.1,0.2,0.2,0.5,0.4,0.7c0.1,0.1,0.1,0.2,0.2,0.3c0.1,0.1,0.1,0.2,0.2,0.3c0.1,0.1,0.2,0.2,0.3,0.3c0.1,0.1,0.1,0.1,0.2,0.2
				c0.1,0.1,0.3,0.3,0.4,0.5l0.2,0.1c0.1,0.1,0.2,0.2,0.3,0.3c0.1,0,0.2,0.1,0.2,0.1c0.1,0.1,0.3,0.2,0.4,0.3c0.1,0,0.1,0,0.1,0
				c0.2,0.1,0.4,0.2,0.6,0.3c0.1,0,0.1,0,0.2,0.1c0.2,0,0.3,0.1,0.5,0.1c0.1,0,0.1,0,0.2,0c0.2,0,0.4,0.1,0.6,0.1
				c3.1,0.1,7.6,0.2,12,0.3c4.4,0.1,8.9,0.3,12.1,0.3c0.8,0,1.5,0,2,0c0.2,0,0.4,0,0.6,0l0.7,0c0.2,0,0.3,0,0.5-0.1l1-0.1
				c0.1-0.1,0.3-0.1,0.4-0.1c0.3,0,0.5-0.1,0.7-0.1l0.4,0c0.3-0.1,0.5-0.1,0.8-0.1l0.3,0c0.3-0.1,0.6-0.1,1-0.2c0.1,0,0.1,0,0.2-0.1
				c0.4,0,0.7-0.1,1.1-0.2c5.8-0.9,13.6-2.4,19.9-3.7c6.3-1.3,11.2-2.4,11.2-2.4s27.3,1,27.4,0.7c0-3.5-0.1-6.6-0.2-9.5l-0.1-1.1
				c-1-16.6-4.2-22.2-4.2-22.2s-1.2,9.5-15.3,7.6c-9.8-1.3-13.3-10.8-14.3-14.6c-0.3-1-0.4-1.6-0.4-1.6l-4.8-0.2l-11.4-0.3l-4.2-0.1
				c0,0-0.2,1.3-0.5,3l0,0.1c0,0.3-0.1,0.5-0.2,0.7c0,0.1,0,0.1,0,0.2c0,0.3-0.1,0.5-0.2,0.8c0,0.1,0,0.1,0,0.2
				c0,0.3-0.1,0.5-0.2,0.8c0,0.1,0,0.1,0,0.1c-0.1,0.3-0.2,0.6-0.2,0.9c0,0.1,0,0.1,0,0.2c-0.1,0.3-0.2,0.6-0.2,0.8
				c-0.1,0,0,0.1,0,0.1c-0.1,2.7-2.7,5.6-2.7,5.6c-4.9,6.1-14.1,15.2-14.1,15.2s-6.7,1-12.9,0.8c-6.2-0.1-12.1,2.1-12.3,7.4
				C893.3,926,893.3,926.2,893.3,926.4z"/>
			<path class="st31" d="M935.1,897.8c0,0,13.2,2.8,24.6,6.3c11.4,3.5,16.5,19.8,16.5,19.8l15.1-3.6c-1-16.6-4.2-22.2-4.2-22.2
				s-1.1,7.2-15.2,5.3c-9.8-1.3-12.3-10.5-13.3-14.3l-22.1-0.6L935.1,897.8z"/>
		</g>
		<g>
			<path class="st34" d="M942,895.1h17.1c14.9,0,35.1,0,35.1,0s15.2-246.3,20.1-332.7c0.4-6.1,0.3-11.8-1.5-10.2l-3.3-23l-60.6,4.7
				c0,0-0.3,19.4-1.2,48.4C944.7,680.4,940.6,895.1,942,895.1z"/>
		</g>
		<g>
			<g>
				<path class="st31" d="M1061.7,897.6c1,3.2-0.8,4.9-0.9,5.5c-2.7,12.8-37.7,10.3-39.1,9.1c-1.5-1.2-4.2-35.8-3.7-37.5
					c0.5-1.7,23.5-3.4,26.8-3.7c3.3-0.3,11.7-5.2,10.1-4C1054.3,867.5,1060.7,894.4,1061.7,897.6z"/>
				<g>
					<path class="st32" d="M1062.3,902.9c0,0,1.4,7.2-11.5,6.8c-12.3-0.3-19-14.7-19-14.7l-19.9-1.2c0,0-1.4,9-3,11.2
						c-4.3,5.9-15.4,17.3-15.4,17.3l-22.9,0.4c0,0-1.8,18.3,5.2,18.5s20.9,0.5,26.7,0.6c5.8,0.2,36.7-6.9,36.7-6.9
						s26.3,1.1,26.3,0.7C1065.7,910.9,1062.3,902.9,1062.3,902.9z"/>
				</g>
				<polygon class="st32" points="1066.1,940.7 1026.2,940.7 1026,934.7 1043.7,930.8 1066.6,931 				"/>
				<path class="st35" d="M968.1,926.4C968.1,926.4,968.1,926.4,968.1,926.4c0,0.4,0.1,1.8,0.4,3.1c0.1,0.5,0.3,1,0.4,1.4
					c0,0.1,0.1,0.2,0.1,0.2c0.1,0.2,0.1,0.3,0.2,0.5c0,0.1,0.1,0.2,0.1,0.3c0.1,0.1,0.2,0.3,0.2,0.4c0,0.1,0.1,0.2,0.1,0.2
					c0.1,0.2,0.2,0.5,0.4,0.7c0.1,0.1,0.1,0.2,0.2,0.3c0.1,0.1,0.1,0.2,0.2,0.3c0.1,0.1,0.2,0.2,0.3,0.3c0.1,0.1,0.1,0.1,0.2,0.2
					c0.1,0.1,0.3,0.3,0.4,0.5l0.2,0.1c0.1,0.1,0.2,0.2,0.3,0.3c0.1,0,0.2,0.1,0.2,0.1c0.1,0.1,0.3,0.2,0.4,0.3c0.1,0,0.1,0,0.1,0
					c0.2,0.1,0.4,0.2,0.6,0.3c0.1,0,0.1,0,0.2,0.1c0.2,0,0.3,0.1,0.5,0.1c0.1,0,0.1,0,0.2,0c0.2,0,0.4,0.1,0.6,0.1
					c3.1,0.1,7.6,0.2,12,0.3c4.4,0.1,8.9,0.3,12.1,0.3c0.8,0,1.5,0,2,0c0.2,0,0.4,0,0.6,0l0.7,0c0.2,0,0.3,0,0.5-0.1l1-0.1
					c0.1-0.1,0.3-0.1,0.4-0.1c0.3,0,0.5-0.1,0.7-0.1l0.4,0c0.3-0.1,0.5-0.1,0.8-0.1l0.3,0c0.3-0.1,0.6-0.1,1-0.2
					c0.1,0,0.1,0,0.2-0.1c0.4,0,0.7-0.1,1.1-0.2c5.8-0.9,13.6-2.4,19.9-3.7c6.3-1.3,11.2-2.4,11.2-2.4s27.3,1,27.4,0.7
					c0-3.5-0.1-6.6-0.2-9.5l-0.1-1.1c-1-16.6-4.2-22.2-4.2-22.2s-1.2,9.5-15.3,7.6c-9.8-1.3-13.3-10.8-14.3-14.6
					c-0.3-1-0.4-1.6-0.4-1.6l-4.8-0.2l-11.4-0.3l-4.2-0.1c0,0-0.2,1.3-0.5,3l0,0.1c0,0.3-0.1,0.5-0.2,0.7c0,0.1,0,0.1,0,0.2
					c0,0.3-0.1,0.5-0.2,0.8c0,0.1,0,0.1,0,0.2c0,0.3-0.1,0.5-0.2,0.8c0,0.1,0,0.1,0,0.1c-0.1,0.3-0.2,0.6-0.2,0.9c0,0.1,0,0.1,0,0.2
					c-0.1,0.3-0.2,0.6-0.2,0.8c-0.1,0,0,0.1,0,0.1c-0.1,2.7-2.7,5.6-2.7,5.6c-4.9,6.1-14.1,15.2-14.1,15.2s-6.7,1-12.9,0.8
					c-6.2-0.1-12.1,2.1-12.3,7.4C968.1,926,968.1,926.2,968.1,926.4z"/>
				<path class="st31" d="M1009.9,897.8c0,0,18.6,4.3,29.4,8.1c10.8,3.9,26.8,14.4,26.8,14.4c-1-16.6-4.2-22.2-4.2-22.2
					s-1.1,7.2-15.2,5.3c-9.8-1.3-12.3-10.5-13.3-14.3l-22.1-0.6L1009.9,897.8z"/>
			</g>
			<g>
				<g>
					<g>
						<path class="st1" d="M1008.4,895.1c-1.9,0-11.2-360.4-11.2-360.4l59.7-5.5l4.6,23c1.7-1.5,5.4,10.2,5.4,10.2l-1.5,332.7
							C1065.5,895.1,1015.4,895.1,1008.4,895.1z"/>
					</g>
					<path class="st1" d="M1063.8,632.1c-0.6,13.7-10.9,4.7-24.4,2.7l-50.8-15.6l-20.6-6.3c-6.2-0.9-11.2-1.9-14.8-3.9
						c-4.1-2.4-6.3-6.4-6.3-13.7v-68.8l50.6,25.2l6.8,3.4l55.3,27.6L1063.8,632.1z"/>
					<path class="st36" d="M948.9,555.2c0,0-0.3-0.5-0.6-1.1C948.2,554.8,948.9,555.2,948.9,555.2z"/>
					<path class="st37" d="M1066.7,373.7v218.5c0,0-22.4-42.1-78.6-42.6c-34.4-0.3-39.6,2.7-39.8,4.5c-0.4-0.9-0.9-2-0.9-2.7
						c-0.1-2-0.2-7.7-0.4-16c-0.5-21-1.3-58.3-2-91.7c-0.8-36.9-1.5-69-1.5-69c0-13.3,5.9-25.3,15.5-31.5c0.3-0.2,0.6-0.4,0.9-0.5
						c3-1.8,6.3-3.1,9.9-3.7c0.7-0.1,1.4-0.2,2.2-0.3c0.8-0.1,1.6-0.1,2.4-0.1h56.3c3.9,0,7.5,2.4,10.9,2.4
						C1056.8,340.9,1066.7,357.7,1066.7,373.7z"/>
					<path class="st1" d="M946.8,535.3c0.2,8.3-0.2,32.4,0.2,33.2c0.2-1.7,5-5.7,39.4-5.4c56.1,0.4,80.3,29.2,80.3,29.2V530
						c-0.1-2.2-0.1-3-0.1-1.8c0,5.8-45.4,10.5-45.4-2.9c0-20.5,0.4-88.3,0-109.6c-0.2-10.1-0.1-5.7-0.1-10.4h-69.3v126
						C951.8,533.9,950.7,533.9,946.8,535.3z"/>
					<g>
						<path class="st38" d="M970.9,620.8c0-0.1,0-0.1,0-0.2C971,620.7,971,620.7,970.9,620.8z"/>
						<path class="st38" d="M971,618.9C971,618.9,971,618.9,971,618.9C971,618.9,971,618.9,971,618.9z"/>
						<path class="st38" d="M971,617c0,0,0,0.1,0,0.1C971,617.1,971,617.1,971,617z"/>
						<path class="st38" d="M970.3,626.8c0-0.1,0-0.3,0.1-0.4C970.3,626.5,970.3,626.7,970.3,626.8z"/>
						<path class="st38" d="M970.6,624.6c0-0.1,0-0.1,0-0.2C970.6,624.5,970.6,624.6,970.6,624.6z"/>
						<path class="st38" d="M970.8,622.8c0-0.1,0-0.2,0-0.3C970.8,622.6,970.8,622.7,970.8,622.8z"/>
					</g>
				</g>
				<path class="st1" d="M1030.4,338.1c-20,0-24.4,47.4-24.1,68.4l6.9,0.4l7.9-0.4c-0.3-21,2.7-68.6,25.4-65.2c0,0-3.4-1.7-6.9-2.2
					C1036,338.6,1030.4,338.1,1030.4,338.1z"/>
				<path class="st1" d="M985.3,341.6c-1.4,0.5-2.6,1.3-3.8,2.3c-12.4,10.6-15.4,47.3-15.2,63.9l-8.6-0.7l-5.9,0.7
					c-0.2-17.2,2.7-53.4,14.6-66.1c1.1-1.1,2.2-2,3.3-2.8c1.9-1.1,3.9-1.8,6.2-1.8c0,0,5.4-0.5,8.9,0c0.1,0,0.3,0,0.4,0.1v3
					C985.1,340.2,985.1,340.8,985.3,341.6z"/>
			</g>
		</g>
		<path class="st1" d="M988.8,619.4l-19.6,275.2l-10,0.5h-24.7c-1.3,0,6.9-169.4,11-278c0.6-14.8,1-28.6,1.4-40.5
			c0-1,0.1-2.1,0.1-3.1l19.5,21.4l22.1,24.3L988.8,619.4z"/>
		<polygon class="st34" points="991.8,638.7 978.2,614.3 999.2,622.8 		"/>
		<g>
			<path class="st34" d="M1006,424.7v15.5c0,6-4.9,11-11,11h-19.4c-6,0-11-4.9-11-11v-15.5"/>
		</g>
		<path class="st39" d="M987.6,342.7c0,1.5,2.1,6.5-2.7,3c-0.9-0.6-2-1.2-3.4-1.8c-4-1.5-9.7-2.4-15.1-2.2c-2.3,0.1-4.5,0.4-6.5,0.9
			c3-1.8,6.3-3.1,9.9-3.7c1.9-1.1,3.9-1.8,6.2-1.8c0,0,5.4-0.5,8.9,0c0.1,0,0.3,0,0.4,0.1v1.3h3.1
			C987.9,340.9,987.6,342.7,987.6,342.7z"/>
	</g>
	<rect x="964.6" y="419.3" class="st40" width="41.4" height="8.2"/>
	<g>
		<path class="st41" d="M1007.2,402.3c-1.2,0-2.2-1-2.2-2.2v-9.3c0-1.2,1-2.2,2.2-2.2h13.2c1.2,0,2.2,1,2.2,2.2v9.3
			c0,1.2-1,2.2-2.2,2.2H1007.2z"/>
	</g>
	<g>
		<path class="st41" d="M952.3,402.3c-1.2,0-2.2-1-2.2-2.2v-9.3c0-1.2,1-2.2,2.2-2.2h13.2c1.2,0,2.2,1,2.2,2.2v9.3
			c0,1.2-1,2.2-2.2,2.2H952.3z"/>
	</g>
	<g>
		<path class="st1" d="M1007.8,397.2c-0.8,0-1.5-0.7-1.5-1.5v-1.9c0-0.8,0.7-1.5,1.5-1.5h7.9c0.8,0,1.5,0.7,1.5,1.5v1.9
			c0,0.8-0.7,1.5-1.5,1.5H1007.8z"/>
	</g>
	<g>
		<path class="st1" d="M953.1,397.2c-0.8,0-1.5-0.7-1.5-1.5v-1.9c0-0.8,0.7-1.5,1.5-1.5h7.9c0.8,0,1.5,0.7,1.5,1.5v1.9
			c0,0.8-0.7,1.5-1.5,1.5H953.1z"/>
	</g>
	<path class="st34" d="M1021.3,471.3c0,20.5-0.2,40.9-0.2,51.8c-17.7,9.8-37.7,20.6-37.7,20.6l-22.4-39.4c0,0,49.6-26.4,59.1-32.3
		C1020.5,471.8,1020.9,471.5,1021.3,471.3z"/>
	<path class="st30" d="M1044.9,509.5c-4.5,2.8-13.8,8.1-23.8,13.6c0-10.9,0.1-31.2,0.2-51.8c8.4-5.2,10.2-6.4,10.2-17.3
		c0-5.1,0-14.2,0-14.2V434c6.3,0,21.6,1.9,22.4,5.4c0,0,3.2-2.4,3.2,18.5S1057.5,501.6,1044.9,509.5z"/>
	<path class="st34" d="M1005.9,553.3c-0.4,0.4-0.9,1-1.6,1.6c-6.5,6.8-23.4,24.6-37.9,39.9c-4.9,5.1-9.5,10-13.3,14
		c-3.3,3.4-5.9,6.3-7.7,8.2c0.6-14.8,1-28.6,1.4-40.5V541l50.6,10.6L1005.9,553.3z"/>
</g>
<g>
	<path class="st42" d="M963.6,498.5c2.1-0.4,7.6-2.2,13.8-2.2c2.4,0,7.4,0.7,7.9,1.5c3.3,5.3-1,7-3,8.3c-2,1.3-3.4,2.9-4.8,2.7
		c-1.4-0.2-9.8-0.8-10.8-2.6c-1-1.8-4.2-5.9-4.4-7.2C962.1,497.7,963.6,498.5,963.6,498.5z"/>
	<path class="st43" d="M932,468c1.8-4.7,7.9-5.2,12.3-1.2c8.9,8.2-9.8,20.9-11.2,25.7l18.7,10.3c0,0-14.1-9.5-13.9-9.2
		c0.1,0.4-11-22.1-11-22.1L932,468z"/>
	<path class="st44" d="M857.9,477.5l1.3-4.1c0.1-0.5,0.6-0.9,1.6-0.9H943c1.6,0,3.8,1,4.8,2.3l63.4,76.3c0.5,0.6,0.7,1.2,0.4,1.6
		l-1.4,4.2l-4.4-3.6H928c-1.6,0-3.8-1-4.8-2.3l-61.3-73.7l0.3,1L857.9,477.5z"/>
	<polygon class="st45" points="939.3,472.5 936.8,476.9 930.3,476.9 931.2,472.5 	"/>
	<g>
		<path class="st46" d="M922.1,555.9c0.8,1,2.6,1.8,3.9,1.8h83.3c1.3,0,1.7-0.8,0.9-1.8L946,478.8c-0.8-1-2.6-1.8-3.9-1.8h-83.3
			c-1.3,0-1.7,0.8-0.9,1.8L922.1,555.9z"/>
	</g>
	<path class="st47" d="M864.7,473.1c0.2,0.8,0.6,1.6,1.1,2.5c2,3.4,7.2,7.5,10.5,11.9c22.1,29.5,41.2,58.5,43.4,70.9
		c0,0,43.7-0.7,66.4,3.7c0,0-1.6-27.6-43.2-77.3c-3.9-4.7-7.2-6.8-8.6-11.6c-1.3-4.7,1.2-8.9,6.6-8.9l-68.1,2.7
		C867.6,466.9,863.3,468.2,864.7,473.1z"/>
	<path class="st48" d="M862.3,472.9c0.2,0.8,0.6,1.6,1.1,2.5c2,3.4,7.2,7.5,10.5,11.9c7.5,9.9,13.7,20,18.8,29.4
		c3.2,5.9,6,11.6,8.3,16.8c5,11.2,5.6,27,6.6,32.6c0,0,46-7.2,68.8-2.8c0,0,5.8-29.1-35.8-78.8c-3.9-4.7-7.2-6.8-8.6-11.6
		c-1.2-4.4,0.9-8.5,5.8-8.9l-67.3,2.7C865.2,466.8,860.9,468,862.3,472.9z"/>
	<path class="st12" d="M862.3,472.9c4.9,0.4,66.9,0.2,69.7,0.1c-1.3-4.7,1.2-8.9,6.6-8.9h-69C864.4,464.1,860.9,468,862.3,472.9z"/>
	<path class="st49" d="M962.8,509c-6.3-0.6-15.2-1-13.7,2.1c1.5,3.1,3,5.6,6.5,6.6c3.5,1,4.6,8.9,15.6,10.5
		c11.1,1.6,15.9,0.1,15.9,0.1l-20.7-24.4L962.8,509z"/>
</g>
<g>
	<path class="st42" d="M1062.1,377.6L1062,415l-0.1,29.9l-0.1,19.9c0,10.3-6.6,21.5-15.5,26.6l-56.2,32.3c-2,1.2-4.2,1.7-6.4,1.7
		c-4.5,0-8.8-2.3-11.2-6.5c-3.5-6.2-1.4-14,4.7-17.6l56.2-32.3c1-0.6,2.5-3.2,2.6-4.4l0.1-25.4l0.1-24.2l0.2-37.5
		c0-7.1,5.8-12.8,12.9-12.8h0.1C1056.4,364.7,1062.2,370.5,1062.1,377.6z"/>
	<polygon class="st50" points="1062,415 1061.8,444.8 1036.1,439.2 1036.2,415 	"/>
</g>
<path class="st30" d="M1044.7,224.9c7.5,9.8,11.8,19,10.2,24.8c-2,7.5-12.9,5.4-57.3,3.1c-44.4-2.4-63.4-16.2-54.3-39.3
	C948.7,199.5,1044.7,224.9,1044.7,224.9z"/>
<g>
	<path class="st1" d="M1048.9,252.3c-2,27.6-8.8,35.1-19.6,35.1c-8.9,0-16.2-12.2-15.9-15.1c0.3-2.9,3.5-19.7,6-20.6
		C1022,250.7,1048.9,252.3,1048.9,252.3z"/>
	<path class="st1" d="M1023.7,281.5c1.8-3.5,2.8,7.7,2.9,6.3c0.4-23.5,20.6-6,22.2-32.1c1.4-22.2,1.5-22.4,2.1-33.2
		c1.2-21.4-11.3-44.2-57.1-43.8c-25.5,0.2-32.1,10.1-37.8,23.1c-10.7,24.2-2.1,55.3-2.1,55.3L1023.7,281.5z"/>
	<path class="st42" d="M982.4,340.2c0,0-0.3,9.1,14.4,9.1c14.7,0,23.9-9.1,23.9-9.1l0-44.9l-38.3-2.1L982.4,340.2z"/>
	<path class="st29" d="M982.4,330.6c10,1.2,38.1-2.4,38.1-9c0-6.6,0.3-35.9,0.3-35.9l-38.3,0.3L982.4,330.6z"/>
	<path class="st29" d="M949.3,271.4c0,8.8,7.7,29.2,12.5,35.3c2,2.6,4.8,8.5,11.3,10.5c5.9,1.8,9.4,3,9.4,6.2c0,3.4,7.2-3.2,9.7-3.2
		c29.4,0,43.9-31.6,43.9-53.2l-9.1-28.3c0-23.6-15.7-40.6-38.5-40.4c-22.8,0.2-41.2,15.7-41.2,39.3L949.3,271.4z"/>
	<path class="st42" d="M946.8,236.6l0.3,9.4l0.2,5.3l0.6,20.1c0.9,24.8,6.4,47.6,36.5,47.4c30-0.2,38.1-36.5,37.2-60.1l-1.4-20.5
		c0-0.9,0-1.7-0.1-2.5c-0.6-30.7-13.1-42-35.2-42c-27.6,0-37.4,16.2-38.2,37C946.7,232.6,946.7,234.6,946.8,236.6z"/>
	<g>
		<path class="st29" d="M973.5,277.1c-4.3,0-7.9-2.4-7.7-4.9c0.1-0.9,1-2,2.6-1.2c0.8,0.4,2.9,0.8,5.1,0.8c2.2,0,3.4-0.5,4.7-0.8
			c2.7-0.8,3.6,0.3,3.6,1.2C982,274.6,977.8,277,973.5,277.1z"/>
	</g>
	<path class="st29" d="M1021.2,256.5c-0.6,8.8,3.8,16.4,10,16.9s11.6-6.2,12.2-15c0.6-8.8-2.8-15.6-8.9-16.7
		C1028.5,240.6,1021.8,247.7,1021.2,256.5z"/>
	<path class="st51" d="M995.2,254.6c0,2.1-1.7,3.8-3.8,3.8c-2.1,0-3.8-1.7-3.8-3.8c0-2.1,1.7-3.8,3.8-3.8S995.2,252.5,995.2,254.6z"
		/>
	<path class="st51" d="M961.5,255.2c0,2.1-1.7,3.8-3.8,3.8s-3.8-1.7-3.8-3.8c0-2.1,1.7-3.8,3.8-3.8
		C959.8,251.4,961.5,253.1,961.5,255.2z"/>
	<path class="st52" d="M1024.8,239.5"/>
	<path class="st52" d="M1010.5,236.8"/>
	<line class="st53" x1="1001.8" y1="239.1" x2="984.6" y2="238.7"/>
	<line class="st53" x1="963.3" y1="239.3" x2="948.5" y2="240.4"/>
	<path class="st1" d="M1030.4,235c0-13.4-6-25.3-15.3-33.1c4.5-5.6,6.1-13.9,5.2-14.7c-1.6-1.3-22.2-16.6-46.5-2.5
		c-16.6,9.6-24.3,16.1-21.4,22.9c0,0.1-0.1,0.2-0.1,0.2c0,0,0.1-0.1,0.1-0.2c2.6,6.1,8.3,10,13.4,10c21.3,0,20.8-12.5,36.7-11.3
		c6.2,0.5,14.7,2,14.7,17.5c0,16.8,3.6,36.7,3.7,36.7c5,0.3,5-2.9,5-2.9c0-8.9,1.3-13.9,7-16.5L1030.4,235z"/>
</g>
<path class="st54" d="M967.6,291.7c2.5,1.7,6.3,2,9.5,2c3.3,0,8.6-0.3,11.1-2"/>
<path class="st55" d="M946.7,233.7c0-0.1,0-0.2,0-0.3c0.1-22.1,9.5-39.8,38.3-39.8c22.1,0,31.5,15.3,33.2,47.2
	c-0.4-4.5-8.3-6.2-18.7-7.8c-43.5-2.4-52.5,12.9-52.5,12.9l-0.2-5.4l-0.1-3.9C946.7,235.6,946.7,234.7,946.7,233.7z"/>
<g>
	<path class="st56" d="M1049.1,249.9c0,1.9,3-1.5,3.4-3c0.7-2.1,1.7-4.1,0.1-5.8c-0.8-0.9-20.8-21.3-74.9-21.3
		c-23.6,0-30.6,2.2-32.9,9.5c-2.2,7.2,2.2,13.4,2,12.2c-0.3-2-0.7-6.6,1.2-9c0,0,2.3-4.6,29.7-4.6c50.6,0,68.8,18.6,69,18.7
		C1047.6,247.6,1049.3,248.8,1049.1,249.9z"/>
</g>
<path class="st37" d="M944.8,222.2c1.9-1.5,3.9-1.8,7.9-1.7c1.5,0,3.2,0.1,5.3,0.1c2.8,0.1,6.3,0.2,10.8,0.2
	c18.9,0,38.1,2.8,53.7,7.5c15.7,4.7,27.5,12.7,31.6,19.7c1.2,0.9,2.6-7.8,3.3-16.9c0.2-3,0.4-6,0.4-8.8c0-0.6,0-1.2,0-1.8
	c0-4.3-0.5-8.7-1.6-12.8c-4-15.3-15.7-28.7-36.1-35.1c-2.3-0.7-4.7-1.4-7.3-1.9c-1.4-0.3-2.9-0.6-4.4-0.8c-0.1,0-0.2-0.1-0.3-0.1
	c-2.9-0.4-6-0.8-9.2-1c-0.2,0-0.4,0-0.5,0c-1.2-0.1-2.4-0.1-3.6-0.1c-7.3-0.1-10.7,0.3-16.3,2.1c-3.7,1.2-6,4.2-6.3,4.4
	c-14.2,5.2-20.5,12.6-25,22.6C941.8,210.4,942.2,222,944.8,222.2z"/>
<path class="st57" d="M952.7,220.5c0.3,1.1,0.8,1.7,1.3,1.7c1.2-0.9,2.4-1.4,4-1.6c3.4-0.4,8.8,0.2,20,0.2l10.9-0.3
	c-2.7-0.2-3.2-12.6,2.7-25.9c3.8-8.7,13.8-22.6,22.9-23.5c-1.4-0.3-4.6-0.9-6.1-1.1c-0.1,0-0.2-0.1-0.3-0.1c-2.9-0.4-6-0.8-9.2-1
	c-5.2,0.3-9.8,1.3-14,2.7c-0.4,0.1-0.8,0.3-1.2,0.4c-14.2,5.2-22.8,15.8-27.3,25.8C952.3,207.6,951.6,216.8,952.7,220.5z"/>
<path class="st37" d="M952.7,197.9c4.4-10.1,15-22.3,28.2-28c0.4-0.2,0.8-0.3,1.2-0.4c5.5-1.9,12.7-1.5,19.9-1.4
	c1.2,0,2.4,0,3.6,0.1c2.5,0.2,5.1,0.6,7.5,0.9c-2.4,0.3-4.7,1.1-5.8,1.5c-8.7,3.6-15.9,15-19.6,23.4c-5.9,13.2-5.3,26.4-2.6,26.6
	l-10.9,0.3c-16.7,0-20.4-1.4-24,1.4C947.7,222,947.2,210.4,952.7,197.9z"/>
<path class="st30" d="M1054.9,249.5c-3.5-7.7-16.7-16.4-32.4-21.2c-15.5-4.7-34.8-7.5-53.7-7.5c-16.7,0-20.4-1.4-24,1.4
	c-2.5-0.2-3-11.9,2.5-24.3c4.4-10.1,10.4-17.4,24.6-22.6c-12.1,7.4-14.6,27.8-14.9,34c-0.1,2.5,13.7,0.3,54.6,10.3
	C1044.2,227.6,1061.6,239.7,1054.9,249.5z"/>
<path class="st37" d="M917.8,216c0,0,21.1,4.8,27.8,6.6c0,0,1.6-1.2,6.4-2.3c4.2-0.9,10.7-1.8,20.7-1.8c5.8,0,14.6,1.5,22.7,3.2
	c10.6,2.2,20.1,4.8,20.1,4.8l0.8-5.4c0,0-6-4.1-20.9-7.7c-10.1-2.4-24.2-4.6-43.4-5c-2.5-0.1-5.1-0.1-7.8-0.1
	c-17.7,0-25,1.2-26.3,2.9C917.4,212,917.8,216,917.8,216z"/>
<path class="st27" d="M952.1,208.4v11.9c4.2-0.9,10.7-1.8,20.7-1.8c5.8,0,14.6,1.5,22.7,3.2v-8.3C985.4,211,971.3,208.9,952.1,208.4
	z"/>
<path class="st30" d="M944.3,212.4c53.6,0,71.9,14.2,71.9,14.2s-21.7-4.1-43.4-4.1c-21.7,0-27.1,4.1-27.1,4.1
	C932.8,223.2,890.7,212.4,944.3,212.4z"/>
<path class="st42" d="M1005.5,507.5l-8.9-5.9l-9.2-2.4c-3.2,0.9,4.2-6.4,1-4.5c-4.3,2.5-21.5,13.3-29.3,11.7
	c-2.7-0.5-6.7,1.3-2.9,8.1c3.8,6.8,17.9,16.9,34.4,9C1007.2,515.5,1005.5,507.5,1005.5,507.5z"/>
<path class="st28" d="M805.9,378.5c-1.1-1.1-3.3-1.8-2.6-4.4c0.7-2.6,2.8-6,8.7-4.9c5.9,1.1,12.2,4.7,11.9,5.4
	c-0.3,0.7-0.7,3.4-1.1,4.1s-1.8,2.6-1.8,2.6s-1.7,1.4-3.3,1.5c-1.6,0.1-4.6,0-6.1-0.5C810,381.9,805.9,378.5,805.9,378.5z"/>
<path class="st58" d="M831.6,359.8c2,10.2,6.7,41.1,6.7,41.1c0.3,1.9-1.4,2.3-3.3,2.7l-16.3,3.1c-1.9,0.4-4,1.2-4.8-0.6l-0.6-1.4
	c-0.7-1.8-0.3-4.5,1.1-5.9l0.6-0.7c1.3-1.4,1.8-4.1,1-5.9l-11.1-26.9c-0.7-1.8,0.2-3.4,2.2-3.6L831.6,359.8z"/>
<path class="st59" d="M819,376c-0.1,2.1,0.6,5.5,6.3,6.5c5.7,1,10.1,3.2,11.4,8.5c0.2,0.7,1.9-6,1.9-8.7c0-2.7-1.1-4-1.1-4
	s-8.4-5.6-12.7-5.2C820.5,373.6,819.1,374.2,819,376z"/>
<path class="st60" d="M802.9,366.1c1,4.1,2.1,10.5,11.5,10.5c7.1,0,2.4-6.9,1-8.7c-1.4-1.8-3.9-5.1-4.5-5.1S802.9,366.1,802.9,366.1
	z"/>
<path class="st59" d="M838.2,401.4c-0.1,0-0.4-2.5-0.4-2.2c0.1,2.1-6.2,2.8-14.3,4.4c-1.8,0.4-2.9-3-1.2-5.4
	c2.8-4.1,1.2-12.5-1.8-20.1c-3.1-8.2-3-7.3,12.8-7.3c0,0,0,0,0,0c-0.7-4.4-1.4-8.2-1.9-10.8c-0.3,0-0.5,0-0.8,0l-23.7,1.9
	c-1.9,0.2-2.9,1.8-2.2,3.6l11.1,26.9c0.7,1.8,0.3,4.5-1,5.9l-0.6,0.7c-1.3,1.4-1.8,4.1-1.1,5.9l0.6,1.4c0.7,1.8,2.9,2.9,4.8,2.5
	l16.7-3.5C837,404.8,838.3,403.2,838.2,401.4z"/>
<g>
	<path class="st61" d="M846.5,366.4c0.4,0.9-0.9,1.7-3,1.7h-21c-2.1,0-5.5-0.4-7.5-1l-12.9-3.4c-2-0.5-5.4-1.4-7.4-1.9l-1.5-0.4
		c-2-0.5-4.8-2.3-6-4l-10.7-14c-1.3-1.7-0.6-3,1.5-3l19.6,0c2.1,0,5.5,0.3,7.6,0.6l28.1,4.8c2.1,0.4,4.5,2.2,5.4,4.1l5.5,11.4
		C845,363.2,846.1,365.5,846.5,366.4z"/>
</g>
<path class="st62" d="M844.1,368c-4.5,0-25.4,0.1-25.4,0.1l-20.3-5.3l11.9-4.7c2.4-0.4,3.1-4.7,5.3-0.2c2.2,4.5,3.7,6.9,13.6,6.9
	c0,0,16.2-0.5,16.5,0C846.3,365.7,848,368,844.1,368z"/>
<polygon class="st63" points="804.3,345.2 823.3,345.2 806.3,342.3 786.8,342.3 "/>
<path class="st64" d="M779.8,352.5c0,0-37.2,7.5-44,8.8c-9.5,1.7-9.5-21.8-0.5-20.8c7.9,0.9,44.5,6.6,44.5,6.6V352.5z"/>
<g>
	<path class="st62" d="M818.6,364.6c0.9,1.9-0.1,3.3-2.2,3.1l-38.4-3.4c-2.1-0.2-3.8-2.1-3.8-4.2v-16c0-2.1,1.7-3.5,3.8-3.2
		l28.7,4.7c2.1,0.3,4.5,2.2,5.3,4.1L818.6,364.6z"/>
</g>
<g>
	<path class="st28" d="M821,386.4c0,3.2-0.9,5.9-3.4,6.6c-6.8,1.9-10.3,0.5-12.3-7.5c-0.7-2.7-2.8-7.9-1.9-11.7c0.6-2.6,2.2-1,4.7-1
		c0,0,0,0,0,0c0.3,0,0.5,0,0.8,0c2.9-0.3,7.7-1,9.2,1.5C819.3,376.3,821,381.9,821,386.4z"/>
</g>
<path class="st28" d="M841.4,385.5c-0.3-2.5-3.3-12-7.2-12.7c-3.8-0.7-7.1-0.7-11.6-0.1c-1.9,0.2-2.3,1.8-2.1,3.2
	c0.2,1.6,1.9,3.7,4.7,3.7c6.2-0.1,10.3,4.5,11.4,10.8c0.9,5.2,4.4,0.7,5.2,0c0.8-0.7,1.6-2.4,1.6-2.4L841.4,385.5z"/>
<path class="st65" d="M821,386.4c0,3.2-0.9,5.9-3.4,6.6c-6.8,1.9-10.3,0.5-12.3-7.5c-0.7-2.7-2.8-7.9-1.9-11.7c0.6-2.6,2.2-1,4.7-1
	c-1.6,0.6-0.3,6.7,1,10.5c1.3,4,2.8,7.7,6.4,7.1c3.5-0.7,5.3-0.4,5.5-3.8C821,386.7,821,386.5,821,386.4z"/>
<path class="st37" d="M1049.5,342.6c0,0-0.1,4.7-0.1,4.7c-9.2,0-17.9,7.5-18,16.7v70.2l34.2,0.2l0.6-70.2
	C1066.3,354.9,1058.4,344.3,1049.5,342.6z"/>
<path class="st66" d="M952.7,507.9c3.1,0.7,9,3.1,20.1-1.6"/>
<path class="st67" d="M813.6,421.6"/>
<path class="st67" d="M916.2,393.7"/>
<path class="st29" d="M1028.4,256c-0.4,7.8,2.6,14.5,6.8,15s7.9-5.5,8.4-13.3s-1.9-13.9-6.1-14.9
	C1033.4,241.9,1028.8,248.2,1028.4,256z"/>
<g>
	<polygon class="st18" points="545.3,694.1 617.9,694.1 617.9,697.6 600.1,697.6 	"/>
</g>
<g>
	<g>
		<rect x="741.9" y="245" class="st26" width="2.5" height="8.1"/>
		<rect x="736.9" y="245" class="st26" width="2.5" height="8.1"/>
		<rect x="731.9" y="245" class="st26" width="2.5" height="8.1"/>
	</g>
	<g>
		<rect x="751.8" y="245" class="st26" width="2.5" height="8.1"/>
		<rect x="746.8" y="245" class="st26" width="2.5" height="8.1"/>
	</g>
</g>
<g>
	<g>
		<rect x="741.9" y="138.7" class="st26" width="2.5" height="8.1"/>
		<rect x="736.9" y="138.7" class="st26" width="2.5" height="8.1"/>
		<rect x="731.9" y="138.7" class="st26" width="2.5" height="8.1"/>
	</g>
	<g>
		<rect x="751.8" y="138.7" class="st26" width="2.5" height="8.1"/>
		<rect x="746.8" y="138.7" class="st26" width="2.5" height="8.1"/>
	</g>
</g>
<g>
	<g>
		<rect x="900.1" y="138.7" class="st26" width="2.5" height="8.1"/>
		<rect x="895.1" y="138.7" class="st26" width="2.5" height="8.1"/>
		<rect x="890.1" y="138.7" class="st26" width="2.5" height="8.1"/>
	</g>
	<g>
		<rect x="910.1" y="138.7" class="st26" width="2.5" height="8.1"/>
		<rect x="905.1" y="138.7" class="st26" width="2.5" height="8.1"/>
	</g>
</g>
<g>
	<g>
		<rect x="900.1" y="245" class="st26" width="2.5" height="8.1"/>
		<rect x="895.1" y="245" class="st26" width="2.5" height="8.1"/>
		<rect x="890.1" y="245" class="st26" width="2.5" height="8.1"/>
	</g>
	<g>
		<rect x="910.1" y="245" class="st26" width="2.5" height="8.1"/>
		<rect x="905.1" y="245" class="st26" width="2.5" height="8.1"/>
	</g>
</g>
<g>
	<g>
		<rect x="900.1" y="354.3" class="st26" width="2.5" height="8.1"/>
		<rect x="895.1" y="354.3" class="st26" width="2.5" height="8.1"/>
		<rect x="890.1" y="354.3" class="st26" width="2.5" height="8.1"/>
	</g>
	<g>
		<rect x="910.1" y="354.3" class="st26" width="2.5" height="8.1"/>
		<rect x="905.1" y="354.3" class="st26" width="2.5" height="8.1"/>
	</g>
</g>
<g>
	<g>
		<rect x="900.1" y="455.8" class="st26" width="2.5" height="8.1"/>
		<rect x="895.1" y="455.8" class="st26" width="2.5" height="8.1"/>
		<rect x="890.1" y="455.8" class="st26" width="2.5" height="8.1"/>
	</g>
	<g>
		<rect x="910.1" y="455.8" class="st26" width="2.5" height="8.1"/>
		<rect x="905.1" y="455.8" class="st26" width="2.5" height="8.1"/>
	</g>
</g>
<g>
	<g>
		<rect x="742.4" y="455.8" class="st26" width="2.5" height="8.1"/>
		<rect x="737.4" y="455.8" class="st26" width="2.5" height="8.1"/>
		<rect x="732.4" y="455.8" class="st26" width="2.5" height="8.1"/>
	</g>
	<g>
		<rect x="752.3" y="455.8" class="st26" width="2.5" height="8.1"/>
		<rect x="747.3" y="455.8" class="st26" width="2.5" height="8.1"/>
	</g>
</g>
<g>
	<g>
		<rect x="742.4" y="564.5" class="st26" width="2.5" height="8.1"/>
		<rect x="737.4" y="564.5" class="st26" width="2.5" height="8.1"/>
		<rect x="732.4" y="564.5" class="st26" width="2.5" height="8.1"/>
	</g>
	<g>
		<rect x="752.3" y="564.5" class="st26" width="2.5" height="8.1"/>
		<rect x="747.3" y="564.5" class="st26" width="2.5" height="8.1"/>
	</g>
</g>
<g>
	<g>
		<rect x="742.4" y="672.3" class="st26" width="2.5" height="8.1"/>
		<rect x="737.4" y="672.3" class="st26" width="2.5" height="8.1"/>
		<rect x="732.4" y="672.3" class="st26" width="2.5" height="8.1"/>
	</g>
	<g>
		<rect x="752.3" y="672.3" class="st26" width="2.5" height="8.1"/>
		<rect x="747.3" y="672.3" class="st26" width="2.5" height="8.1"/>
	</g>
</g>
</svg>
