<svg xmlns="http://www.w3.org/2000/svg" height="512pt" version="1.1" viewBox="0 0 512 512" width="512pt">
<g id="surface1">
<path d="M 245.699219 111.773438 C 245.699219 120.308594 238.78125 127.226562 230.246094 127.226562 C 221.710938 127.226562 214.792969 120.308594 214.792969 111.773438 C 214.792969 103.242188 221.710938 96.320312 230.246094 96.320312 C 238.78125 96.320312 245.699219 103.242188 245.699219 111.773438 Z M 245.699219 111.773438 " style=" stroke:none;fill-rule:nonzero;fill:rgb(100%,17.254902%,36.078431%);fill-opacity:1;" />
<path d="M 303.390625 404.347656 C 303.390625 412.878906 296.46875 419.800781 287.9375 419.800781 C 279.402344 419.800781 272.484375 412.878906 272.484375 404.347656 C 272.484375 395.8125 279.402344 388.894531 287.9375 388.894531 C 296.46875 388.894531 303.390625 395.8125 303.390625 404.347656 Z M 303.390625 404.347656 " style=" stroke:none;fill-rule:nonzero;fill:rgb(100%,17.254902%,36.078431%);fill-opacity:1;" />
<path d="M 422.324219 222.003906 C 422.324219 230.539062 415.40625 237.457031 406.871094 237.457031 C 398.335938 237.457031 391.417969 230.539062 391.417969 222.003906 C 391.417969 213.46875 398.335938 206.550781 406.871094 206.550781 C 415.40625 206.550781 422.324219 213.46875 422.324219 222.003906 Z M 422.324219 222.003906 " style=" stroke:none;fill-rule:nonzero;fill:rgb(100%,17.254902%,36.078431%);fill-opacity:1;" />
<path d="M 146.800781 288.964844 C 146.800781 297.5 139.882812 304.417969 131.347656 304.417969 C 122.8125 304.417969 115.894531 297.5 115.894531 288.964844 C 115.894531 280.429688 122.8125 273.511719 131.347656 273.511719 C 139.882812 273.511719 146.800781 280.429688 146.800781 288.964844 Z M 146.800781 288.964844 " style=" stroke:none;fill-rule:nonzero;fill:rgb(100%,17.254902%,36.078431%);fill-opacity:1;" />
<path d="M 230.246094 88.820312 C 217.589844 88.820312 207.292969 99.117188 207.292969 111.773438 C 207.292969 121.804688 213.761719 130.347656 222.746094 133.464844 L 222.746094 179.027344 C 222.746094 183.167969 226.105469 186.527344 230.246094 186.527344 C 234.386719 186.527344 237.746094 183.167969 237.746094 179.027344 L 237.746094 133.464844 C 246.730469 130.347656 253.199219 121.804688 253.199219 111.773438 C 253.199219 99.117188 242.902344 88.820312 230.246094 88.820312 Z M 230.246094 119.726562 C 225.859375 119.726562 222.292969 116.160156 222.292969 111.773438 C 222.292969 107.390625 225.859375 103.820312 230.246094 103.820312 C 234.632812 103.820312 238.199219 107.390625 238.199219 111.773438 C 238.199219 116.160156 234.632812 119.726562 230.246094 119.726562 Z M 230.246094 119.726562 " style=" stroke:none;fill-rule:nonzero;fill:rgb(31.372549%,27.843137%,36.862745%);fill-opacity:1;" />
<path d="M 295.4375 382.65625 L 295.4375 327.664062 C 295.4375 323.523438 292.078125 320.164062 287.9375 320.164062 C 283.792969 320.164062 280.4375 323.523438 280.4375 327.664062 L 280.4375 382.65625 C 271.453125 385.773438 264.984375 394.316406 264.984375 404.347656 C 264.984375 417.003906 275.277344 427.300781 287.9375 427.300781 C 300.59375 427.300781 310.890625 417.003906 310.890625 404.347656 C 310.886719 394.316406 304.417969 385.773438 295.4375 382.65625 Z M 287.9375 412.300781 C 283.550781 412.300781 279.984375 408.730469 279.984375 404.347656 C 279.984375 399.960938 283.550781 396.394531 287.9375 396.394531 C 292.320312 396.394531 295.890625 399.960938 295.890625 404.347656 C 295.890625 408.730469 292.320312 412.300781 287.9375 412.300781 Z M 287.9375 412.300781 " style=" stroke:none;fill-rule:nonzero;fill:rgb(31.372549%,27.843137%,36.862745%);fill-opacity:1;" />
<path d="M 385.183594 214.503906 L 327.332031 214.503906 C 323.191406 214.503906 319.832031 217.863281 319.832031 222.003906 C 319.832031 226.144531 323.191406 229.503906 327.332031 229.503906 L 385.183594 229.503906 C 388.296875 238.488281 396.839844 244.957031 406.871094 244.957031 C 419.527344 244.957031 429.824219 234.660156 429.824219 222.003906 C 429.824219 209.347656 419.527344 199.050781 406.871094 199.050781 C 396.839844 199.050781 388.296875 205.519531 385.183594 214.503906 Z M 414.824219 222.003906 C 414.824219 226.390625 411.257812 229.957031 406.871094 229.957031 C 402.484375 229.957031 398.917969 226.390625 398.917969 222.003906 C 398.917969 217.617188 402.484375 214.050781 406.871094 214.050781 C 411.257812 214.050781 414.824219 217.617188 414.824219 222.003906 Z M 414.824219 222.003906 " style=" stroke:none;fill-rule:nonzero;fill:rgb(31.372549%,27.843137%,36.862745%);fill-opacity:1;" />
<path d="M 186 281.464844 L 153.035156 281.464844 C 149.921875 272.484375 141.378906 266.011719 131.347656 266.011719 C 118.691406 266.011719 108.394531 276.308594 108.394531 288.964844 C 108.394531 301.621094 118.691406 311.917969 131.347656 311.917969 C 141.378906 311.917969 149.921875 305.449219 153.035156 296.464844 L 186 296.464844 C 190.140625 296.464844 193.5 293.109375 193.5 288.964844 C 193.5 284.824219 190.140625 281.464844 186 281.464844 Z M 131.347656 296.917969 C 126.964844 296.917969 123.394531 293.351562 123.394531 288.964844 C 123.394531 284.578125 126.960938 281.011719 131.347656 281.011719 C 135.734375 281.011719 139.300781 284.578125 139.300781 288.964844 C 139.300781 293.351562 135.734375 296.917969 131.347656 296.917969 Z M 131.347656 296.917969 " style=" stroke:none;fill-rule:nonzero;fill:rgb(31.372549%,27.843137%,36.862745%);fill-opacity:1;" />
<path d="M 193.5 240.546875 C 193.5 236.40625 190.140625 233.046875 186 233.046875 L 69.3125 233.046875 L 69.3125 111.640625 C 69.3125 107.496094 65.953125 104.140625 61.8125 104.140625 C 57.667969 104.140625 54.3125 107.496094 54.3125 111.640625 L 54.3125 240.546875 C 54.3125 244.6875 57.667969 248.046875 61.8125 248.046875 L 186 248.046875 C 190.140625 248.046875 193.5 244.6875 193.5 240.546875 Z M 193.5 240.546875 " style=" stroke:none;fill-rule:nonzero;fill:rgb(31.372549%,27.843137%,36.862745%);fill-opacity:1;" />
<path d="M 287.9375 195.832031 C 292.078125 195.832031 295.4375 192.476562 295.4375 188.332031 L 295.4375 69.3125 L 414.667969 69.3125 C 418.808594 69.3125 422.167969 65.953125 422.167969 61.8125 C 422.167969 57.667969 418.808594 54.3125 414.667969 54.3125 L 287.9375 54.3125 C 283.792969 54.3125 280.4375 57.667969 280.4375 61.8125 L 280.4375 188.332031 C 280.4375 192.476562 283.792969 195.832031 287.9375 195.832031 Z M 287.9375 195.832031 " style=" stroke:none;fill-rule:nonzero;fill:rgb(31.372549%,27.843137%,36.862745%);fill-opacity:1;" />
<path d="M 450.199219 256.175781 L 327.332031 256.175781 C 323.191406 256.175781 319.832031 259.535156 319.832031 263.675781 C 319.832031 267.816406 323.191406 271.175781 327.332031 271.175781 L 442.699219 271.175781 L 442.699219 388.378906 C 442.699219 392.519531 446.054688 395.878906 450.199219 395.878906 C 454.339844 395.878906 457.699219 392.519531 457.699219 388.378906 L 457.699219 263.675781 C 457.699219 259.535156 454.339844 256.175781 450.199219 256.175781 Z M 450.199219 256.175781 " style=" stroke:none;fill-rule:nonzero;fill:rgb(31.372549%,27.843137%,36.862745%);fill-opacity:1;" />
<path d="M 230.246094 320.167969 C 226.105469 320.167969 222.746094 323.523438 222.746094 327.667969 L 222.746094 440.199219 L 112 440.199219 C 107.859375 440.199219 104.5 443.558594 104.5 447.699219 C 104.5 451.84375 107.859375 455.199219 112 455.199219 L 230.246094 455.199219 C 234.386719 455.199219 237.746094 451.84375 237.746094 447.699219 L 237.746094 327.667969 C 237.746094 323.523438 234.386719 320.167969 230.246094 320.167969 Z M 230.246094 320.167969 " style=" stroke:none;fill-rule:nonzero;fill:rgb(31.372549%,27.843137%,36.862745%);fill-opacity:1;" />
<path d="M 111.261719 123.621094 L 12.363281 123.621094 C 5.535156 123.621094 0 118.085938 0 111.261719 L 0 12.363281 C 0 5.535156 5.535156 0 12.363281 0 L 111.257812 0 C 118.085938 0 123.621094 5.535156 123.621094 12.363281 L 123.621094 111.257812 C 123.621094 118.085938 118.085938 123.621094 111.261719 123.621094 Z M 111.261719 123.621094 " style=" stroke:none;fill-rule:nonzero;fill:rgb(100%,17.254902%,36.078431%);fill-opacity:1;" />
<path d="M 111.261719 0 L 80.355469 0 C 87.179688 0 92.714844 5.535156 92.714844 12.363281 L 92.714844 111.257812 C 92.714844 118.085938 87.179688 123.621094 80.355469 123.621094 L 111.257812 123.621094 C 118.085938 123.621094 123.621094 118.085938 123.621094 111.257812 L 123.621094 12.363281 C 123.621094 5.535156 118.085938 0 111.261719 0 Z M 111.261719 0 " style=" stroke:none;fill-rule:nonzero;fill:rgb(90.196078%,15.294118%,32.54902%);fill-opacity:1;" />
<path d="M 30.90625 88.597656 L 30.90625 35.027344 C 30.90625 32.75 32.75 30.90625 35.027344 30.90625 L 88.59375 30.90625 C 90.871094 30.90625 92.714844 32.75 92.714844 35.027344 L 92.714844 88.59375 C 92.714844 90.871094 90.871094 92.714844 88.59375 92.714844 L 35.027344 92.714844 C 32.75 92.714844 30.90625 90.871094 30.90625 88.597656 Z M 30.90625 88.597656 " style=" stroke:none;fill-rule:nonzero;fill:rgb(40.784314%,36.078431%,47.45098%);fill-opacity:1;" />
<path d="M 324 340.476562 L 188 340.476562 C 178.902344 340.476562 171.523438 333.097656 171.523438 324 L 171.523438 188 C 171.523438 178.902344 178.902344 171.523438 188 171.523438 L 324 171.523438 C 333.097656 171.523438 340.476562 178.902344 340.476562 188 L 340.476562 324 C 340.476562 333.097656 333.097656 340.476562 324 340.476562 Z M 324 340.476562 " style=" stroke:none;fill-rule:nonzero;fill:rgb(67.843137%,90.588235%,100%);fill-opacity:1;" />
<path d="M 324 171.523438 L 293.09375 171.523438 C 302.191406 171.523438 309.570312 178.902344 309.570312 188 L 309.570312 324 C 309.570312 333.097656 302.195312 340.476562 293.09375 340.476562 L 324 340.476562 C 333.097656 340.476562 340.476562 333.097656 340.476562 324 L 340.476562 188 C 340.476562 178.902344 333.097656 171.523438 324 171.523438 Z M 324 171.523438 " style=" stroke:none;fill-rule:nonzero;fill:rgb(50.980392%,82.352941%,96.078431%);fill-opacity:1;" />
<path d="M 202.429688 305.449219 L 202.429688 206.550781 C 202.429688 204.277344 204.277344 202.429688 206.550781 202.429688 L 305.449219 202.429688 C 307.726562 202.429688 309.570312 204.277344 309.570312 206.550781 L 309.570312 305.449219 C 309.570312 307.726562 307.726562 309.570312 305.449219 309.570312 L 206.550781 309.570312 C 204.273438 309.570312 202.429688 307.726562 202.429688 305.449219 Z M 202.429688 305.449219 " style=" stroke:none;fill-rule:nonzero;fill:rgb(100%,17.254902%,36.078431%);fill-opacity:1;" />
<path d="M 111.261719 512 L 12.363281 512 C 5.535156 512 0 506.464844 0 499.636719 L 0 400.738281 C 0 393.914062 5.535156 388.378906 12.363281 388.378906 L 111.257812 388.378906 C 118.085938 388.378906 123.621094 393.914062 123.621094 400.738281 L 123.621094 499.636719 C 123.621094 506.464844 118.085938 512 111.261719 512 Z M 111.261719 512 " style=" stroke:none;fill-rule:nonzero;fill:rgb(30.980392%,69.411765%,96.078431%);fill-opacity:1;" />
<path d="M 111.261719 388.378906 L 80.355469 388.378906 C 87.179688 388.378906 92.714844 393.914062 92.714844 400.738281 L 92.714844 499.636719 C 92.714844 506.464844 87.179688 512 80.355469 512 L 111.257812 512 C 118.085938 512 123.621094 506.464844 123.621094 499.636719 L 123.621094 400.738281 C 123.621094 393.914062 118.085938 388.378906 111.261719 388.378906 Z M 111.261719 388.378906 " style=" stroke:none;fill-rule:nonzero;fill:rgb(27.45098%,64.313725%,90.196078%);fill-opacity:1;" />
<path d="M 30.90625 476.972656 L 30.90625 423.40625 C 30.90625 421.128906 32.75 419.285156 35.027344 419.285156 L 88.59375 419.285156 C 90.871094 419.285156 92.714844 421.128906 92.714844 423.40625 L 92.714844 476.972656 C 92.714844 479.25 90.871094 481.09375 88.59375 481.09375 L 35.027344 481.09375 C 32.75 481.09375 30.90625 479.25 30.90625 476.972656 Z M 30.90625 476.972656 " style=" stroke:none;fill-rule:nonzero;fill:rgb(100%,17.254902%,36.078431%);fill-opacity:1;" />
<path d="M 499.636719 123.621094 L 400.738281 123.621094 C 393.914062 123.621094 388.378906 118.085938 388.378906 111.261719 L 388.378906 12.363281 C 388.378906 5.535156 393.914062 0 400.738281 0 L 499.636719 0 C 506.464844 0 512 5.535156 512 12.363281 L 512 111.257812 C 512 118.085938 506.464844 123.621094 499.636719 123.621094 Z M 499.636719 123.621094 " style=" stroke:none;fill-rule:nonzero;fill:rgb(100%,83.921569%,34.901961%);fill-opacity:1;" />
<path d="M 499.636719 0 L 468.734375 0 C 475.558594 0 481.09375 5.535156 481.09375 12.363281 L 481.09375 111.257812 C 481.09375 118.085938 475.558594 123.621094 468.734375 123.621094 L 499.636719 123.621094 C 506.464844 123.621094 512 118.085938 512 111.257812 L 512 12.363281 C 512 5.535156 506.464844 0 499.636719 0 Z M 499.636719 0 " style=" stroke:none;fill-rule:nonzero;fill:rgb(100%,74.117647%,32.941176%);fill-opacity:1;" />
<path d="M 419.285156 88.597656 L 419.285156 35.027344 C 419.285156 32.75 421.128906 30.90625 423.40625 30.90625 L 476.972656 30.90625 C 479.25 30.90625 481.09375 32.75 481.09375 35.027344 L 481.09375 88.59375 C 481.09375 90.871094 479.25 92.714844 476.972656 92.714844 L 423.40625 92.714844 C 421.128906 92.714844 419.285156 90.871094 419.285156 88.597656 Z M 419.285156 88.597656 " style=" stroke:none;fill-rule:nonzero;fill:rgb(100%,17.254902%,36.078431%);fill-opacity:1;" />
<path d="M 499.636719 512 L 400.738281 512 C 393.914062 512 388.378906 506.464844 388.378906 499.636719 L 388.378906 400.738281 C 388.378906 393.914062 393.914062 388.378906 400.738281 388.378906 L 499.636719 388.378906 C 506.464844 388.378906 512 393.914062 512 400.738281 L 512 499.636719 C 512 506.464844 506.464844 512 499.636719 512 Z M 499.636719 512 " style=" stroke:none;fill-rule:nonzero;fill:rgb(40.784314%,36.078431%,47.45098%);fill-opacity:1;" />
<path d="M 499.636719 388.378906 L 468.734375 388.378906 C 475.558594 388.378906 481.09375 393.914062 481.09375 400.738281 L 481.09375 499.636719 C 481.09375 506.464844 475.558594 512 468.734375 512 L 499.636719 512 C 506.464844 512 512 506.464844 512 499.636719 L 512 400.738281 C 512 393.914062 506.464844 388.378906 499.636719 388.378906 Z M 499.636719 388.378906 " style=" stroke:none;fill-rule:nonzero;fill:rgb(34.901961%,30.980392%,41.176471%);fill-opacity:1;" />
<path d="M 419.285156 476.972656 L 419.285156 423.40625 C 419.285156 421.128906 421.128906 419.285156 423.40625 419.285156 L 476.972656 419.285156 C 479.25 419.285156 481.09375 421.128906 481.09375 423.40625 L 481.09375 476.972656 C 481.09375 479.25 479.25 481.09375 476.972656 481.09375 L 423.40625 481.09375 C 421.128906 481.09375 419.285156 479.25 419.285156 476.972656 Z M 419.285156 476.972656 " style=" stroke:none;fill-rule:nonzero;fill:rgb(100%,17.254902%,36.078431%);fill-opacity:1;" />
</g>
</svg>