<svg height="512pt" viewBox="0 -64 512 512" width="512pt" xmlns="http://www.w3.org/2000/svg"><path d="m432.84375 351.6875h-352.6875v-208.40625c0-4.429688 3.589844-8.015625 8.015625-8.015625h336.65625c4.429687 0 8.015625 3.585937 8.015625 8.015625zm0 0" fill="#8ae0ff"/><path d="m104.203125 135.265625v216.421875h-24.046875v-208.40625c0-4.429688 3.585938-8.015625 8.015625-8.015625zm0 0" fill="#2ac3f2"/><g fill="#fff"><path d="m216.421875 304.09375h16.03125v15.03125h-16.03125zm0 0"/><path d="m248.484375 304.09375h16.03125v15.03125h-16.03125zm0 0"/><path d="m280.546875 304.09375h16.03125v15.03125h-16.03125zm0 0"/></g><path d="m440.859375 375.734375h-368.71875c-4.425781 0-8.015625-3.589844-8.015625-8.015625v-24.046875h152.296875l8.015625 8.015625h64.125l8.015625-8.015625h152.296875v24.046875c0 4.425781-3.585938 8.015625-8.015625 8.015625zm0 0" fill="#95a8b8"/><path d="m8.015625 7.015625h224.4375v240.46875h-224.4375zm0 0" fill="#95a8b8"/><path d="m8.015625 7.015625h48.09375v240.46875h-48.09375zm0 0" fill="#fff"/><path d="m8.015625 7.015625h24.046875v240.46875h-24.046875zm0 0" fill="#f0f0f0"/><path d="m280.546875 7.015625h224.4375v240.46875h-224.4375zm0 0" fill="#e8f4fa"/><path d="m280.546875 7.015625h224.4375v48.09375h-224.4375zm0 0" fill="#95a8b8"/><path d="m280.546875 7.015625h24.046875v48.09375h-24.046875zm0 0" fill="#5b788c"/><path d="m280.546875 55.109375h24.046875v192.375h-24.046875zm0 0" fill="#c0dceb"/><path d="m312.609375 23.546875h16.03125v15.027344h-16.03125zm0 0" fill="#fff"/><path d="m344.671875 23.546875h16.03125v15.027344h-16.03125zm0 0" fill="#fff"/><path d="m376.734375 23.546875h16.03125v15.027344h-16.03125zm0 0" fill="#fff"/><path d="m312.609375 87.171875h160.3125v48.09375h-160.3125zm0 0" fill="#8ae0ff"/><path d="m312.609375 167.328125h48.09375v48.09375h-48.09375zm0 0" fill="#feee87"/><path d="m24.046875 40.078125h16.03125v15.03125h-16.03125zm0 0"/><path d="m72.140625 72.140625h80.15625v15.03125h-80.15625zm0 0"/><path d="m24.046875 72.140625h16.03125v15.03125h-16.03125zm0 0"/><path d="m168.328125 72.140625h32.0625v15.03125h-32.0625zm0 0"/><path d="m128.25 104.203125h72.140625v15.03125h-72.140625zm0 0"/><path d="m72.140625 104.203125h40.078125v15.03125h-40.078125zm0 0"/><path d="m24.046875 104.203125h16.03125v15.03125h-16.03125zm0 0"/><path d="m72.140625 40.078125h64.125v15.03125h-64.125zm0 0"/><path d="m72.140625 136.265625h80.15625v15.03125h-80.15625zm0 0"/><path d="m24.046875 136.265625h16.03125v15.03125h-16.03125zm0 0"/><path d="m168.328125 136.265625h32.0625v15.03125h-32.0625zm0 0"/><path d="m72.140625 168.328125h32.0625v15.03125h-32.0625zm0 0"/><path d="m24.046875 168.328125h16.03125v15.03125h-16.03125zm0 0"/><path d="m120.234375 168.328125h48.09375v15.03125h-48.09375zm0 0"/><path d="m72.140625 200.390625h48.09375v15.03125h-48.09375zm0 0"/><path d="m24.046875 200.390625h16.03125v15.03125h-16.03125zm0 0"/><path d="m136.265625 200.390625h64.125v15.03125h-64.125zm0 0"/><path d="m512 255.5v-255.5h-239.46875v63.125h224.4375v177.34375h-209.40625v-161.3125h-15.03125v49.09375h-33.0625v-128.25h-239.46875v255.5h239.46875v-112.21875h33.0625v112.21875h152.296875v81.15625h-131.359375l-8.015625 8.015625h-57.902344l-8.015625-8.015625h-132.363281v-65.125h-15.03125v65.125h-16.03125v31.0625c0 8.5625 7.46875 16.03125 16.03125 16.03125h368.71875c8.566406 0 15.03125-7.46875 15.03125-16.03125v-31.0625h-16.03125v-81.15625zm-224.4375-207.40625v-33.0625h209.40625v33.0625zm-272.53125-33.0625h33.0625v225.4375h-33.0625zm209.40625 225.4375h-161.3125v-225.4375h161.3125zm216.421875 127.25c0 .273438.277344 1 0 1h-368.71875c-.273437 0-1-.726562-1-1v-16.03125h142.171875l8.015625 8.015625h70.347656l8.015625-8.015625h141.167969zm0 0"/><path d="m304.59375 143.28125h175.34375v-63.125h-175.34375zm15.03125-48.09375h145.28125v33.0625h-145.28125zm0 0"/><path d="m304.59375 223.4375h63.125v-63.125h-63.125zm15.03125-48.09375h33.0625v33.0625h-33.0625zm0 0"/><path d="m384.75 160.3125h96.1875v15.03125h-96.1875zm0 0"/><path d="m384.75 184.359375h96.1875v15.03125h-96.1875zm0 0"/><path d="m384.75 208.40625h96.1875v15.03125h-96.1875zm0 0"/></svg>