<svg id="shipping" xmlns="http://www.w3.org/2000/svg" width="62" height="62" viewBox="0 0 62 62">
  <g id="Bounding_Boxes">
    <g id="Shape">
      <path id="Shape-2" data-name="Shape" d="M0,0H62V62H0Z" fill="none"/>
      <path id="Shape-3" data-name="Shape" d="M0,0H62V62H0Z" fill="none"/>
    </g>
  </g>
  <path id="c2_shipping" data-name="c2/shipping" d="M.4,0H23.25a0,0,0,0,1,0,0V5.167a0,0,0,0,1,0,0H.4a.4.4,0,0,1-.4-.4V.4A.4.4,0,0,1,.4,0Z" transform="translate(12.917 31)" fill="#fff"/>
  <path id="c1_shipping" data-name="c1/shipping" d="M42.624,46.5A6.469,6.469,0,0,1,36.3,38.751H15.371a6.336,6.336,0,0,1,.13,1.29,6.459,6.459,0,1,1-12.79-1.29H2.583A2.586,2.586,0,0,1,0,36.168v-31A5.172,5.172,0,0,1,5.166,0H31a5.173,5.173,0,0,1,5.168,5.166V7.749h5.608a5.135,5.135,0,0,1,3.655,1.514l4.722,4.724a5.132,5.132,0,0,1,1.514,3.653V36.168a2.586,2.586,0,0,1-2.583,2.583h-.128a6.534,6.534,0,0,1,.128,1.29A6.466,6.466,0,0,1,42.624,46.5Zm0-7.749a1.292,1.292,0,1,0,1.293,1.29A1.292,1.292,0,0,0,42.624,38.751Zm-33.582,0a1.292,1.292,0,1,0,1.29,1.29A1.293,1.293,0,0,0,9.042,38.751ZM37.2,12.918a1.033,1.033,0,0,0-1.032,1.032v18.6A1.033,1.033,0,0,0,37.2,33.582h8.268A1.033,1.033,0,0,0,46.5,32.55V18.709a2.6,2.6,0,0,0-.756-1.825l-3.211-3.211a2.575,2.575,0,0,0-1.827-.756ZM6.2,5.166A1.036,1.036,0,0,0,5.166,6.2V32.55A1.035,1.035,0,0,0,6.2,33.582H29.967A1.033,1.033,0,0,0,31,32.55V6.2a1.035,1.035,0,0,0-1.032-1.035Z" transform="translate(5.167 7.75)" fill="#fff"/>
</svg>
