<svg id="shopping-bag" xmlns="http://www.w3.org/2000/svg" width="66.67" height="66.67" viewBox="0 0 66.67 66.67">
  <g id="Bounding_Boxes">
    <g id="Shape">
      <path id="Shape-2" data-name="Shape" d="M0,0H66.67V66.67H0Z" fill="none"/>
      <path id="Shape-3" data-name="Shape" d="M0,0H66.67V66.67H0Z" fill="none"/>
    </g>
  </g>
  <rect id="c2_shopping-bag" data-name="c2/shopping-bag" width="22.223" height="5.556" rx="2" transform="translate(22.223 47.225)" fill="#fff"/>
  <path id="c1_shopping-bag" data-name="c1/shopping-bag" d="M8.48,55.558A8.417,8.417,0,0,1,0,47.225c0-.175.008-.358.02-.56l1.713-25a8.444,8.444,0,0,1,8.46-7.773h.918v-2.78a11.112,11.112,0,0,1,22.224,0v2.78h.918a8.445,8.445,0,0,1,8.463,7.773l1.713,25A8.2,8.2,0,0,1,42.4,52.653a8.486,8.486,0,0,1-5.868,2.888c-.18.013-.365.018-.57.018Zm-1.2-33.522-1.723,25q-.008.094-.008.188A2.815,2.815,0,0,0,8.4,50H36.047c.065,0,.128,0,.19-.007a2.847,2.847,0,0,0,1.973-.968,2.721,2.721,0,0,0,.675-1.99l-1.723-25a2.823,2.823,0,0,0-2.838-2.59h-.99V30.557A6.093,6.093,0,0,1,27.779,25V19.446H16.668V25a6.093,6.093,0,0,1-5.558,5.555V19.446h-.988A2.823,2.823,0,0,0,7.285,22.036Zm20.494-8.145v-2.78a5.555,5.555,0,1,0-11.111,0v2.78Z" transform="translate(11.112 5.556)" fill="#fff"/>
</svg>
