<?xml version="1.0" encoding="utf-8"?>
<!-- Generator: Adobe Illustrator 23.0.3, SVG Export Plug-In . SVG Version: 6.00 Build 0)  -->
<svg version="1.1" id="Calque_1" xmlns="http://www.w3.org/2000/svg" xmlns:xlink="http://www.w3.org/1999/xlink" x="0px" y="0px"
	 viewBox="0 0 637 191.4" style="enable-background:new 0 0 637 191.4;" xml:space="preserve">
<style type="text/css">
	.st0{display:none;opacity:0.12;fill:#FFFFFF;enable-background:new    ;}
	.st1{display:none;}
	.st2{display:inline;opacity:0.26;fill:#FFFFFF;enable-background:new    ;}
	.st3{fill:#FFFFFF;}
</style>
<g>
	<path class="st0" d="M429.2,70.7c0,0.3-0.3,1-1,1c-5.7,0.3-10.7,0.3-15.3,0.8c-9.1,0.8-9.9,1.6-9.9,10.4c0,9.1,0.3,18.2,0,27.6
		c-0.3,9.9,0.3,11.2,10.4,11.2c17.9,0,35.9,0,53.8,0c8.1,0,9.1-1,9.1-9.6c0-22.9,0-45.8,0-68.7c0-7.3,0-14,0-21.3
		c-0.3-11.2-4.9-16.9-16.1-18.7c-6.8-1-14-1.8-21.1-1.8c-13.3-0.3-27.1,0-40.3-0.3s-25.2,3.9-36.7,10.4
		c-8.3,4.7-14.6,11.4-16.4,21.1c-1.6,6.8-2.6,14-3.1,21.1c-0.8,26.8-1,53.3-0.8,80.1c0,9.6,0.8,19,3.1,28.4
		c5.5,21.1,16.4,28.9,38.2,28.9c30.4,0,61.4,0.3,91.8,0.3c17.2,0,34.3-0.3,51.5-0.8c9.6,0,13.3-3.9,13.3-13.3c0-1.6,0-2.6,0-4.2
		c0-30.4,0-61.4,0.3-91.8c0-9.1,0.8-17.9,1-27.1c0-0.3,0.3-1,1-1c9.9,0,18.7-0.8,27.6,0.3c8.3,0.8,14,6.5,15.6,14.8
		c0.8,6,1,12.2,1,18.2c0,26-0.3,51.8-0.8,77.8c0,4.7-0.3,9.6,0.3,14c1,9.1,5.7,12.5,15.3,12.5c8.3,0,16.9-0.3,25.2-0.3
		c2.6,0,5.5-0.3,8.8-0.8c0.3,0,0.8-0.3,0.8-1c0.8-8.3,1.6-16.1,1.6-23.9c0-42.4-0.3-84.3-0.8-126.7c0-3.4-0.3-6.8-0.8-9.9
		c-1.6-11.2-7.5-18.7-17.9-22.6c-5.7-1.8-11.7-3.4-17.4-3.4c-32.5-0.3-64.8-0.3-97.3,0c-13,0-16.9,3.4-17.9,16.4c0,1.6,0,3.4,0,4.9
		c0,29.4,0,58.8-0.3,88.2c0,6,0,12.2-0.3,18.2c-0.8,8.1-1.6,9.1-9.9,9.6c-22.6,0.3-45.5,0.3-67.9,0.3c-3.9,0-7.5-1-11.2-1.8
		c-0.3,0-0.8-0.3-0.8-0.8c-0.3-1.8-0.8-3.4-0.8-4.7c-0.3-21.1-0.8-41.9-1-62.7c0-2.6,0.3-5.5,1.8-7.5c1.6-2.3,3.9-5.7,6-5.7
		c8.8-0.3,17.9-0.3,27.1,0c0.3,0,1,0.3,1,1V71h0V70.7z M125.9,72.8c-0.8,0-1.6,0-1.8,0c-7.5,0.8-8.3,1.6-8.3,9.1
		c0,10.7-0.3,21.3-0.8,32.5c0,3.9,1.8,5.7,5.5,6.5c1.8,0.3,4.2,0.3,6,0.3c17.4,0,35.1,0,52.5,0c8.8,0,9.9-1,9.9-9.9
		c0-27.6-0.3-54.6-0.3-81.9c0-4.2-0.3-8.1-1-12.2c-1-8.3-5.7-13.8-14-14.6c-6.8-0.8-13.3-1.8-20.3-1.8c-13.8-0.3-27.8,0-41.6-0.3
		c-13.3-0.3-25.2,3.9-36.7,9.9C66.6,15.1,60.3,21.8,58,31c-1.6,6.5-2.6,13.3-3.1,19.8c-0.8,27.8-1,55.4-0.8,83.2
		c0,13,1,25.5,7.3,37.5c5.7,11.4,15.3,16.4,27.6,17.9c2.3,0.3,4.7,0,7.3,0c58,0,116,0,174,0c9.6,0,19,0,28.4,0
		c14.8-0.3,25.5-6.8,31.7-21.1c4.9-11.7,5.7-24.4,5.7-36.7c0-25.2-0.3-50.7-1-75.9c0-7.3-1-14.8-2.3-22.1c-1-8.1-5.5-14.6-11.7-19.5
		C310.6,6,298.9,0.8,285.6,0.3c-19-0.3-38.5-0.3-57.5,0.3c-21.1,1-25.5,5.5-26,26.3c-0.8,27.8-0.3,56.2-0.8,84c0,8.3,1,9.6,9.1,9.6
		c18.2,0,36.7,0,54.6,0c1.6,0,3.4,0,4.9-0.3c3.4-0.8,4.9-3.1,4.9-6.5c-0.3-10.7-0.3-21.3-0.8-32.5c0-7.5-1-8.3-8.8-9.1
		c-5.5-0.3-10.7-0.8-16.4-1c-0.3,0-1-0.3-1-1V55.1c0-0.3,0.3-1,1-1c7.5-0.3,15.6-0.8,23.1-0.8c6.8,0,9.1,1.6,11.2,8.1
		c0.8,2.6,1,5.5,1,8.1c0,13.8,0,27.8-0.3,41.6c0,7.5-0.8,15.6-1,23.9c0,0.3-0.3,0.8-0.8,1c-6,0.8-11.4,1.8-16.9,1.8
		c-46.8,0-93.9,0-140.7,0c-5.5,0-10.7-1-16.1-1.8c-0.3,0-0.8-0.3-0.8-0.8c-0.3-1.8-0.8-3.1-0.8-4.2c-0.3-21.3-0.8-42.4-1-63.7
		c0-2.6,0.8-5.5,1.8-7.5c1.6-2.3,3.9-5.5,6-5.7c3.9-0.3,8.1-0.8,11.7-0.8C125.9,66.3,125.4,60.6,125.9,72.8z M40.8,122.2
		c0.3,0,0.8-0.3,0.8-1c0.3-16.1,0.8-31.2,0.8-46c0-4.2-2.6-6.8-7.3-6.8c-7.3-0.3-14-0.8-21.3-0.3C7.8,68.4,2.3,72,1.6,78
		C0,89.2,0,100.1,0,111.3c0,5.5,3.4,9.6,9.1,10.4C19,123,28.9,123.5,40.8,122.2z"/>
	<g class="st1">
		<path class="st2" d="M429.2,70.7V55.7c0-0.3-0.3-1-1-1c-9.1,0-18.2-0.3-27.1,0c-2.3,0-4.7,3.4-6,5.7c-1,2.3-1.8,4.9-1.8,7.5
			c0.3,21.1,0.8,41.9,1,62.7c0,1.6,0.3,3.1,0.8,4.7c0,0.3,0.3,0.8,0.8,0.8c3.9,0.8,7.5,1.8,11.2,1.8c22.6,0,45.5,0,67.9-0.3
			c8.3,0,9.1-1,9.9-9.6c0.3-6,0.3-12.2,0.3-18.2c0-29.4,0-58.8,0.3-88.2c0-1.6,0-3.4,0-4.9c1-13,4.9-16.4,17.9-16.4
			c32.5,0,64.8,0,97.3,0c6,0,12.2,1.6,17.4,3.4c10.4,3.9,16.4,11.4,17.9,22.6c0.3,3.4,0.8,6.8,0.8,9.9c0.3,42.4,0.8,84.3,0.8,126.7
			c0,7.5-0.8,15.6-1.6,23.9c0,0.3-0.3,0.8-0.8,1c-3.4,0.3-6,0.8-8.8,0.8c-8.3,0.3-16.9,0.3-25.2,0.3c-9.1,0-13.8-3.4-15.3-12.5
			c-0.8-4.7-0.3-9.6-0.3-14c0-26,0.3-51.8,0.8-77.8c0-6-0.3-12.2-1-18.2c-1-8.8-6.8-14-15.6-14.8c-8.8-0.8-17.4-0.3-27.6-0.3
			c-0.3,0-1,0.3-1,1c-0.3,9.1-1,17.9-1,27.1c-0.3,30.4-0.3,61.4-0.3,91.8c0,1.6,0,2.6,0,4.2c-0.3,9.9-3.9,13.3-13.3,13.3
			c-17.2,0.3-34.3,0.8-51.5,0.8c-30.4,0-61.4-0.3-91.8-0.3c-21.8,0-32.8-8.1-38.2-28.9c-2.3-9.1-3.1-18.7-3.1-28.4
			c0-26.8,0.3-53.3,0.8-80.1c0-6.8,1-14,3.1-21.1c2.3-9.6,8.3-16.1,16.4-21.1C373.5,3.1,385.2-1,398.7-0.8c13.3,0.3,27.1,0,40.3,0.3
			c6.8,0,14,0.8,21.1,1.8c11.2,1.8,15.6,7.5,16.1,18.7c0.3,7.3,0,14,0,21.3c0,22.9,0,45.8,0,68.7c0,8.3-1,9.6-9.1,9.6
			c-17.9,0-35.9,0-53.8,0c-9.9,0-10.7-1-10.4-11.2c0.3-9.1,0-18.2,0-27.6c0-8.8,0.8-9.6,9.9-10.4c4.7-0.3,9.6-0.8,15.3-0.8
			C428.6,72,429.2,71.5,429.2,70.7z"/>
		<path class="st2" d="M125.9,72.8c-0.3-12.2-0.3-6.8-0.8-18.7c-3.9,0-8.1,0.3-11.7,0.8c-2.3,0.3-4.7,3.4-6,5.7
			c-1,2.3-1.8,4.9-1.8,7.5c0.3,21.3,0.8,42.4,1,63.7c0,1,0.3,2.3,0.8,4.2c0,0.3,0.3,0.8,0.8,0.8c5.5,0.8,10.7,1.6,16.1,1.8
			c46.8,0,93.9,0,140.7,0c5.5,0,10.7-1,16.9-1.8c0.3,0,0.8-0.3,0.8-1c0.3-8.3,1-16.1,1-23.9C284,98.1,284,84,284,70.2
			c0-2.6,0-5.5-1-8.1c-1.8-6.5-3.9-8.1-11.2-8.1c-7.5,0-15.3,0.3-23.1,0.8c-0.3,0-1,0.3-1,1v14.8c0,0.3,0.3,1,1,1
			c5.7,0.3,11.2,0.8,16.4,1c7.5,0.8,8.8,1.6,8.8,9.1c0,10.7,0.3,21.3,0.8,32.5c0,3.9-1.6,5.7-4.9,6.5c-1.6,0.3-3.4,0.3-4.9,0.3
			c-18.2,0-36.7,0-54.6,0c-8.1,0-9.1-1-9.1-9.6c0-27.8,0-56.2,0.8-84c0.3-21.1,4.9-25.5,26-26.3c19-0.8,38.5-1,57.5-0.3
			c13,0.3,24.7,5.7,35.4,13.8c6.5,4.9,10.7,11.4,11.7,19.5c1,7.3,1.8,14.8,2.3,22.1c0.3,25.2,0.8,50.7,1,75.9
			c0,12.5-0.3,24.7-5.7,36.7c-6,14-16.9,20.5-31.7,21.1c-9.6,0-19,0-28.4,0c-58,0-116,0-174,0c-2.3,0-4.7,0-7.3,0
			c-12.2-1-21.8-6.5-27.6-17.9c-6-11.7-7.3-24.7-7.3-37.5c0-27.8,0.3-55.4,0.8-83.2c0-6.8,1.6-13.3,3.1-19.8
			c2.3-9.6,8.3-16.1,16.9-20.5c11.4-6,23.1-10.4,36.7-9.9c13.8,0.3,27.8,0,41.6,0.3c6.8,0,13.3,1,20.3,1.8c8.8,1,13,6.5,14,14.6
			c0.3,3.9,1,8.1,1,12.2c0.3,27.6,0.3,54.6,0.3,81.9c0,8.8-1,9.9-9.9,9.9c-17.4,0-35.1,0-52.5,0c-1.8,0-4.2,0-6-0.3
			c-3.4-0.8-5.5-2.6-5.5-6.5c0.3-10.7,0.3-21.3,0.8-32.5c0-7.5,1-8.8,8.3-9.1C124.8,72.8,125.4,72.8,125.9,72.8z"/>
		<path class="st2" d="M41.6,121.2c0,0.3-0.3,1-0.8,1c-11.7,1.6-21.8,0.8-31.2-0.8c-5.7-0.8-9.1-4.9-9.1-10.4
			c0-11.2,0.3-22.1,1.6-33.3c0.8-6,6.5-9.6,12.2-9.9c6.8-0.3,14,0,21.3,0.3c4.7,0,7.3,2.6,7.3,6.8C42.4,90,41.9,105.1,41.6,121.2z"
			/>
	</g>
	<path class="st3" d="M42.7,77v41.6c0,1.6-1.6,3.1-3.1,3.1H14c-7.5,0-13.8-6-13.8-13.8V88.2c0-7.5,6-13.8,13.8-13.8h25.5
		C41.6,73.9,42.7,75.2,42.7,77z M592,1h-7.3h-46.6h-38.5c-8.1,0-14,6.5-14,14v38.5v76.7c0,3.4-2.6,6-6,6h-81.9c-1.6,0-3.1-1-3.1-3.1
		V64.8c0-6.5,5.5-11.7,11.7-11.7h14c1.8,0,3.4,1.6,3.4,3.4v13.3c0,1.8-1.6,3.4-3.4,3.4h-9.1c-4.9,0-8.8,3.9-8.8,8.8v22.9
		c0,8.8,7.3,16.1,16.1,16.1h5.5h44c4.9,0,8.8-3.9,8.8-8.8V68.7V53.3V38.8c0-21.1-17.2-38.2-38.2-38.2H424h-29.7h-1.6
		c-28.4,0-51.2,22.9-51.2,51.2v1.6v83.2v13.3c0,21.8,17.4,39.3,39.3,39.3H394h91h38.5c7.5,0,14-6.5,14-14V54.6c0-0.8,0.3-1,1-1h27.1
		c10.4,0,18.2,8.3,18.2,18.2v105.3c0,6.8,5.5,12.2,12.2,12.2h38.2c1.6,0,2.6-1,2.6-2.6V53.6v-7.3C637.5,21.3,617.2,1,592,1z
		 M284.3,1h-1h-29.7h-36.9c-8.8,0-15.6,6.8-15.6,15.6v36.9v20.3v31.7c0,8.8,7.3,16.1,16.1,16.1h22.1c8.1,0,14.6-6.5,14.6-14.6V57.2
		c0-1.8,1.6-3.4,3.4-3.4h14c6.5,0,11.7,5.5,11.7,11.7v68.1c0,1.6-1,3.1-3.1,3.1h-31.5H141.2h-32.5c-1,0-1.8-1-1.8-1.8V69.7
		c0-11.2,4.9-16.1,10.7-16.1h15.3c1.8,0,3.4,1.6,3.4,3.4v13.3c0,1.8-1.6,3.4-3.4,3.4h-9.1c-4.9,0-8.8,3.9-8.8,8.8v29.7
		c0,4.9,3.9,8.8,8.8,8.8H136h36.7c8.8,0,16.1-7.3,16.1-16.1V73.1V52.8V38.2c0-21.1-17.2-38.2-38.2-38.2H136h-29.7h-1.6
		C76.5,0,53.6,22.9,53.6,51.2v6.5V141v8.3c0,21.8,17.4,39.3,39.3,39.3h13.3h34.3h107.2h34.3h13.3c21.8,0,39.3-17.4,39.3-39.3V136
		V52.8v-1.6C335.8,23.9,312.4,1,284.3,1z"/>
</g>
</svg>
