<?xml version="1.0" encoding="utf-8"?>
<!-- Generator: Adobe Illustrator 23.0.3, SVG Export Plug-In . SVG Version: 6.00 Build 0)  -->
<svg version="1.1" id="Calque_1" xmlns="http://www.w3.org/2000/svg" xmlns:xlink="http://www.w3.org/1999/xlink" x="0px" y="0px"
	 viewBox="0 0 445.5 250" style="enable-background:new 0 0 445.5 250;" xml:space="preserve">
<style type="text/css">
	.st0{display:none;opacity:0.12;fill:#FFFFFF;enable-background:new    ;}
	.st1{display:none;}
	.st2{display:inline;opacity:0.26;fill:#FFFFFF;enable-background:new    ;}
	.st3{fill:#FFFFFF;}
</style>
<g>
	<path class="st0" d="M300.2,107.8c0,0.2-0.2,0.7-0.7,0.7c-4,0.2-7.5,0.2-10.7,0.5c-6.4,0.5-6.9,1.1-6.9,7.3c0,6.4,0.2,12.7,0,19.3
		c-0.2,6.9,0.2,7.8,7.3,7.8c12.6,0,25.1,0,37.7,0c5.6,0,6.4-0.7,6.4-6.7c0-16,0-32,0-48c0-5.1,0-9.8,0-14.9
		c-0.2-7.8-3.5-11.8-11.3-13.1c-4.7-0.7-9.8-1.3-14.7-1.3c-9.3-0.2-18.9,0-28.2-0.2c-9.3-0.2-17.6,2.7-25.7,7.3
		c-5.8,3.3-10.2,8-11.5,14.7c-1.1,4.7-1.8,9.8-2.2,14.7c-0.5,18.7-0.7,37.3-0.5,56c0,6.7,0.5,13.3,2.2,19.8
		C245,186.6,252.7,192,268,192c21.3,0,42.9,0.2,64.2,0.2c12,0,24-0.2,36-0.5c6.7,0,9.3-2.7,9.3-9.3c0-1.1,0-1.8,0-2.9
		c0-21.3,0-42.9,0.2-64.2c0-6.4,0.5-12.6,0.7-18.9c0-0.2,0.2-0.7,0.7-0.7c6.9,0,13.1-0.5,19.3,0.2c5.8,0.5,9.8,4.5,10.9,10.4
		c0.5,4.2,0.7,8.6,0.7,12.7c0,18.2-0.2,36.2-0.5,54.4c0,3.3-0.2,6.7,0.2,9.8c0.7,6.4,4,8.7,10.7,8.7c5.8,0,11.8-0.2,17.6-0.2
		c1.8,0,3.8-0.2,6.2-0.5c0.2,0,0.5-0.2,0.5-0.7c0.5-5.8,1.1-11.3,1.1-16.7c0-29.7-0.2-58.9-0.5-88.6c0-2.4-0.2-4.7-0.5-6.9
		c-1.1-7.8-5.3-13.1-12.6-15.8c-4-1.3-8.2-2.4-12.2-2.4c-22.7-0.2-45.3-0.2-68,0c-9.1,0-11.8,2.4-12.6,11.5c0,1.1,0,2.4,0,3.5
		c0,20.6,0,41.1-0.2,61.7c0,4.2,0,8.6-0.2,12.7c-0.5,5.6-1.1,6.4-6.9,6.7c-15.8,0.2-31.8,0.2-47.5,0.2c-2.7,0-5.3-0.7-7.8-1.3
		c-0.2,0-0.5-0.2-0.5-0.5c-0.2-1.3-0.5-2.4-0.5-3.3c-0.2-14.7-0.5-29.3-0.7-43.8c0-1.8,0.2-3.8,1.3-5.3c1.1-1.6,2.7-4,4.2-4
		c6.2-0.2,12.6-0.2,18.9,0c0.2,0,0.7,0.2,0.7,0.7v9.3h0V107.8z M88,109.3c-0.5,0-1.1,0-1.3,0c-5.3,0.5-5.8,1.1-5.8,6.4
		c0,7.5-0.2,14.9-0.5,22.7c0,2.7,1.3,4,3.8,4.5c1.3,0.2,2.9,0.2,4.2,0.2c12.2,0,24.6,0,36.7,0c6.2,0,6.9-0.7,6.9-6.9
		c0-19.3-0.2-38.2-0.2-57.3c0-2.9-0.2-5.6-0.7-8.6c-0.7-5.8-4-9.6-9.8-10.2c-4.7-0.5-9.3-1.3-14.2-1.3c-9.6-0.2-19.5,0-29.1-0.2
		c-9.3-0.2-17.6,2.7-25.7,6.9c-5.8,3.3-10.2,8-11.8,14.4c-1.1,4.5-1.8,9.3-2.2,13.8c-0.5,19.5-0.7,38.7-0.5,58.2
		c0,9.1,0.7,17.8,5.1,26.2c4,8,10.7,11.5,19.3,12.6c1.6,0.2,3.3,0,5.1,0c40.6,0,81.1,0,121.7,0c6.7,0,13.3,0,19.8,0
		c10.4-0.2,17.8-4.7,22.2-14.7c3.5-8.2,4-17.1,4-25.7c0-17.6-0.2-35.5-0.7-53.1c0-5.1-0.7-10.4-1.6-15.5c-0.7-5.6-3.8-10.2-8.2-13.6
		c-7.3-5.6-15.5-9.3-24.7-9.6c-13.3-0.2-26.9-0.2-40.2,0.2c-14.7,0.7-17.8,3.8-18.2,18.4c-0.5,19.5-0.2,39.3-0.5,58.8
		c0,5.8,0.7,6.7,6.4,6.7c12.7,0,25.7,0,38.2,0c1.1,0,2.4,0,3.5-0.2c2.4-0.5,3.5-2.2,3.5-4.5c-0.2-7.5-0.2-14.9-0.5-22.7
		c0-5.3-0.7-5.8-6.2-6.4c-3.8-0.2-7.5-0.5-11.5-0.7c-0.2,0-0.7-0.2-0.7-0.7V96.9c0-0.2,0.2-0.7,0.7-0.7c5.3-0.2,10.9-0.5,16.2-0.5
		c4.7,0,6.4,1.1,7.8,5.6c0.5,1.8,0.7,3.8,0.7,5.6c0,9.6,0,19.5-0.2,29.1c0,5.3-0.5,10.9-0.7,16.7c0,0.2-0.2,0.5-0.5,0.7
		c-4.2,0.5-8,1.3-11.8,1.3c-32.7,0-65.7,0-98.4,0c-3.8,0-7.5-0.7-11.3-1.3c-0.2,0-0.5-0.2-0.5-0.5c-0.2-1.3-0.5-2.2-0.5-2.9
		c-0.2-14.9-0.5-29.7-0.7-44.6c0-1.8,0.5-3.8,1.3-5.3c1.1-1.6,2.7-3.8,4.2-4c2.7-0.2,5.6-0.5,8.2-0.5C88,104.7,87.7,100.7,88,109.3z
		 M28.6,143.8c0.2,0,0.5-0.2,0.5-0.7c0.2-11.3,0.5-21.8,0.5-32.2c0-2.9-1.8-4.7-5.1-4.7c-5.1-0.2-9.8-0.5-14.9-0.2
		c-4.2,0.2-8,2.7-8.6,6.9C0,120.7,0,128.4,0,136.2c0,3.8,2.4,6.7,6.4,7.3C13.3,144.4,20.2,144.7,28.6,143.8z"/>
	<g class="st1">
		<path class="st2" d="M300.2,107.8V97.3c0-0.2-0.2-0.7-0.7-0.7c-6.4,0-12.7-0.2-18.9,0c-1.6,0-3.3,2.4-4.2,4
			c-0.7,1.6-1.3,3.5-1.3,5.3c0.2,14.7,0.5,29.3,0.7,43.8c0,1.1,0.2,2.2,0.5,3.3c0,0.2,0.2,0.5,0.5,0.5c2.7,0.5,5.3,1.3,7.8,1.3
			c15.8,0,31.8,0,47.5-0.2c5.8,0,6.4-0.7,6.9-6.7c0.2-4.2,0.2-8.6,0.2-12.7c0-20.6,0-41.1,0.2-61.7c0-1.1,0-2.4,0-3.5
			c0.7-9.1,3.5-11.5,12.6-11.5c22.7,0,45.3,0,68,0c4.2,0,8.6,1.1,12.2,2.4c7.3,2.7,11.5,8,12.6,15.8c0.2,2.4,0.5,4.7,0.5,6.9
			c0.2,29.7,0.5,58.9,0.5,88.6c0,5.3-0.5,10.9-1.1,16.7c0,0.2-0.2,0.5-0.5,0.7c-2.4,0.2-4.2,0.5-6.2,0.5c-5.8,0.2-11.8,0.2-17.6,0.2
			c-6.4,0-9.6-2.4-10.7-8.7c-0.5-3.3-0.2-6.7-0.2-9.8c0-18.2,0.2-36.2,0.5-54.4c0-4.2-0.2-8.6-0.7-12.7c-0.7-6.2-4.7-9.8-10.9-10.4
			c-6.2-0.5-12.2-0.2-19.3-0.2c-0.2,0-0.7,0.2-0.7,0.7c-0.2,6.4-0.7,12.6-0.7,18.9c-0.2,21.3-0.2,42.9-0.2,64.2c0,1.1,0,1.8,0,2.9
			c-0.2,6.9-2.7,9.3-9.3,9.3c-12,0.2-24,0.5-36,0.5c-21.3,0-42.9-0.2-64.2-0.2c-15.3,0-22.9-5.6-26.7-20.2
			c-1.6-6.4-2.2-13.1-2.2-19.8c0-18.7,0.2-37.3,0.5-56c0-4.7,0.7-9.8,2.2-14.7c1.6-6.7,5.8-11.3,11.5-14.7c8-4.5,16.2-7.5,25.7-7.3
			c9.3,0.2,18.9,0,28.2,0.2c4.7,0,9.8,0.5,14.7,1.3c7.8,1.3,10.9,5.3,11.3,13.1c0.2,5.1,0,9.8,0,14.9c0,16,0,32,0,48
			c0,5.8-0.7,6.7-6.4,6.7c-12.6,0-25.1,0-37.7,0c-6.9,0-7.5-0.7-7.3-7.8c0.2-6.4,0-12.7,0-19.3c0-6.2,0.5-6.7,6.9-7.3
			c3.3-0.2,6.7-0.5,10.7-0.5C299.8,108.7,300.2,108.4,300.2,107.8z"/>
		<path class="st2" d="M88,109.3c-0.2-8.6-0.2-4.7-0.5-13.1c-2.7,0-5.6,0.2-8.2,0.5c-1.6,0.2-3.3,2.4-4.2,4
			c-0.7,1.6-1.3,3.5-1.3,5.3c0.2,14.9,0.5,29.7,0.7,44.6c0,0.7,0.2,1.6,0.5,2.9c0,0.2,0.2,0.5,0.5,0.5c3.8,0.5,7.5,1.1,11.3,1.3
			c32.7,0,65.7,0,98.4,0c3.8,0,7.5-0.7,11.8-1.3c0.2,0,0.5-0.2,0.5-0.7c0.2-5.8,0.7-11.3,0.7-16.7c0.2-9.6,0.2-19.5,0.2-29.1
			c0-1.8,0-3.8-0.7-5.6c-1.3-4.5-2.7-5.6-7.8-5.6c-5.3,0-10.7,0.2-16.2,0.5c-0.2,0-0.7,0.2-0.7,0.7v10.4c0,0.2,0.2,0.7,0.7,0.7
			c4,0.2,7.8,0.5,11.5,0.7c5.3,0.5,6.2,1.1,6.2,6.4c0,7.5,0.2,14.9,0.5,22.7c0,2.7-1.1,4-3.5,4.5c-1.1,0.2-2.4,0.2-3.5,0.2
			c-12.7,0-25.7,0-38.2,0c-5.6,0-6.4-0.7-6.4-6.7c0-19.5,0-39.3,0.5-58.8c0.2-14.7,3.5-17.8,18.2-18.4c13.3-0.5,26.9-0.7,40.2-0.2
			c9.1,0.2,17.3,4,24.7,9.6c4.5,3.5,7.5,8,8.2,13.6c0.7,5.1,1.3,10.4,1.6,15.5c0.2,17.6,0.5,35.5,0.7,53.1c0,8.7-0.2,17.3-4,25.7
			c-4.2,9.8-11.8,14.4-22.2,14.7c-6.7,0-13.3,0-19.8,0c-40.6,0-81.1,0-121.7,0c-1.6,0-3.3,0-5.1,0c-8.6-0.7-15.3-4.5-19.3-12.6
			c-4.2-8.2-5.1-17.3-5.1-26.2c0-19.5,0.2-38.7,0.5-58.2c0-4.7,1.1-9.3,2.2-13.8c1.6-6.7,5.8-11.3,11.8-14.4
			c8-4.2,16.2-7.3,25.7-6.9c9.6,0.2,19.5,0,29.1,0.2c4.7,0,9.3,0.7,14.2,1.3c6.2,0.7,9.1,4.5,9.8,10.2c0.2,2.7,0.7,5.6,0.7,8.6
			c0.2,19.3,0.2,38.2,0.2,57.3c0,6.2-0.7,6.9-6.9,6.9c-12.2,0-24.6,0-36.7,0c-1.3,0-2.9,0-4.2-0.2c-2.4-0.5-3.8-1.8-3.8-4.5
			c0.2-7.5,0.2-14.9,0.5-22.7c0-5.3,0.7-6.2,5.8-6.4C87.3,109.3,87.7,109.3,88,109.3z"/>
		<path class="st2" d="M29.1,143.1c0,0.2-0.2,0.7-0.5,0.7c-8.2,1.1-15.3,0.5-21.8-0.5c-4-0.5-6.4-3.5-6.4-7.3
			c0-7.8,0.2-15.5,1.1-23.3C2,108.5,6,106,10,105.8c4.7-0.2,9.8,0,14.9,0.2c3.3,0,5.1,1.8,5.1,4.7C29.7,121.3,29.3,131.8,29.1,143.1
			z"/>
	</g>
	<path class="st3" d="M29.8,112.2v29.1c0,1.1-1.1,2.2-2.2,2.2H9.8c-5.3,0-9.6-4.2-9.6-9.6V120c0-5.3,4.2-9.6,9.6-9.6h17.8
		C29.1,110,29.8,110.9,29.8,112.2z M414,59.1H409h-32.6h-26.9c-5.6,0-9.8,4.5-9.8,9.8v26.9v53.7c0,2.4-1.8,4.2-4.2,4.2h-57.3
		c-1.1,0-2.2-0.7-2.2-2.2v-47.8c0-4.5,3.8-8.2,8.2-8.2h9.8c1.3,0,2.4,1.1,2.4,2.4v9.3c0,1.3-1.1,2.4-2.4,2.4h-6.4
		c-3.5,0-6.2,2.7-6.2,6.2v16c0,6.2,5.1,11.3,11.3,11.3h3.8h30.7c3.5,0,6.2-2.7,6.2-6.2v-30.4V95.6V85.4c0-14.7-12-26.7-26.7-26.7
		h-10.2h-20.7h-1.1c-19.8,0-35.8,16-35.8,35.8v1.1v58.2v9.3c0,15.3,12.2,27.5,27.5,27.5h9.3h63.7h26.9c5.3,0,9.8-4.5,9.8-9.8V96.5
		c0-0.5,0.2-0.7,0.7-0.7h18.9c7.3,0,12.7,5.8,12.7,12.7v73.7c0,4.7,3.8,8.6,8.6,8.6h26.7c1.1,0,1.8-0.7,1.8-1.8V95.8v-5.1
		C445.9,73.2,431.7,59.1,414,59.1z M198.8,59.1h-0.7h-20.7h-25.8c-6.2,0-10.9,4.7-10.9,10.9v25.8V110v22.2c0,6.2,5.1,11.3,11.3,11.3
		h15.5c5.6,0,10.2-4.5,10.2-10.2V98.4c0-1.3,1.1-2.4,2.4-2.4h9.8c4.5,0,8.2,3.8,8.2,8.2v47.7c0,1.1-0.7,2.2-2.2,2.2h-22h-75H76
		c-0.7,0-1.3-0.7-1.3-1.3v-45.7c0-7.8,3.5-11.3,7.5-11.3H93c1.3,0,2.4,1.1,2.4,2.4v9.3c0,1.3-1.1,2.4-2.4,2.4h-6.4
		c-3.5,0-6.2,2.7-6.2,6.2v20.7c0,3.5,2.7,6.2,6.2,6.2h8.6h25.7c6.2,0,11.3-5.1,11.3-11.3v-22.2V95.3V85.1c0-14.7-12-26.7-26.7-26.7
		H95.1H74.4h-1.1c-19.8,0-35.8,16-35.8,35.8v4.5v58.2v5.8c0,15.3,12.2,27.5,27.5,27.5h9.3h24h75h24h9.3c15.3,0,27.5-12.2,27.5-27.5
		v-9.3V95.3v-1.1C234.9,75.1,218.5,59.1,198.8,59.1z"/>
</g>
</svg>
